<mxfile host="app.diagrams.net" modified="2024-02-15T03:24:21.508Z" agent="Mozilla/5.0 (Windows NT 10.0; Win64; x64) AppleWebKit/537.36 (KHTML, like Gecko) Chrome/121.0.0.0 Safari/537.36" etag="UArAzibhthTYp8bj6nnF" version="23.1.1" type="github">
  <diagram name="Trang-1" id="VdIjiYLhETTFhcPsr7JG">
    <mxGraphModel dx="2261" dy="-1552" grid="1" gridSize="10" guides="1" tooltips="1" connect="1" arrows="1" fold="1" page="1" pageScale="1" pageWidth="827" pageHeight="1169" math="0" shadow="0">
      <root>
        <mxCell id="0" />
        <mxCell id="1" parent="0" />
        <mxCell id="uL55kOceticVz0h6povc-1" value="" style="rounded=0;whiteSpace=wrap;html=1;" vertex="1" parent="1">
          <mxGeometry x="880" y="3010" width="640" height="570" as="geometry" />
        </mxCell>
        <mxCell id="uL55kOceticVz0h6povc-2" value="" style="rounded=0;whiteSpace=wrap;html=1;" vertex="1" parent="1">
          <mxGeometry x="880" y="3010" width="640" height="30" as="geometry" />
        </mxCell>
        <mxCell id="uL55kOceticVz0h6povc-3" value="HI" style="rounded=0;whiteSpace=wrap;html=1;" vertex="1" parent="1">
          <mxGeometry x="1380" y="3010" width="30" height="30" as="geometry" />
        </mxCell>
        <mxCell id="uL55kOceticVz0h6povc-4" value="" style="rounded=0;whiteSpace=wrap;html=1;" vertex="1" parent="1">
          <mxGeometry x="1340" y="3080" width="150" height="210" as="geometry" />
        </mxCell>
        <mxCell id="uL55kOceticVz0h6povc-5" value="START" style="ellipse;whiteSpace=wrap;html=1;aspect=fixed;" vertex="1" parent="1">
          <mxGeometry x="1375" y="3190" width="80" height="80" as="geometry" />
        </mxCell>
        <mxCell id="uL55kOceticVz0h6povc-6" style="rounded=0;orthogonalLoop=1;jettySize=auto;html=1;entryX=0.544;entryY=0.007;entryDx=0;entryDy=0;entryPerimeter=0;" edge="1" parent="1" source="uL55kOceticVz0h6povc-3" target="uL55kOceticVz0h6povc-4">
          <mxGeometry relative="1" as="geometry" />
        </mxCell>
        <mxCell id="uL55kOceticVz0h6povc-7" value="" style="shape=flexArrow;endArrow=classic;html=1;rounded=0;" edge="1" parent="1" target="uL55kOceticVz0h6povc-8">
          <mxGeometry width="50" height="50" relative="1" as="geometry">
            <mxPoint x="1540" y="3295" as="sourcePoint" />
            <mxPoint x="1760" y="3290" as="targetPoint" />
          </mxGeometry>
        </mxCell>
        <mxCell id="uL55kOceticVz0h6povc-8" value="OPEN NEW TAB" style="text;html=1;strokeColor=none;fillColor=none;align=center;verticalAlign=middle;whiteSpace=wrap;rounded=0;" vertex="1" parent="1">
          <mxGeometry x="1690" y="3265" width="170" height="60" as="geometry" />
        </mxCell>
        <mxCell id="uL55kOceticVz0h6povc-9" value="" style="rounded=0;whiteSpace=wrap;html=1;" vertex="1" parent="1">
          <mxGeometry x="1850" y="3010" width="640" height="570" as="geometry" />
        </mxCell>
        <mxCell id="uL55kOceticVz0h6povc-10" value="" style="shape=image;verticalLabelPosition=bottom;labelBackgroundColor=default;verticalAlign=top;aspect=fixed;imageAspect=0;image=data:image/png,iVBORw0KGgoAAAANSUhEUgAAAwwAAAL2CAYAAADsARGwAAAAAXNSR0IArs4c6QAAAARnQU1BAACxjwv8YQUAAAAJcEhZcwAADsMAAA7DAcdvqGQAAABhaVRYdFNuaXBNZXRhZGF0YQAAAAAAeyJjbGlwUG9pbnRzIjpbeyJ4IjowLCJ5IjowfSx7IngiOjc4MCwieSI6MH0seyJ4Ijo3ODAsInkiOjc1OH0seyJ4IjowLCJ5Ijo3NTh9XX01vqh1AADMSklEQVR4Xuz9C5wcV3kn/P/6MjeNPJIsteRLOxoQF1sGQ4MnDMRggkOHmO3ALMOirAlO9C4TJmZY3jdeetnJ35/Eb/RJhjhZklm7WWWjxAveJaC8s7jB4CYmOJjQMOAGX+QLlj1Y7YvU1mVmpLn1pf7nnDrVXVXT1d1zk+by+5pC3XWvU9U956nznGrfN0efMUBEtIYY4j+/zw/DWHtfX4FgAKGdl8Ln9+sxy2NubhZnTr6CrRdvR3NLqx5LRES0dMv7F4uIaIXI2MAKD3ziv7UYLMgg5+Idu5Y9WJCam1uwuWMLxk+fQj4/p8cSEREtHQMGIloTfD4ZKKxdwaYm7LjkUgSDQT1m+W1q34z2zRfh9Cs5zExP6bFERERLw4CBiGiFtbS2IrTzEgQCAT1m5WwSAcOWbRdjcvwMzk1O6LFERESLx4CBiGiFyBQkWXm/eMdOs4nkPGlpbcO27SFMT0+p1gamKBER0VIwYCAiWgFt7e3YeellKk3oQpApUNtDu9DU0qyChsnx0yiVSnoqERFR43z3/ejnfEoSEdEy8Pl8Kv2o/aIO1Ql5tSgWCjg7OY7ZmRk0NTerfWsW+9nU1KznICIi8ub7xg+fYsBARLRAfn9ABQj+gB9NwSa0trWrYGE1KxWL6vGreTHMikG+l09s8svBxwZnIiKqzvfU8ycZMBARbUDy9yzM/4n/1HNr+eeAiIjm84k/EvwLQUREREREVbENmoiIiIiIPDFgICIiIiIiT8uaksTsJiIiIiKilScfvHG+LDpgsC8mX1sDERERERGtHCtYkP/aX6+UBQcM1uzyB4Dkq0K+iKmZOeQLBTHOHC/2WM3DAIJolVnBLxMiWqX4t5hozbMHA/KV3+9DUzCAluYgWlua1Hj5iOyVCh4aDhjkbHJQgYL4d/LcLM5Nz4opPrGzAQQDfjEE1DPJ+eVEtDqt5N0HIlqdGvwzT0RrhPxIF0V9PF8oYi5vDq2iLn5ReytaW5t1QGF2U16uv/sNBQxWoCCHc1OzGD87g7bWJmzraEdTU1DPRURERERE55Osp0+cncaZySkRLPiwub1FBQ8B3eKwHEFDzYBBTrKChYKIYk6NT8kGBWzfuhktzWbzBxERERERXXinx8+qLKCWliZs3SyChoBfDIElBw2eAYMVLBSLRczO5VWwIPOkdu3YqucgIiIiIqLVRNbbX8pNqDSli7dsUulJSw0aqgYM9mBhTmw0d2ZKNW3IlgUiIiIiIlq98vmCCBrGVReCjvYWFTAsJWio+sNtVrAgO1OcnJhGW0uQwQIRERER0Rog+xhfGtqCqek5nJ2aUd0LZN2+SjtBQ+YFDHJFJTEUCgWMn51G0O9jGhIRERER0Roig4Yd2zZjciqvMoasBxgtJmhwBAxWy0Ihn1dNGbP5Ei4JMVggIiIiIlpr2je1YlNLEBPnZlVjwLIFDFbQMH5uDhe1NZWf40pERERERGvLjos7MJcvYTZfUHX8xQQN5WhALihXIKMP2bu6VDJw8bYOPZWIiIiIiNYaefP/ovZmnJvKL1/AIIeZuaL69eal/8wDERERERFdSBdv7UChaDYMLCZoUAGDXMAKGPJiRflCCW0t/GE2IiIiIqK1Tj5N1e/3qf7JS2thEINcgYw6RACC9vY2cwIREREREa1pAREwyJ9MkHV9q6GgUZWAQSwkF5SDTEUKBgLmBCIiIiIiWtOCAZ8IFkRdXwQLVtDQaEvDvJQkuSKfb2HNFEREREREtHoFAn4RLKAcLKg8pQaVAwYZLKh/DR98fnZ3JiIiIiJaL5qaKv2TVWOBqPs3yq8WsAYxwjDEwmxgICIiIiJaP0RdX/2jGwkWotyHQbICByIiIiIiWn/KDQULqPNXAgafj8ECEREREdE6VK2e32jd39HCQERERERE69dCWxekcsDA1gUiIiIiovVtMXV+tjAQEREREZEnBgxEREREROSJAQMREREREXliwEBERERERJ4YMBARERERkScGDERERERE5IkBAxEREREReWLAQEREREREnhgwEBERERGRJwYMRERERETkiQEDERERERF5YsBARERERESe1l7AkEuir7MTnZ19SOb0uHVkNn07uuTxdQ0gmdUjXXLpwzh0OIMJ/X5RMglRhmI7fUmsqWJc5+d/ZcyK092jrqnDR2f1uPMjk5DnSgyJjB5T27Jc20uSQULu73U34/YHPT6A51MujcOHDiNz4QpkdSl//hPiTNFyu/CfPyJarVZVwDCbyyCZuBX7eq4zKxli6LphH/oGDyG9ESqH2SRuHUiie/jLGO5OY+D2JOZVWcQfzMF9t+L2W3swmGKNmdwmkB4SwYH8/PQM4sHshKi070NPqhtffmAYvXta9Hyr0Kq4tiPoHxvDA/3AocEUjuixKyeL5ECXCOb2IZFxB3M5JAf34dbbb0WP2JfaJSLm7TO/M51DF24QZZpIHWUlcLGsmyseQ4Ox8OrHvy1EVMMqCRgmcOTQzbiuqwcDQ4eRzlSqybmjaaTuuR22UeuUqDjcPoDs/oO4I9aN2B0HEc8NYED8NXJUIzr2oLs7BIR7Edsr/iUqyyJ1640YmujHQ2NP4YH9wOf33Y5sbARjI3F0d+jZVqtVcm3LVpEbBo8i+unrsVePWynZ5BBuT4YRP3g3+iMimDtyCDeWK6Ed2NPdjRDC6I3tFf82JrSnW5SjHPaIZXI4mj6Mob4bcPPtaQYNq8XEESQPDeLmW+sFgucR/7YQUS2lUsnI5/PGuakp4+SpU8axF14yxrInjPNnxnj4rg8au3fvFsO1xkf++KvGD545IcbqqSeeMX7w1T82vvS4HnHiXuPjat6PG/eez91cbx6+yyzzj99rrKli5PlfUx6+S54rMdz1sB5DlhnxGfzg7g8af/aDcT1GOGZe35+8f6EX9wnj3o+bZf1xxwdj3Hjmq580rlWfmd8w/tb6Hl2ryp//u4zzdkVZ35XLuc21+v1LRGva6TMTxnPHjhsvv/yyMT4+bszOzhrFYlFPre2CtzDMpofQNyRvp4UQGx7Bl2/rRfeeEKzEiZbQHnT33oabVvpWHxHRedQS6cfI2Aji3S2YmJgQQxYP3nMIKUTUd+Dy6MCe3v3oVa+PIJNlqgkRES3cBQ4YckgdOqSaZEM33YEDsbA5umGzOJq8HTff0KVySa/ruRX3HKnW6J5D+p5B9JX7Rnjn9To6aebSOHRrD66T77tuwEAiPb9PQRW5ZJ+5jr4kshNHkbz9ZtzQJdd7HW4ePIwj1fqdim3dM9iHnuv09sX29t2aQOrovD00O2WKobHcWVFGqQRutY5dduZMHnWmOVlqdIS2yqXP1tN48cdZma/n1kPIiIqSlX+9sHxg89gG9PnvusE8NneJTWQfVGW7T89nlq3crp5BW45zb1/H7NEkbr/5BtWJXe1bSq9hIuNY9823J+Hoi1yjY2e5zKsU1MTRFBK37tNlK4bretA3eM/8/j/l9fchmZ1wfoZuHsThqifOg/u6Fdu8VZRV1WrpvONOucrU49qe17dJXDd9tyPZaAfuKvvYN+jetswSOYzb+/T+ye+Im+U2qn2fVMgbHuohBZ23I+3enXI534zD9o2596fz9bjmmmvEID43yQ7sPziMm/aYszquycWandWf9xD2hp2ByEKOOZe+B4Plec3v24Tr4lrsNZhO3KzW25Wo9BqZyIjt6c+P+gweymCiximfFZ/zQ7Zty/075N5wA9tdHPG3TPZFkesafNDxHTTx4KB5DDcOITOrr/GeIXNiakBfP85rfjHHUv9zLOaRfwv26TLVfwcPlb8Ia/1tOb9/Q4lo9bmwAcPEEaRT5sve3uux0BTr9OfFF+rtD2I2tAfyhlw2cxiDNw44/zjLL+ieLuwTf7RS4vsrInN7Iy2VvF7x5V61cpM5hIEb9+HQ0RaEIyKQyYkK8dA+8YV3pHplu5qJFIbEH7zbH5xFaI/MJ5Z3EG+dl7c6KyrqPV37MHhPSnxlR1T+caTlKNKHh9AnKpqDD1bdwwbIp+OIMuobwuFMVhyHOPaw7GQpv7iXUAFxa/A4ZaduWaaD9zyIo5D5sqJc07ej5+YhpGrXy6o6clhUIvvuQVa2QokLIHdU/JEVx3az4xxlcI8IkgbFHzaErsdNN0V12Yrt7hMV8moncznOvVjHrftux4OzIYTVKsS+icrWUCqNxM094g9yZd0PHhrAvs+nG193FdnkAG64oQ9Dh9OY6DBz2PeIaz8l/sjvu/FmEUhXW/sEUkMieLN/hh68B7fefCsa6fOYFRWh8nU7K8+nuG5FeR8eysyvFBwVn80behxl+uAhUWkeqnfcsuOv7Nsk5mvZK86fbIEU13VKnKMbBuo/Kat8zYlrMdSL/bftR294Apl7jjquTVV+N5qVpz039WN/bxizD8pt3CzOlfcetnRHsV/VwQ+J7xfnfLl0EurrrfcmRMUhSxMiwJj3WdfTpMhNccStmZdFDg9+fkjsnRDpx/W2ltrGj1l8nsU56No3iHvEl+is6iMREde4+A61dS5b3DUoPyri+h96UF0zOX01qHX1iO09KD63cnt7OpC5vQf7RHBd7atCfofukzdDxJd/x/X70X/T9WjJimBo340Y8HjcXLXtLl4I0fhtiIpXuXs+Lyrr5lj59+eeoXvE+vei/8CnxXdPCzpEuXRbJ11+d8n3YujQzeoLP5ZGPsfyb4GYR/4tEEW6V5zv/psi6BDrTWfrHPuF/BtKRKvHBe3D8PjfGr+hckMXkI9ezmHdbVz7ya8az1idHca/a/zxteb4j3z1mDXS+O5/ubYyry1VePyZrxqfVPNfa/zZD6yV2HKud3/QuOvhygLHvvpxPf6PDdvsVZ2415r3WuOT91r7Irb5gz/Tx/sRo7KL3zX+i96PT371GbHHFlvu8bV/Ztvmw8Zdah27xf7pUV7K5es8FrEjxp990FyHI4e2Rl6tVS72/OgFHac4nvv/wFzHtZ+817DNbcuxbuCYbOd/98f+1njckf5trecPjPvL4x83vnrXD5zHM/OD8rXyx8t87p3rsGY+ZnxV55fL4YPiIK21HyuXoW3dNfK0y2VuLyhxnj+o5v+g8WfftR/pCeO7f6b7B33sq5Uyd3yGbOdCXhe/YY6vfIY8HPuq8TG1jmrX7f2i1E328rDn6j/zpY/p8fYyrXZti2P40r2Oz64qz4+Z89Xbz8f/9jfM7fyX75b7RUnjzzxTuSas8vuNPza+a9vOzMP6Ov4NcZ3pcdVY27j2z35g20blev8D62Js5LPu+i4sl1/9D0a5D8O17/mI8ZGPiOGDv2IuK4Zf+fjfGvavgIUc87Gv6nN17SeNrzq/RI2v3q/nWsI1KNd77zHb2Rm/3/gDNc35vWLMiO190vw+d3w2yuX6ceNL5T8Igu4P4vg+qLVdL+U+DNUG52e0XFb6O9R6/xt/9rDj+iuv0/1du8hjqfs5lutV835ErNccZTphPHPMWmG1z9+F+RtKRCtj7fZhmJ1dwmML96K/vxflp0R2XI+YmaiLdE7f78g9iHvuka+vRzwu5rU1YXTs6RXLy9ttOSTkXTNzdMX+OPZHKguEr+9FTL3KItfo3fDuOOK2NKuO7hhi6m5kGpVdvAfmLop5e/fYWllk7nE/zF1MzLt72YgjDyZU+Yb6nccidgSfju/Xb5ZBA8cpm6aTh+ULeS5isM1dOc4F2YvbxDHstR1WOCb2o1u+OowHy83se9HbL580Y9MSQdQ8mchWO5nLce7VOqyLM4zoTTfp1+K6k3f29Ltw9yLW7ZIR51m2F8nz/Onr7UcawvX9/Wb++oPyTqIaadPtPBfiuoiZJ67yGfJwJHUID4p/Q/uHcce86zY6/+lC8hzbHtO0R5SpvBtb/7jFMdwUc3x2ZXl2x9SJrrufHR16wSNpR1pMh2oJM1nlFxVldb1tOy2RqHlujqRwpPpNamWvOIfqY3o4U/k+m0gjJa/3kCh/vdKGPutIIV01rbJx8sly6bQY9N3/SP8I7ju4H/avgMaP+QhSh9SZxv7hO9Dr/BJFb9Q804u/BoGb7rgDsbD1WZFfFUnxCRZkOdnTVFvE9uJxcdU6WeUaivfjJvtjg8PielYXmdhuldYN93aXQ7g3jtsi4kUqgcOpJBJDouz29uPApyPlfnm1LO5YGvgct7To7R8V14U9jSiEPWHbOXW70H9DiWjVuLABQ0hUpNQL8QWiv9caF0bI/ndJCO8111aWzZopAXuvx17b3x3L3sj15otsbn4zd8j6gtXExuZVgurpcK1DfDmH5R8Tm2zWzMnae/3eyhd+2V5UdnGh37A5HM2YhRrt3jvvj1VLi6vwlqKB40T2KJLy36rnIiQvhQWaf/7luD16uzl7svNsTtR/DuPQodtx67592HfDddincjQ8LMe5d62jo0MfYHe3I8hZ1LodcsjWOM/o2Ivr1cfCFryVdch6hENo3omrRj6q06waR8V1O2+b1ewJ2SrIQjiMRrZkmhDbS+KeQ0MY7BPnr+c6XHdrWk+rzQwixYWSSeDmLjO3+x4ROVSujkr5WTnolaEHZqZ5tbKzEd87+2UtNndIVMbMURPplKr0hvZH0a0LqNHPuuPaXYTo8CjGxsbw1Kh8VKs89B7cnLBX6BZwzDlRwVSnOorr93qd6aVcg6J8XOvNHlXfFNXLSab06JcWq1xz1u+PlIcuDJiTqnx/zt9ufXGMiHKVZVsZ+l3X8V7cdCAuxh3BUN+AqPyLQOs2mYqkJ9exuGNp4HPc0o39B3tFeeaQvPUGXKP6E4igsN6flQv9N5SIVo0LGzDISoOq9B3BYV0BWREdHfP+yKw25TuhK6DF/dfkQlrRc5FDznUHc/bIPbj5ui7c2HcrDiWPYEJEFNGb+nGT/jt33s0LrpbPhTjPK77N3IMY7LkGN+wbwOfvyeCoqHxGY/vRH2uw6tESQf+XH8BDdx8Q5zyscrsH93XhuoH5P4rYLe8O33Zb1aH2Y+nDYll5QYnKWEZ+j00grZoX9qL/+vlh0Up+1u1aQtcjPnwH5J5lhm7HoSqtlI0fs7huGzjVy3k9LLSc9kT3Vz0OOUSXuSWhlpaOMCpFJ14v4nSvxLGEo3fgodERDMdj2APZn6APN14j+1M1EKCugb+hRLSyLvBTkiK4Xt4CE47cPtjYF9dCWC0Y6XTVOylHj+jbgWHX3c/zKBQ2W0XSImCav4tHUdnFhe5hR/muffrIUfOFTfZojTu0qayrMiXe6/1YNFGRUFW8auditnKcjZuQGW1OYj0ZdVghRGTPP1lxu2cQss94dPghPDTyZRw8EMf+/Tchpp9Cs7pl5I07h+wRfZuxLISwPpZq51mWiflgge4qLTKLVbm2kg9WSUVYRkeSQxBxAvb2j+ChB76ML99xmzh/+0XlfyGfhw6Er78JB+5+CGMPHVSPaM4lB5B4UF6IlfJDd0ytu9ogYo2aZLqF/CQfOSyv74zMvgGu3w+dsaOEV+yzXkO4F3GVI5PB0O336JSpBRxzh5hXzZjEg57fz8t7DYZCOt2sSjnNHj2iUp/srO/Qo+Lfm6ochxx67flYKyqLw4MDSMlg8TbZ0iDKffBQ9SfGVbHixxKKINY/jAdGH8F9t6lQUuyfdV1UsQb+hhLR+XGBAwZREbjpNsRVzCC+uHpuQN+hB3E0V/l2nZVPU7lHPi5Vj1gIW97n4KDzjuLE0cP4/Odl7XIv4rHG8ktXQlj8wTZ3cRCDjidgTODo4c/D3MU4Yo22aZeJCnq3fvp6IoHD9kdQZpMYkrm1bmErReyQqAhW/jpMPHgICXc9daH2dqNXVZ4OI5GwP1VDVOo/P4TEvFSFetLiGOzndAKZQ3o9e/v102BmMaHXGxIVnzJx/IdqpSRdaOKPtNnylsJh+XQnbfboPaLs9BubvdG4CsbMoNv+V10+IefzuEe+jN5Ut9LbuBZEYuY2c4mhyuNiFXndprwrIAs0O2uuqSPcUfmMTqRxz6HGUpKyIoJ0XFrhvZAP55ImdMS59/p+UeUVV9SQfIKMq1aUexBDjXz5hK5Hr/y4iYDuwXtSqsyvj3U7UmpCK/ZZr23vTSJIlgeYuR1D+hFyDR9zi6hgxtWZRmLodnkvoWLiqLg+zfmW8xqUqaXq43s4gUTati75WN6hhPN8CuFIVLWiiIn4vPuJcnIfD52/X1M+cmgAt4qv1tD+2/BpUbmPy4LPDGHwkMeTgTIZxyOVV+xYJkSg5TjPHdgbUaUsTlHVPTOtgb+hRHR+XPCAQaUM3P1l9Ms8Y/F1lFLP8n99OXfz9fJ57YOHaz5/21sIsdsOolf8kZJ3FK+Tz2+XOew91+GaG25FMhfC9bfdYeucegGEYrjNyi0duE49t3yf2Mee667BDbcmkRMVkdvu2N9wDqxdR3Q/DshyzSVx6w3X4QZ57PIZ3Ncdwl7xx2we9dhReR5yOHTzDeb8sqyGWnC91Wd30faiN36TqkDJx/t1ifMqj/OGrmswkI2i34xUFmAvwtnbcZ1ejyyvHvUDgBHED9xkVjjknWX9R/EecTzq3O/rwXUDOUSWfDwrqdLy9uDgDbiuxzxv193wIPZUKaiWiDjPcdmxWwbd16DrBjm/LNsulbsuD/bu22Kqgrhc7Nu8p8993Xr8zscilO/KD4rjUedP/HvjPegwk+LryqX3mdda3yCGbpe/5bDPzAUP34Re9Z0jjqW7H8P7RXmrz8k1urzFIJ8533UzEg19+XSgOyYvqjSSSXkd9uIm9+NRV/CzXlNLN/pvM8vrwVtvV4+ibfyYRXC4/4DuB3IP+q6Tvwkg5xWfo2tuwK26trus1+DeXsRvUt8USOyz9k1urw9HRGAy78yHe0W5Xa+2nbi5q7xt9V0n93HeD2Qs1hB6HP0K9GA9ovrIIQzeLl9HcVt/tyi5FnT3m49azQwN4pC9mcG6OZM7hH03yOugB4fkoit1LLNHkdDn+dbbzb5AN/TJuw8hdH/6ev19Wc0a+BtKROfFhQ8YpI5uxL/8AB44eJv4Ixux3ZULI9Ldi/13fBm9Zv1p4USF4477HsDBuH5+u3p6iPj71RvH8Mh9uHt/g502V5DMLb3vgYOI95rPLZdPOJHPaO+ND2Pkvruxf8Gd8yx7cZMIxg7KnNWQ7Kh6FLkWUSl54G4doLl1iC//L4uKxPWV+cP7MfJl8UfaVfdZjI7rD+C+ETOXXHWmzM4i0v9l3DdsPmVmYcLYPzyizp98KkwmG8Ke6/djWB5b+Y+XqOz0H8Td6viz4tyL4xGVtuG7+8t3mVervfvvxshtveoZ/fIueVadt2FxLegZHORxinL8sihb8flp0U/JmegQAeCBu1X+/vK1Llic2wxn5XV7FBMyBeZglackLVIoJj4bd8g70/J6lOWwF5+++w7dWlVfOBJXT/bJpu5B4tBhHJ0Ii8/VQTxwnyiTcg6FqOzfdrf4/hHzdu/BrChvWX5Z+fmR5XdTY18+8ulgMgw/cuQIsL/X8fQhy8p91msLxT5tPr0HKdz+efnDYgs4ZtUP5D58WQTiUXFByusxfXRCPRHoYDnnajmvQfE9dOA+jIjtyWXU9T+7B/vFPgzLmmsVe3rvnrfto7IyK8v1wPIGy1XNHkFi8HZxLsXflts+rZ8SJ4jvm09bKWH21CQZPN69H9fL1En52cl2yG4CyoocS8ceRG+KIqxaKRK4J5VFhwjiDsjzKnP0alkDf0OJaOX55O8wFItFzOXzmJmZwdT0LIpGALsvX/GvWCJN/LHtuhFDOSA+Mqae7EJEREREy+fM+CTOTE6jrclAW1sbWltbEQwG4ffXbz9YHS0M58vsERza14WufY13QjvfJh4cxHWdXdjnlfO6Hh1J61/sjWHPst8Jt8mlcOt1neL834MqXTOJiIiIqIqNFTDQBSV/lCjpftSG7GA5eLvqJBu6qRdVM6WWWUuHrQMtEREREdXElCQ6b3LJPnTJHqfhCLrls8Rns+Vfo1WdIodXIteeiIiIiJiSRGtCR/d+HLhJ/vKtCBRUx7lZ7OmO4qYDX8boCIMFIiIiotWILQxEREREROscWxiIiIiIiGhFMGAgIiIiIiJPDBiIiIiIiMgTAwYiIiIiIvLEgIGIiIiIiDwxYCAiIiIiIk8MGIiIiIiIyJP/O6/oV0RERERERC7+X/vNA/jpjH5nKU3rF0REREREtJH5kf7/4bZ/GNNvpSmcPX5MvyYiIiIioo3M//0jL+IrN3Xqt8Iv/hknThf0GyIiIiIi2sj8b7/yErQG9Tvh5z/5OtwZSkREREREtDG5npL0PLJPntGviYiIiIhoo3MFDCdw5lH9koiIiIiINjz+DgMREREREXlyBQw7sbNLvyQiIiIiog3PFTD8EnZ2btWvidafXLIPnZ2dSGT0CCIiIiKqyf//pZ/Ay2f1O6Hz9b8K20OTiNaVUOwgxkbiGEozYiBaDDPo7kMyp0cQEdG65+99x9W44rf+DtZPtzVdHcUlW85PyJDs61R3e6sN6/EOsPpD25fESvydzSREua3Qui1qG+Vzk0FiGU6SWflIiLUtVE5dP30N1VrMedV2ckn09Qwh3h3R09YifTxVzveiKnOZxIpfOytCnktxPTZ2DawE8RlYtu2b66r+kdLne6GfN3leF/XZqk0G3aPD4vs7vbTjXsnvQyIiWl5+4O24/Y9+C5WfbtuKjksu169XVuzgGMbG5DCK4SgQH7Hej6F/LdfnLoBIvyi3/iy6VizSyiCNEXWuwipw6AGWWukWFZqubL9YZz/qrUlVLhZ5bJlEF7KyfEaAnsNhHFzj11cmMQgcqH6+VQvK2EHEQnrEWrKgwEVUsFUxiHOZ7bpANxgi6D8v2w+p78rRcOICBkc28nM7IL6/u9fiRUZERIvhH7z/G/jsW1v1Wy3Qrl/QmhIRle/e8ArdsROVI1XLNisvyxHU5cK9otK70jX3HMK9el9l+XTLquZaJo9HBwQrer5XOXESuw/GxNUoi2EMveELVwrna/syGDwgrt8LTl53azUoJSKiRfH/v+9dnZ2crebqjEqxqDT7W2kx5uBMvSg3caumeD3PvDuWVnqKOfQlM+p91TuEKuXB2aQ/L/XHPY9Ok6isv0pFwr5/dVIGGjom+7SuLgxa21Tj3es3j9/rjqjanrUuV/k6y75+qoNzXc5tymldYl+tad53Ts397RpIAUM9Vee179e89eTSGOyyTc+Gq7dm6PNm38d559px3uzzmvtoXUvmdF12tc6bg7WOXO3jQRaHbcfT2XVYjLGpes5dHMfhnrdaaozrmrG24bjW52/Tcb2IheV7r/Os5u0ZAlID6NLzzy9X+/WYRk952504nLVqr42Wo411PPZysW3fGucsE+fxdXUNLuK7qBrvbarPzGBar2MBx1nnPLlV/9w2cF0I9n1pODWu1vXo+j51tDI2eB0SEdEyKJVKRj6fN85NTRknT50yjr3wkjGWPWGcXyeMez++27jrYf1WOHHvx43du3cbH7/Xvi8PG3fZZlLzfPxesbTtvVhmd3keMb9jHeZ2KtMry9i3XeHeL7387rvEmrWH76rsw4l7jY/v/rhR2WVz+9by8/fPGmdbn0v9Y5K7YFvesQ/O7Stqusf25LE4ju3e8rE8fFeV/baVvdu84xLbvVe/UetyLDv/mNzU+pwHos+F7fjU/tvKv875cHMck7uc3GXjWLe1L5VtqWMU26ocZ71jbPR4nPs/r5zd++nmXqfeL/d+OsvI9TlQ67Avo/fdttC8c6yXqXWO1Tz2Zaz1OvZXcB9j1XNRoxzdrOOxFtDlbF/HvHKW5WQ7Xse1Y723r1OXq/fx6/Ng20/3Np3baOA4reOqcZ7c5h2nKAvzc9vAdSHnsc3gLhO3+WU0f/sn7r3Ldt5c+7CI4yMi2shOn5kwnjt23Hj55ZeN8fFxY3Z21igWi3pqbas8YLD/ga5C/WF3/UF1LaPGWStWf2Dc65y/bTtHRVlu7+N3GXfZ5pfTrUqA/bXFvv3qx1TtD3FF3WOax3k8jv0Xai4ry6faH3hXOZvkfntVwmpMU+uqMs1r29r8/a5WOTDHNXo+5quUnXPZ6tdIZR7ndpUqx9nItqsdjzXKfS5Nrn2reo1bquyn5Cj7atdjtW24zqF9HR7nuNr5cJh3DdQvE4v7XDSyTFmVMptf1rWud8H1GVHnekGfW7PcneXjPBdq+XL5NHCcXufJ8/qodYwNXBduVb83KqqVUfXtVDiuIa/jq/E9QkS0kS0lYFjdv/QcDSOsX5bZm5+7BpDSo8uqLZPJqmb8XDZTfXoNke54Zfl0Eoj1ojcWFaPUGGQzUd35T76WGRWVNBs5qFQavbwyb/vifVS/9FLjmEz2NIYuyE1a1P4PpXUzfQaHB4DhXo9+A5FuxHVKiCP1IJsV5TzkSAGRnZ6HxFgxab5MWkyLIFwtx1mtq8q0cBjRVNaZXtOAqFiuugbPh0MIsf44hno60ZMZxoFykrbYL5URZT9+MY/MoKlaABaPMqih2vFUrrVq00MIi9NpzlOPeRyRhe5UVVWOzTp/Xud4kZzH3Ni58C7HxnlfW9oSvou8LPTc1D/OBZyHWp/bRtUrE7cGvg/taU7yPDvVuA6JiGjZrO6AwUXl1nYlERs1O92OjQ6jXl17nkhYdZRsmKpEJ5HO5aDiBREchEQNLZVMI5dLI5ly/sGKDo+a+2YfdOfMFaH+QHchGbO2az5xqizSK95noOoQskIQjcH74SbmU19kuWZUhcyeDxzHiP2Y9ODZZ7lWYFZr2jJb8PkQFTCva8r+FK/ysOKdtp2WXtmPykNceSt8ji/0uViW76LVaAnnbfnLxOw30aOezmaucySuJxER0Xm1hgIGWWFPiYrC4p/OISv6lbvtFvOOpTd5x0veSZd3rXRlWwUR4r28kxrvFtVsybzTW/uOczVy+4uvxMlWj1R8BAc9CyWE7pj5zPRMegjRWHf94CUUU48eHYkPISF7LapKtA46GiHnV0GWfm/nNU2W5bJWMhdzPnJIDg4gMiKCLgzgcPlCkdeA+87t+WYez/wfnDNbHhoLJMxr2f38fNXyVmYeq1O9z4hL1XNs7ufSrYZzsfTvolWp1ue27nWxXGVi+z5UNziGMXqeg3IiIppvDQUM7gqTWblbSD1GVfShK8FaJiFTa2qRFe4ohnrEfOXWiQi6RWW6x/UDYJHeYUSHepzpPJmE831qoPIUI0FtP96/bEFQLjnoSEmSQipiGERiyEqfqi6XTNieamKr4IkAoj+ewsCg/SkvovwTHk99qTZ/LomkXF/VdWWQkGXZX6clpk46h1tD58NGlZ0IFXojVmqS1cJivk8NuJ+EYy+vlVfteCr7rEfUZF7LqYHDlaBZnJdBxwWjP2e2c1v/M+IS6kZMBCYDlYjL3M9GPqx100lWw7lYhu+i1ajW57budbHIMqn1fegOYMRnd35KEhERnQ9rKiUp0j+CuH60ZmfnINC/0CZvmXIzgogtrz3d7UrhqUJWuOUs9uAgrG63xZ2/XSbvzI+YOfDW+jsTYWdlLjqMfgyWp8tc+SXdQYv0q5YAq3/BoFj7vOORFTjxpztVJzAJhYGB8iM7zTQnq+Ui0m/edVePvNTTs6JcvFYnn00/ErHN35WUNymrT5M/AjdS+3cdQrH+cv+Kmo/ItGvkfFhEZUT+GNXwAX1MVrlaj8IU7+Wv21bKpxNdWVGuNcpz2cnjKaeL6X1IxjC6gJQ381d6M5X+KPLHz1x5HupzZj3eVAyNfEac5G91iGUy1mdVXpcH6qeTqPQ5fS17RXXSKjgXS/8uWp1qf25rXxeLKpNa34fiej9gP8/pbqYkERFdID75lKRisYi5fB4zMzOYmp5F0Qhg9+XnsyZ0Ick82QTCo+v5h4hySPaZv3bM1n26MHgNEhERXUhnxidxZnIabU0G2tra0NraimAwCL+/fvvBmmphWAmqCbxmR+C1z0wHcbWG0BomK98LaGlZBXgN0uKZ13vNViciIlpRG6yFQbYmuPKx4yPn/Uk35438JVSV9CufcNSvO2cTrTSzNcHRZ0F2Xl3Jp4URERFRTUtpYWBKEhERERHROseUJCIiIiIiWhEMGIiIiIiIyBMDBiIiIiIi8sSAgYiIiIiIPDFgICIiIiIiTwwYiIiIiIjIEwMGIiIiIiLyxICBiIiIiIg8MWAgIiIiIiJPDBiIiIiIiMgTAwYiIiIiIvLEgIGIiIiIiDwxYCAiIiIiIk8MGIiIiIiIyBMDBiIiIiIi8sSAgYiIiIiIPDFgICIiIiIiTwwYiIiIiIjIEwMGIiIiIiLyxICBiIiIiIg8MWAgIiIiIiJPDBiIiIiIiMgTAwYiIiIiIvLEgIGIiIiIiDwxYCAiIiIiIk8MGIiIaN05/o1P433vex8+/Y3jegwRES0WA4Z1Zxz/7dbjuPzWE/jaCT2KiOg8e+Sv36cq7O/760f0mPNr1/s/j2997kY8+e0fgyEDEdHS+EqlklEsFjGXz2NmZgZT07MoGgHsvjykZ6GVcw5fGzqL38/pt1V89nd24d+dOIHIfQYQakImfjF26mnezPV+rWszDr2nXY9bChmEzOBPxatfv3Eh66wsJ4/jk28wxy7GT/7uOH7zcfHi6la88LtbzJHL5MR3dPnCh7s+sxMfqF/AnirrslH7jGUrC6IL6zi+8embMfykfqvd+Llv4VPX6DeWR/4a7zu0B3d//v3YpUetJBmkfOY++epGfO7uPTh08zAwcDc+//7zsXVavapfs3ZVr98qZMvVzWpF4hr71qfQwCIrZrn3pby+Kweqf2bl51l9wK4UH6vPo/GP1SP46/d9BnLJRsuZVsaZ8UmcmZxGW5OBtrY2tLa2IhgMwu+v337AFoZ16Cd/J4MQHz7whjoV+8deweWyNeLvxvUIL1vwyTt2IXOjD/ffdxb/7TE9ej0QZRAR32J3fWYX7r3awO9/7hX8RE9SGi4js2VnXrBAtJ7ICsP7ale8yqzKxauvqFQ81PJ/LaoPy09Wdj5zn6w43Y2BK+/DZ0R0/tlvfYvBAi0r1XL1rc+JKrq4xj79jQvaenXe9+WaT4ntyc/Xkxi+eWU+x7R6+Xt6evChD30I+/btw8c+9jH8xV/8BY4dO6Yn08pqxwfiu/CCqIy/cEcrPqvHyjvQ5rjF3Yl+6+/KZevfKf/JaFG/aszO9+xU+/R2UTleL36CpnJZmeXWJIIEPVForIxki47ZeiDZz5/9vBKtace/gU+bt+8FWTH/lqg86OFzN+rxNqpyIabZbiceP/YscOWelWltuPazYnvyLusuvP/zYrufvVZPINLXhLpeZQXbJO92W9fwwu56X4NPyeU+ewWOX/B8t/O9L1ZZvls2HNAG4stmsyolKV8oYHZ2FsUSsGnzVuzZfamehc4P7/SdcpqLTEl6fwmRv9eVWHeK0olT2P+5PO7Xb71TmKqnQqnt7rTW4cNdvxPE1/5evJYpNe8vVsartB37/m7GFd+orK+y/43MU50jtUccx1078/h9W0pStRQlx7iuPC5X5WRPM6ocdzm1yrPMapSRe79t6/A+roWWVyvw9+K17RzOS3dynV/78Wd2z5bnNY+1UF73/NQr97EuPTWL1p+G0h/KKQu2ecrjTFZKQiV9yFInzcG1Hvd+zFvfjZ9zBCtEphrpMTIovnkYlQY01zU57xqU2TuVlLfyNSiuvbv3HNKfF/O917XoSAPafxQ3W+tXy+xypFI59vd87ostRWle2lK5zGRZ7cfRm82yFTPYys5e5ndjzyGPY6IVx5SkjSKXrwQLknj/n79zznztrvhKcv6hU1hc32cDvy+DBf2ulj/9e2fF+k//3pXWIzQyT5lKE7JVjMVxqGBhId7QpO/sG/jaY1YZzeJrah8CuKVasCAtosxOPFbQ6wjg7TWCIEtj5WVV7k0yGHCUiST39dYq5fj4jGNemUZ2eTlYkMS5/TvrGKsFRjI16wQ7zZPNcfz429Zf+HdXDxbqMlslzMrBccjGBqcaaQ5VKkcVMj/dHXwI930G77vAKSO0hshrzBEsSPKafB+sfvuqhczlyeGby9PLxLVXrqBL4n3dvv9PDlcq6JK8fl3pf/d9pvL5OK/7It7/ad2njcmysoIFSbz/0/mfv/s+431MtLoxYFhT5J1fmeayGXfpPun3/6Kg/v3JN3TFV95dt6fC5Ar4wbyKn5kKde/V+q1eZt6dcWtd9ToZW/P9TkCPKCHr3mYj8yiiAvsNHRS5j2VBtuDf3ehTr+4fnVWV43LF/uomvFX8U7vMGiwj4dgvdOU85McV5qvaGikL2Xog55EtCCKwuVMHTLI1Qi37mSb8uhpTxJ1W0FgWwL2OeQS9TdkPRcmVoBIPH5vWwYJeRgzmMdsCLSLxZ/+o/iN/5R7rdutS2FNE5GClidyH71apPZQrR/KuZnkZqwXjH3QFRN7R1NOsFClR0fkH1kaoLhF0HtJVXXkHXl1fMlffHHXfIbPia/YZsK6/b8G6zO6bd9FaKXuV9Kdnj9WrcFvXb2WZ8vVeTvl7FtZqzs++VMrgyaP1lpG7e7fal7srC80P2K3yrXJMtLoxYFhLQkG8XaWJtCPsSBc5V6lwPj5jdtIt31E2cKxqxbweEZy8v7GnEX22S89nu6vv3mZ5np3+SiW2qgKO6bvd5WVslf+F2PmGoLktFQCcww9GzYq9ud7lK7Mrdrsq4XU0Uhaffb8tlexEyQxsRBDx76yAZefFuEUHM1bQWKYDIuwM4C1qRGWbO8U27U6IdZuK+E1VBjqtSZi3XtrAdmHPAioOjZCpDeqxq2qw35mcb9cVrzZfyDufav4qd1pv3F9JHbnmI+WKTv3KEZEVEIuK8kes9jMR1O7XlVqr4ivTb8rXbJVWLUu5Fe4avLu8ijrX4ZXvxbXq+q181q5877UqDQi79og9czlP+2J99Oq7Eu81F8Kua9+r93d+MHDju3X5VjsmWtUYMKwLlUq2zFdXd6BtQ/Wc+lXqRBEPqxc+XGELisp38ReiXKk28LVvTJvpSOVK9/KVWaUSXsQPVuAJUpVK/fKrtI7oFg37sMyPr6W1zFZxuO+7S08heOSvy2kS5l1J213ValQHavs89+Ez7/s0ZJbEcavpg2ixjh8TVdt6HsFfWylL+s5/+Sb5ebea9oU2CgYM60IQV1gpSvdN23Lax/Hf6j4OdJUp3xU38PvfsPZ9HD9w9WEo39V/PK+Pd/480lvfb6bl3P94Ud2l//WuFn3nfhnLrNyyIvseHHc+dlb2k1jiOai0lOTxFWvd9jSlckvMwlVaR2zrFn7ydzX6mNCGdI11e1JV1p15x7K1QOVFl+8aVlKLHvnu/FuflVaBz5mdNBuqsOmnwZQDhychb5SW9+u+QyqAUGxpStZdTyJPu67Fe9WF+ySGyzls9jSld+Oa8jV6Iz6nOgBX64dznqymfaENgwHDutCOD7zfyoevpJY4O7rOV6l0myk5q+P3Fbbg7Va/gXmpQhX2u/rm8Xoc684WfKD8G4T236ZorMwaK6Mt+GS5P4IZNJjrEoO7U/Vi2NKPyuu21mtPU1qEne9pcQQ71n5baUlEZdd8ynYXUwYNlXSIcqfKXVeg3BDxmTqpEpLq2Cnmm9fZ1Kl6+tKVUN0pyulHZgdVNY+1UXuaEpEnW/qRdU2WOxzb05Qk69p3dt69MFbTvtB6x4BhvXjDDmcnV6V2P4Sd72kvd55eTeTvIZQ7G0tXtzrfS+J47eNkWtG8eRRbf49yHxCtgTJruIzkumyd0e2W0gJgmVcmkuzIXPWxuQshf5Rv/n7/+o1tZj8IIptrPvUtfOvugSq5xzfCTE2+Bp+y50bIdIkquRK73v/Zch8DVSG7u05K0jxyGeuRjbIDdaVzpkWlOvF5jdQomfY271qVHYb1dbbr/fis7SKT19cFSwNaTftCGwZ/h4HWOftvG6yx/hxEREREy4S/w0DkJvsOqPQanWJUM3VHBhVyXubtExEREbkxYKD1Tz4BaMmpO0REREQbE1OSiIiIiIjWOaYkERERERHRimDAQEREREREnhgwEBERERGRJwYMRERERETkyRYwTOLZb34Zj5/Rb4mIiIiIaMMrBwy5r38WH4z/CFP6PREREREREVOSiIiIiIjIEwMGIiIiIiLyJAKGE/ja7+/GO/7v+8Xbf8Lf/Zffx9NPnzKnEhERERHRhubLZo8aL2d+hB+mhvGpBPDHh/4TfvPaCN541W49y8q5/Nbj+hUR0er1wh279CsiIqK1aSm/9CwChqxRLBbx4v/5BK77AwMHv/uXuD68FXt2X6pnWTkMGIhoLfhu/4x+RUREtDJeu2dlb9av2YBh4uycfkVEREREtDEFAj60tzXpdytjzQYMJ8/wrh0RERERbWxNQT86NjfrdytjKQFD/TmIiIiIiGjD8p/QL4iIiIiIiNz8O/ULIiIiIiIit/kpSUX9LxERERERbXjlgKFjW1j8/z/huw+NYmqKTy8iIiIiIiJbwNDyKzfhrt95Jybv/ztksyf1WCIiIiIi2sjKj1XNFwqYnZ1FsQRs2szHqhIRERERnQ98rCoREREREa1ZDBiIiIiIiMgTAwYiIiIiIvLEgIGIiIiIiDwxYCAiIiIiIk8MGIiIiIiIyBMDBiIiIiIi8sSAgYiIiIiIPDFgICIiIiIiTwwYiIiIiIjIEwMGIiIiIiLy5Mtms0axWES+UMDs7CyKJWDT5q3Ys/tSPcvKOXlmRr9aWS0tATQHAwgGfPD7fXosEREtVqlkoCD+YMzlS5idK+qxFdu3tmJ8fFy/Wx4Fo0W/WnnThQBmSz5xfD6IQxV/Lc3xRLTOic+7rCo2Nxlo8RtoC87/flsJTUE/OjY363cr48z4JM5MTqNNHFtbWxtaW1sRDAZF3bh++8G6Dhham4Noaw0wSCAiWkEyeJiaEX9DbIHDWg0YJmcDmJwLwMc/G0QkGCKAuKi5iItaVjZwWO0Bw7pNSWpva0L7JlkI/NYnIlpJ8nt28ybxnSu+d9eqkvhzePxsE87mGSwQUYX8PpDfC/L7QX5PbFTr78jFiW1vC6K1JaBHEBHR+SC/d9di0DCVD+Lls0FRGWCkQETVye8H+T0hvy82onUXMLQ2yWBhY55MIqILTQYNLc1r64bN2Tk/QwUiqkt+T8jvi41o3R217LNAREQXzqbWtXPTZnwmgKLs1ExE1AD5fSG/NzaadRUwyLta7LNARHRhraXvYfk0JCKihdiI3xu+D3zgA4YgnyKFUqmE177uSnzow7+F67rfYs6xgpb7KUkXtTehuYlf/kREq8Fqf0pSseTHiSmmsBLRwu3cVEDAX9Lvlm7VP1ZVBAnqsapz+TxmZmYwNT2LohHA7stDepaVs9wBw7aOFrYwEBGtEqs9YJiYDeJcfmPmIxPR0rQ3ldDRUtDvlo6PVT2PGCwQEVGj5or8m0FEi7PRvj94a4WIiDakQokBAxEtzkb7/mDAQEREG5LPx8cjEdHibLTvDwYMRERERETkiQEDERERERF5YsBARERERESeGDC4qN+kMOTzuQ089so0/vjHJ9H33ZfwXzMncWqqiFdmx/FXRw7jd74/hP+c+Rs8cvpZzBXzejnmwxIRERHR+sKAYR6z13teDD+Ya8aRTVvwzPadeGLzNjw1Azw+/jIeK8zgKcOHx+Zm8b1Tv8B0qQCfz6cGIiIiIqL1hAGDZrUsyHjBbCfwoSRGFErAjHg96fPjVN7A8ZlxTBSmVZAwOTeDF2bHUURJLKP/Y0sDEREREa0jDBjKKq0DsqEgKIY3tPtw9SYDr28zsLvVQHsAKBolFUj4SiIoEP+WSiJYYHxAREREROsUAwatCANzouI/K1sUigYK4vVbOwLYf0kAn95l4KNbi9i7GRCTUSzKIEG2JFSCjKJ4P1cqinUU1evlkEl0orPTNiQyekoOyb5O9CVz+v3i5ZJ96OxLijUuJ3P/yru7UJmEON4EFru4k7kvXutTx7/oHV1jVLnWuW70POe9SOR2l/06rCOXRJ/989XZh4V8pJbjs6PWscDtEhERnW8MGLTHJ/P4h1wJf/VCCf81K4eiGv7XSQMPTRh4adbARU1iRtmwYC4Cv78SMPz0zPP4Xy/8CF988Ud4bPJFPXaxzEpuD0YwNjamh1EMI3t+K1TryhB6NkpgUEdq4LBHMCauu8SQft2oJQaHi7TkQE8GKF1JxEatz5cYRiLIZvX0FZFBwhUchGIHxbYPIhbSI4iIiFYhBgzaF45NIPlKAf9yuoCHzhTwPfmvGL5/qoB/PuvDAzMBPHlWBgsGAiJQ8Pv9qvBkR+fc7ATue+lRjLyQwddf+hkOPvt9c6WLlUsjmYpiuDeiR0ghxPpj4v9pMeLDw4gO9Zz/O+erTTSOeHQI6WrloK+7aFS/X8cyaREYxfudFfVIP/rtHzkiIiJSGDBoz00XcDzvw+miXw2nxHBS/lvw48U5nxj8mMwD25rb0BIMwt8cQEtrM7Y1tWJibgrP50/jmBhemjmDsXMn9VoXKRRGBKkF3e10pi9VSXFwp1941JzNFImVvGMs77K611/nLvW8VBorzUgPjaSFhGM4MBzFUE/9VCdHWYqdku/L21bl6C5f251jta/ubbiOz3UuHClC1vKOeZYrPUsKozsmyiExv8wyhweAYVGJ1u/LvPZXje/CQAqiXOW0SrnUvR71OTWHKsfn2qY7Ha/L3KiaVt4fxzpd5eoSDouoKFOvxc68VivrrHEe1P7Wuy56MCQ+1wNdtnVVuV6sz2D147A+P87PgPOz49pvzw/W6vDlL3+5PBAR0erEgEF7U0cLXrXJj8s2BXDppiAuaxNDq3wdwBUtfoQDoh4v/t29abuYL4TOi3biVVsuwdWbL0VroBk7Nm3DFZt34tXtu3DNlrBe62JF0Ksqt7UrPRUZpG3pS6PDwMCgrUIoKzNdA4iMWOkXoxiutoui8iJmw/Do2Oq50yr3vWcIcbHvB9XtYFlR6kIyNlo+3pHIALoaqBSFYgcwHB1CokaZyopuT2YYo3rdY91piM03LtKNuKgWOu7gqzv3cXTLMlXnwp4KM4LIQJerwjeEnkHggJouzpXY5+VMpwrH+hFPJZF2FIO4hoaiiHW7Loxa+xuK4aDaP6jzU0mtqXM9ykpyT0ZdZ+Y83Ui7CjmXzjq2GS+3DoUQOyjXqTaqppvXhVhtGhjR2xwzNzo/UNFCqgzEdeMVBKgAoEeuUO+D3GYGPbWChloi/eZxIKqPu198yueT119XMla5/nR5u78HhswLRO+XPRCWn48eZIatz4fHZ30VOXnyZHkgIqLViQGD9qnODuwLGYhtK+I3Ly7ig1sL6BFDTLzet6OEf7e9iKsu8uMNW6/Ah3d24XdD7xDjr8WNl+zF6zZfgvdsuRIfDnXhY+Hr8B9f9x691sVTuc2q0tNV5Q6iWwT9thp+qDuGaCoLq4HCvHM8agsCRKUr5qqulCvmqymfOoOEGcFU9j1zGAMYxgHbTkZ6ZbpRuoGKnDjuAzUqkqIMEqLSPHzAlvolKnojcf26IRF0i/mHbBFDLp1EKt6tKojmuThgK2MdHDoiDPs+yFQ0scK6d8MXQm5TFMNh2z4mExhyp+gIje2vW63rUVRoE0OIutbZ7ypkWaG3T5dlmsnWLoFIv60SHupGLFqrlU5sU1SoR+IiGJN34V2tVPK4UyIgsQfOVsBZ89CXotr1p8smlUw79s9efir4EVe/vXgiYWsNVT7rREREC8SAQbtkchzvfvQxfOh730fvoz/Dv22fxQdDAfT+4hlEMxnsHXtezwlcVRrHr84+h2vHf4L8C99E4KVv4VfOPoIPzj6L6+eOYWdxWs+5ROoO7hjGRIVBpXzUihrUHVGdgiAq2Sk9WlR9INO1KxWIapIY1C0Q9grSPPZtVKlkLS8RLOg7pdYdZCmXFWWg7gzb9kMdr7PC5EmUaX885bzjbRG1y5SooNUsqgZEzIhBBzAZqDq36o+Sg7n7ZhBoDSq9xhEQVNkHWwDo5Eo/afAOuKrEl/cxh3QyhbhqArFrdH+r8LwexXGIN7WvR5M9ramxVh57mo6ZKlVPpF/fhRdhaFc5pcg87mjYfWs+hLAoonqBy6J5XX9iP+w3AKT55WcFRyEz5Ux+X5zvp04REdG6xYBBm7zrKygkvgX/3z6A4NdG0fzCKQS+/TBavvgggnd+E4W7v4P8Uy+iOPEEgrnDaH7xf6Lp5a/AOPZFGNkvovn4V7Dpla+g+eV7MPvE3+i1LhOZzjAq76Inqt4ZVznP9rQROa+eZorKOoc3WbESC9S+ayxYAYw1HFz5TtjuO6tK1JYyVB4abxmJ9I+odBTbDfaKaBhLzuCI9GI4qgOYTBpD0Ri6bfsWLaeL2IZFl6V5p7yyruqpLvOowEmnZ+lWG0cfe5uF7u+Sr0cdBNmfEla3lUcFKPZUNTNVqjFmmtOIDCRtF0UjQc2yW4brz3zykk7VE+XYWFojERGRNwYM2vSDD2PmJ89g6sjzmH7uZZSmZ1H48c8x89NnMf3T55D/2RgKzx5HcToLzD6F4tQTmJ14GsXJZ1AQ/85NPoW8GAoTjyF/fIlPSapGdYSuRt8d9kwlEhWQaApJZ8K6k6jQHjho5omvfOVC7o9+WWbedXYSFeGD+s6vrWUlJG/xet5tb5SZ5iHzvtN6jKLu5Lpz+827zWXVzkMu67qrL+/yQpW5fBpPNNatK9fmHerUQnqzryDZEiIDsqRjH+0Ws7+Lux5Vy5FFBVkiKKzZ3OVkpn2NOFqjFkp1hFbM454fQJvXQtVAoqHroo6q158gWx4WEUio1hOV1uj1GF0iIqLGMGDQAqFtCGzfDGPXFhQvE687NsF/ehKz09MoGEVgLo/iqUn4/G1Ayw41GMEOoGmLGMS/gQ6U/PL1xQi0btdrXSR5t9SVfqRyzF13qk3uyk0OyUF7CoiZA59y5O2LeZLuKoSoROs+EysbNOj9tT2lJ5OQT4+pRt75NQOZcjqWunvv7gScQaJWulY1ej0D9rwVnffuzO0fdKW2mBXeyjzu8jbJlB8xQeWkx2wnzexv4Xq8ayZRp4/KCpFlIAKygaE4+j0q2o3ubyVNp/71KFNmHL8FIa73QXshuyvOYntVU5JsaVEqkLT1Y5l/3pwyiflPNDosFrDSsqodt1qnZ0tMY9eFbM7zjL+qpsuJa1v2LWr4kcquz4IMNvRLIiKixWLAoHV86t+j/QO/gs2970T7h9+F4GUiKPD74JO/vGAYKJVK4nUBaHsTipvfA9/W69Eaehuatnehaccvo3lHF5p3diN4aRStb7hFr3WR5N1KWUnW+dtyUE9O8UgDUSk25fkHgX5XCohMaRqJ6Mc5yqELyWr3K2XKkexgKXPWl6EGaz5q0zbodVopQVY/hHR3rfQRM5CRlTczJ9sWRJTXnUDYK5/Gk1jPAVc5qXWLfclU1j2IA650GL2cvbwPiP3RU8tk8CGqail3R2Jdxo6ySYQ904FWlll5jw73zr87bqm7v6I8VEAq+zmYlfB616NMmTGfOKTXp4rQVoJim6pvunW9prvnpSRVnnKkU25U53TdgVkMg+ivmZIkU6Iqnwc5mE9EKjdqyOMW113Gdty1PoOqHOpeF5Wnn3n1NZGtAlYqUdX9qksELrbr11y8wTQ1IiIiDz5RETaKxSLm8nnMzMxganoWRSOA3Zc3dj9rKU6emdGvlsf2ra361cIZM3OAHHwiRGgOwmcA5267G9P//IjY0Uk0dV6Cpr73oTX2BjFzDkZ+Ggi2I9i2U6/B/AVony8gAg2xH4EWcyStcTn1GNesqMgtIENGWOxyROvH+Pi4fuXtzjvv1K+AW26pfbOlYCzv9+rxc00oGZVf7CciapRfVBR3tef1u6VrCvrRsblZv1sZZ8YncWZyGm1NBtra2tDa2oqg/G0xf/32A7YwaL6WJvi2boZPpiK16hOm/5D4xT/+gAgEAk0onvuZ+CvzD8Dzf4Ni9isoTB6F4d8kzvQ2+Jq3mSlK/pU94XT+mKkt+jcUFmCxyxERERGtNgwYahGBggwZZGuD3+eDTwQNRv4UMPmECNNGYZxKo3jyRyKwmDVnpDVOtgpYqSDmYP6I1gJSOuSPksnlBiJMBSEiIqJ1gQGDRQQE5X/lIPsvhLbA19Yi24mATc3wb9mkWhEMbBJBQkAUXgm+kv7NBZmPJAfJWhetMbIPg34UqDUs9HGn6hd95bIMFoiIiGh9YMDgIjs4i/+DLxiA711vQP41l+Ps5Ttw7rWXIfjG3QhuvQZnmzpx2rcd55ovhxF6NxAw+05Y8QIRERER0XrBTs9ERLQi2OmZiNYrdnomIiIiIiLSGDAQEREREZEnBgxEREREROSJAQMREREREXliwEBERERERJ4YMBARERERkScGDERERERE5IkBAxEREREReWLAQEREREREnnyjo6NGqVRCvlDA3Nwcgk0t2HlJGK/fc4WeZeXwl56JiNYv/tIzEa1Xa/GXnl96+QROjZ/DS8eOorm5WQ2BQKChX3r2nT592igWiypgmJmZwVy+iKaWdrzqil16lpXDgIGIaP1iwEBE69VaDBhOnjqDM5PTMPLn0NraipaWFgSDwYYCBqYkERERERGRJwYMRERERETkiQEDERERERF5YsBARERERESeGDAQEREREZEnBgxEREREROSJAQMREREREXliwEBERERERJ4YMBARERERkScGDERERERE5IkBAxEREREReWLAQEREREREnhgwEBERERGRJwYMRERERETkiQEDERERERF5YsBARERERESeGDAQEREREZEnBgxEREREROSJAQMREREREXliwFCDYRTE/+VhlObUAD1UXuflTHpu+dKA/I+IiIiIaL1gwGCjKvxymJlG4dkjKD3z9yg9/9cwjv2VGP5avP4rNcjXalx2GKWX/g7G7AsiiMjD5/OJleiVERERERGtAwwYNBkoiOo+jOkpFJ4fw9z37ofxRALG2F+KIOEvYPziL2E8L1/Lf8V7ORz7C+Clu2CcexIoTWO6MIOJuUnkSwVzpUREREREaxwDBq1olMT/FVEcew6zD9yP/P/3v2G88hyM2RPwFXJAXv77CvxiCBTFv8WT8BVPiH9/Dt/U05ibO42jE8/jx7lHcWpmXK918TKJTnR29iEpNu3FnCeBjH6/+uSQ7OtEX62DWCHVyiaX7BPjVnuZEREREa0uDBi0QmEOOPIw/F/7Iprv+wc0F84iEMgj0GzA3yoKSgy+FnMQoQXyJb9YxicCiqJ4PYevjX0fdz75j/jKsRSePvOcudIlS2HgsEfVNpdEYki/XjYZJOoEKWtFpH8MY2P9iOj3IoJA10AEI2Ou8VWZgU6CUQURERER/M888wyOHj2qhueeew7Hjx/H3JyoPG8wuVMzePCnZ5E8HsY3tkWRCn8IJy75XRRC+4HtvwvskMPN4vVNKDZ3QnVX8Pvw0swmfPG5x/GNF36IJ089g4mps5gt5PValyYajyM6lK56NzyXTiIVjSKq31MDomGE9UsiIiKijUTW72dmZjA2NoZnn31W1f1lHNDI4H/rW9+Kt7zlLYhEInjTm96EV73qVWhtbdWr3jhemQrgX6Y78X82XY97RbDwrcs+jOzFN2N2x/8FY6cYdv1fwCX/QQwfh795NyYKAfx0YhP+R3YH7n0xh6MTx3Fu9ixKhdLy9XsOdyMWHUJi3i3/DA4PAMP9Mf3eJpdEn0q7MYd56UCZRHmaHMp30dX4HgzJVo2u5U/bMVOE9FDl1r1jun2/9N1++zQ19CXFFG8q/UjPo173DAGpAXTJZW3bd263D8knZPl1YSAFDPXocXVbXFz7aO2bOhfzl5fblOelkiJlH9ZHCw8RERGtLm1tbWhvb8cb3/hGvPnNb1b1fxkHNDIwJUmbKgVxrG03nt5yNZ4SwzMXXY3x1ggKm7vg39INX8cvi+Ftajjr34lHJzfj/5y4GP/zxa34+WQBs/kifIYMFuSTlvRKlyyMWH8cqWTaWTnOpDEUjaHbfbtcVlC7koiNyrQbOYwgMtDlDAp6oNNyxDA6jEyPrqBG+tX8cUQxrJavl7bTuJTYh3S3tU+jGM702CrtZmW7ByN6urVfVtAQQuygtaw5TbarDB+IiSmNCcUOYmwkDkSHMSrX0W8emay492T0ODmMiABsRwwH5T5GgfiIHH8QsZobkvvfhWRstLyPIxERmMidD8mAL4Vk2n72MkgPRRHrDpn7ZW1bbzM6fKDO9oiIiIjOLwYMWsBnoK00i/b8OTVsLk2hvSWPoF8EAUZRDYD4d24CD5+7GH97vBOHXtyJ8TxEoCB/q0HOZ65rWUV6MYwBVLoyiApqYgjx/vkV5oxqdrBXOCPoFbXQobRcWC83YgsEQjH0x90V2hUQH4GuowsiABBBkNgpswUjcxgDqThGKjOo/TpQ3m87cQyD7mNcJNUHRGz3oK0cI7GFr1fuvzhDB2wLRnpFUKOOL4TuWNQZ8FnBnms7ueTgvPUQERERrQYMGDT5UNWSz4eizy/+1YMonpIYX1SDXw2zwVZ8N38FHslvF0v50OyXbQo+1bJQIR/QulzMSme58pxLIykq2N3zbv/nkBWzyLv59hSXLplbk8nKqciW02wqg8rUyWb1Ompzpw05hhopQtGwqylEvLf6XuTkTlfpWxAKiwNU+11RrVLtncpUm9kHZAF9GlypXuV0J7PQzVQna+gaQEqEC1kxQ6g7hmgqCTMm8wj2xLrNOKjxVhMiIiKi84UBg4384TW/PwCfGvzwGwFRQH4ERPAQlO9lgBBoRbG1FYGONrRf1Kbm94vpcvDp/5b719tCsX7EhxIqdchsRej1TBeKDldSY8qD7S66mWbjGux392swnzzkMdjv1C9UJFx/WY9KtXufGjwUUyPbtYRkqpJtW/bjtVKdHINOZdKtOComqxrsLWOrCRERrW0nk/iT616Nf/OlBu9+EZ0nDBg0+cNts/k5TM/NYGZuFlOzU3hx6kUcnfgFnjrznBjG1L9Pnn4WE4VJNLc1YfO2dmzZ1oH2lk0IBAOqYUGGC+oXn5dVBN0qdShZzn+fLwR5U967tSCMcFTetLffs79AxD5ad/dVS0KVJ0GpO/flCv3yV6q9trtQaj2pLGq10US646qFSLVqxLsdwR5TkYiI1pYnvyQq9Ncl8KR+v6y2x/CHD/0jbv5CemXWv2Jy+JfPinL5bBKn9RhaXxgwaIVCAWenp3Dm7KQYxnH67Bn86EQGD7z4r0gdewj3iyGV/b7698WzJ2D4DbS2t2Lr9i3o3H45trdtRUtziyhRH0or0JlB5sVjYABD8X7PSrOZO9/jTMvJJCqdh2UH6oFBx1N4ckmz5aJC3w1fRs5tZpDosaXlyD4a0SH02Hfaak3oNavWK1KprrbdTNJRFg0FV9XWI4/R/j7SrVqIBpMpxO3NC0xFIqLzIoOvyrvW9sG6g/14YuUqvytGH89y3oVfQDlc+dFn8cU/+ikefVyPaJhZqf5qleVO/9PvqfPy1cflPB/C3Z/oxpV6WkPq7v8KlJlDCO/602dxx9Vfx6Mn9ShaVxgwaPliARPnzuLk+Bm8MnEGL4+/gm+M/TP+19F78aVn78U9zyTxJTH872fvw/PnXkJRdnIW/zVtasF7XvV2/PLON+Kyi3Yi2Na8Mp2f1RN3ouVKdFUybWYk7uynkAijvEikH6My7lCPTTWHrqxYb7m2qjtJq+WX77Gq0eF+YNDaZg8yw6POTtAH9ZOTrH1WT3rSKT2qUp2a309gyftXZbs9WYRVWVjBlewPUu8xp3I9IyIgsK1H7FvYcZ7MFqKUCHoqo81WEznWfj7k4Ig9iIiWQlUkPwT892fx9Yes4Yf4DLJr9E6wrFCn8UZxHF+85Av4k39yfUHL4617l1tWnn8P/7LYiq3Yxm//EbDrEv2+npM6zei6t+Fz3wPu/j1X0CDX9/InxHn5R+D3DmOnqHh//aM1/tYvSgQflud+2ddbIYOeW7/wZuyUXTxp3fGVSiWjWCxiLp9XP+YwNT2LohHA7stX/p7nyTMz+tXy2L518b8f8cBjp/Ff7xvHw89Nq0AgEJzCxVd/BU1bfgFfYA4QZaISjXS2kYwJfH4f2jdtwqeu/Ciu3vYaPHHmKJ6bzOJdu96Gt+66ypyRLgj5Gwdd2f6G+2esNNk5OxEexUGmHtEGMj4+rl95u/POO/Ur4JZbbtGvqisYLfrV8jh+rgklY7lTSFcRWVH9wNfxrq/9d7zLqxInK9i/B9zxUP/C7mhfMDmcPhnCNn08p0/mxGvb96o8ni+F8cU/jWGbHjWfDBi+gF32cjkv5SCDnbfh+EefxYev1qME5zFk8OTjEVxpm96QNXce1z6/z8Cu9uX5oV6pKehHx+Zm/W5lnBmfxJnJabQ1Geo3GeTvrgWDQfj99dsP2MKgXb6tFZduDWBru18UpAgEWsSJa21Be1MrWgMtaAu2oCXQjBZ/s3rfKl5vCrTi4sAWXLJpBy5tD+G6S9+KD3b+GvZsuUKvlS4M+cN2rvSfCymTQI9n3xMiopXx5Df/I9Kf+IR3sGBXvgsuh/mpLVbKjDU47+yb6S5mOk1lnmqpN2Wygiu3o/7Vy6h0mTrrOJnGnR+oTP/tO9Ll1gTVt+D3/hz43n/Eb5fX56K29yHcjW/jc2o9rmOtUw5m/wXv6U7OY/mTf6qW75vDo3e8rbLOz2axq2awoFOLyvO7WlM899/cF8d5s5e9GOa11jg4j8W53VrTaL1gwKBddnEz/u0vb8Et0R345K+H8PvvvQS/+6br8bGrfhM3X/Vv8bErP2gbPlB+/Vt7bsSrOsLYFGzFjtZt6vWWlna9VjqvctajT91pTxeItT89GQxbKVZEROdFDidEZfvmSCNfhH+OW+8AbrHSld4p3tsq27KS/NsP/Bt8sZzS9I94/R+9bV4F8+7f+0PgVnOeL/7Re8X7ehVqsZ1Mt7nOr/0Vur/wIVHhNO/AV12HrOCqFhNrP2TOvAgOdAVV9i34+n//T8A7/8rc12rpN1f3i+X+ETfjvfiMWo/9jnz9crgV/1jetuzHcKtn5VhWot+Gz11dmf8WfEGlJFWY8/zLDT8sz6OOx7OfgQwWPoSn/sg2/w16klJ7/92eFJPu0OuR5Y8/+kPPNK0nv+Q8lsp2F3oMtFYxYNA62gKIXnMR/sOvXoz+927H773nUnz0muvx0Stj+O3XfxC/LYOEq0SQIIbf1sHCR18XQ8+r34tLN4UQ9Af1mlbiKUnUENujT1dF6k95fxgsENH5lsXx7723wTx7UXm+1UrhCeFdHxWVbuspPSeTOPwF+3Qpgg+Linn6gcrdfan7j/6k3Jqx7dc+ISrlP8WJmv0E/hPusCr122Po/YT49xP/WE7Xca5DVEy/9OeObUhXflRU/r+3XB1t65WDbX8FtX9e2378sAgO3PP/iajE6zeSnAd/hVt+rfIH4srfkIFT9Scknf6nL+BuUT5/aJ//1+znpcb+V3HlR23B0vZuvOud38bxl/X7KrovqfxyUXm7CzwGWrsYMNgE/D60NPnQ1uxDq/i3JdCkUo+8BpmiFPQH9NJERESrSe0KYEWNjqovZ5GuNl1UHru/J4IS/VZ6/aXuOyONbr/CXil1kgFQtW2EsatORbdx9crhz3GrlXajBjO1qdq2T7/0U+CdYt/0+2rUPFb6lDV84D+K7VQLtHJ49IFv1ygfaaEdju2pRGaHbC9XRkSA+EcydcrZarSwY6C1jAEDERHRuiMr0sBTL9XKS29QnYrv+dNoi8lK+U+VFB7bYO/A7HB12Hb334OVPuUYvDupzw+YFumk7OtgTyWSKUx6WjUqlUunYcmgwJ5ytMBjoLWJAQMREdG6Y6akpP/o8NJSQ1RLQpW0G3nH/bwGEmZLwr9k3AHQQlKvlkCWwwLumm+79M1V0oHMVhKLmsfVSuMthJ0iMLk7szx9A05nvo60K72pEdt+7b+LYED+sNwXVH+HhR0DrWUMGIiIiNajq/txxydkGo37Nwdkf4AGn2Sj+hZ8G5+7wz5/Bl/9vT/HzR+158+vNCsAcnbMffJL8kfOXE+CaqgCu8A0pqrlUKMcr+7GzfhzHLZ1DFf7ql8rV/dW6Zgsytajw7DZN+BDjidHPflPDZ5HF3dAc/qf/rBGSpLrOE9m8ZR+udBjoLWLAQMREdE6ZT456M36EaLW8DYcjzRe2ZfrUE++KS9v/hCcZyrOSpFpMa5jUU8tsj8NyarAyumeldYIfk09gUmuo96TnCqu/Kj8wTt7OdQqR/lDaebTpKx9fTTiTvsRQdCfyrv18ulQ1jq/gF2/UeXpTpIIWv7wa3+Fp9R+m8OtLzeQ9lRNOZg013MnPlEjJSmEnfbjdvy2xwKPgdasqj/cVjAC6NxgP9xGRETLiz/cRkTr1Vr84bbxibM4PTHFH24jIiKiFaJ+6Mud3nQhmD9eVvOH4YhoWTFgICIiovrUk3JWw9NvZLrPBUiJItrAGDAQEREREZEnBgxEREREROSJAQMREREREXliwEBERERERJ4YMBARERERkScGDERERERE5IkBAxEREREReWLAQEREREREnhgwEBERERGRJwYMRERERETkiQEDERERERF5YsBARERERESeGDAQEREREZEnBgxEREREROSJAQMREREREXliwEBERERERJ4YMBARERERkScGDERERERE5IkBAxEREREReWLAQEREREREnhgwEBERERGRJwYMRERERETkiQEDERERERF58pVKJaNYLGIun8fMzAympmdRMALovDykZ1k5J8/M6FfLY/vWVv1q4SbvfDWM2TMwink9BjAM+X/ifyX9wkHEWj790sYXaIZ/03Z03PK0HkNEtDGNj4/rV97uvPNO/Qq45ZZb9KvqCkaLfrU8jp9rQsmo8kVORFSH32dgV3ulzrhUTUE/OjY363crY3ziLE5PTKGtyUBbWxtaW1sRDAbh99dvP2ALg6aChYIIYEqF8uAzxOArIiALdPN2BDt2moN4HWhtEQVcFBdMwTH4MANf/oxeKxERERHR2saAQTMKs7IpQQxFc1BBQx6+1osR+KV3oynycTS/5RNqkK/94XfDaNkhFsmLQcyrl/OVSua6iIiIiIjWAQYMtRgGfJsvQfBV70Xzm0XAYBsCv/ReGK1hEVe4U5WIiIiIiNYPBgw1iYChuQP+9p3wb94FX9vFavC374LRcgkKxjbkp/0wSj6zv8MyyiQ60dnpHvqQzOkZ7HJJ9DUy31qijimBjH67sjJIyHJLnJ+tzZdDsq8TF2LzuWTf+rheiIiIaMUwYFiCUtGH2bMBzMmgoahHLqPo8CjGxsYqw0gEA12d6LPX7jIJdHYlERt1zpfN6umrgqyQr+ZKaQT9stz6I/r9xhGKHRTXzEHEVv4ZB0RERLRGMWCoyac6Q5emXxHDaRTPnTSHKflajDt3WrUu5KdE0DATQLGwwk/biPRjbHQYGBgsV74z6SEg3u+s8In5NmDdl4iIiIhWAAOGWmT9f24SxuTLyL/4KM6mv6SGuWMZFMdfFkHEhJpJBgoyNakw40exuMJBQyiG/ngKybQZMYTDURE1ZFH75r1OubGGvqRtftc0VxqQSo1y5cqoNJbyOHP5RMZMq7HWU5mcEO97MISUah1xr7/MkVbVh6SrhURtU+x3RqXQVFpZnKlbtlYMuV3Hcer9sx9LeR5zmqPlRnCnhS1fypCzrPrcB6vKTJST+lfMY23Yel9eTu/vgo7VxdqWfiuZaUpVtkNEREQbEgMGN9kZodwhQVT+my9CceYcZp/9Ec7+69+rYfboD2DMnoW/dbOYRcwjZi/mRdAgAgYZNJRWID3JTgYJKZ1zFIr1I54aQJdnvr+s0PcgY0tvGonpSaqS3gOMVNKZRocz6PFcl7ehnkHggLWOqHiv1yFbRcZGEEcUwyptqh/zGj/kfnQNIFLejwNAYkCEGC7iOBM4oOY5qJpUMkhjRC8jtysbX3SlONItyiUJHVcJWWTlCm3BVS4r9jASxvxsHLPC3WNbt2zZyfQsR9Ag192FgUhl3QfEUQ3MO9gh9KS7zXl0c1EmLU9VZX/KLU1LOlYnGSR1JWMYtbYjzl1koItBAxER0QbGgEGrdFrWLQTyn2ALApd1o4RNmHluFIXjT6lh7vmfwNfUhpZXvx0INOugwYfCnB+zUwEROATMdaykcmXQzL8fiYsKprwj7LqLnEsmMBQf0RVsUyQWUxXHzGFRKRfT7OlLodgBDEeHkF5gxTg6fKCcFqWCGFGZzzZYx5y/HyHEDgyLEMMtjn5n7hX6bTsf6o4hmhKVZfUujHC00hIja9tD8bitYp1DOplCvHte+CJ3SFTg4xhxFgwOyEBooQXjVmXdZpnrN2UiwOp17luk3xZshboRE8dnxo1LOFY7EbglhsR2D5jXh0mU8UgcqWTacV0RERHRxsGAQZM/waAEW+HbtAO+LbsRvOKd8O24BoWz5zCXfVTPAMy9eASluXNouvyNaH3NdQhu74R/83YVYMifZJgTQcOKc90tjvTLu8GjGIZsbbBSc8yKYjQcVvM45SBvOs+fFkJY1Cszjdb2tUjYvjeSVZmtx2s/qoiKirF+WWZPZeqyt0qE0B2rtMTIvh7x7n50x639knfh46hWh1Z346tsK2QWTNWKc6NpPF7rni+CeUUqtlxJZeqytUos/lgdxMypatsV56YSiBEREdFGw4DBYgC+QDMCV/wKmt92K9re/Wdo6f4Mml71HjRf8RY0X3a1mEEUlxiaLnk9Wn7pLWh97bvQ8d4/wNYP/L/i3/8HrXveAZ8IOEqlcnPFCqgVBIQQOyhbG1IYOFy5Ez6/Ml9Ra9r5tJj9UJV0+xOiRp2tEqrFYSiNjExdGjIrzDKdS7USyLvwtSruDaTv2JlPG7LSeKyUKQ8LXLeiAqMuJGNWapkIDm0Hu6RjtWt0PiIiItowGDCUiUq+DBi2vx5Nr44iuOd9CITfjsC2TgRDr0Fw1+tEaYniEkMwtMccd/EvoeXV3Wi76r1i+DU0iXl8wWa1qhWjU1qcqTlOqiO0YrYWVE+j8Zpm3vG3KvCVdVVkVYL8cvHYD3W3uxadZjNS45GgoTAiMjUqk0Um3q3SeVTFWr4XBxmNdVetuKuWBFX5dmq0H0At1det+xzUkEsnVdqWZyCyyGN1UC0J9r4QmjwXDCSIiIg2LAYMZQZ8/qD6oTb1A23Nm0Xlv021OvhbNsO/aWu5hcHftkV1ePYFmuBvahXT2xHYtE2MuwiGP2DLb1pe6o56TwbDo5Vc9kzC/fsGGRweqOSrR3qHER3qcXTWzSTNfg7VpuWSgxjAMKz0ebOCm3A8fahnSL9eEGeKkv3pS5HuuHMb4hgSdTfiDjRySA66O0pHVFrOQM+AqgwrMvdfHKEcFev2qEJHelU/jh5nwUCsfl6/ggWTHZQxhITtpGUS8ilStbkDDXWeHAfb+LFWe/KVop/AVe44rpjnIt5v79dAREREGwkDBjf5C2yloqjzOwf16CPrCUpiHvd0o1RSg6339JKlBrocefFdWfnEIecddVk3NB9Xag3mU4/KfWpFJfCgfsKPNU9PVt8lrzJNPSHnoK1yGOk3U5ysbaS71VOQFiaCXvXkJLmOKk9gkk9S0j9KZ+5HGt2u9KJqIv0jiIuAx1xmEOifv4wKRsTYSoXZDDQQjcErXpDzxA6OYjhjrVsMKvVpOX7gTHZSN588ZK073e1ML6pKnQfdsV0Mg+ift8zijtVJ9oUZich+MPq43dcTERERbTi+UqlkFItFzOXzmJmZwdT0LApGAJ2XL7lmVNfJMzP61fLYvrVVv1q403+6CYHmFgRe+0E07f338F18paj8l9QDkOZeeAxTj3wd5374JTXvprd+GO1v+RCaL3+jiA8MMY8P+dyzYvo9mHo0CZ+RxxV3nFTzEhFtVOPj4/qVtzvvvFO/Am655Rb9qrqC0aJfLY/j55pQMvST8YiIFsDvM7CrPa/fLV1T0I+Ozc363coYnziL0xNTaGsy0NbWhtbWVgSDQfhlyn0dDBi003/aDn/AANovh7F5D4q+nebvKYhRxbOvoHjqeRRO/ULNG9gWRnD7qxDYvEO9F8WI0tRpFF45isKZF+EPBkTA8IqeRkS0MTFgIKL1aqMFDExJsjNKMCazKL34ryg8+03MPnU/pp+4H3NjP0Lh9DE9kwggRFAgx00fSenhfsw+K5Y5nVXrICIiIiJaLxgwWPxNqkOzD0VRKDMIBiYQMCaB/DkYhVndN0HeiZI/0maoccasmDZ71hzUPCJYkDlMAbEuIiIiIqJ1gAGD5mvdav5qswgc5NOPgi1BtHT40bQpIEYF4QsGXIMYJ8c3ifnlIN+L8f6mZgQ2bdFrJSIiIiJa29iHgYiIVgT7MBDResU+DERERERERBoDBiIiIiIi8sSAgYiIiIiIPDFgICIiIiIiTwwYiIiIiIjIEwMGIiIiIiLyxICBiIiIiIg8MWAgIiIiIiJPDBiIiIiIiMgTAwYiIiIiIvLEgIGIiIiIiDwxYCAiIiIiIk8MGIiIiIiIyBMDBiIiIiIi8sSAgYiIiIiIPDFgICIiIiIiTwwYiIiIiIjIEwMGIiIiIiLyxICBiIiIiIg8MWAgIiIiIiJPDBiIiIiIiMgTAwYiIiIiIvLEgIGIiIiIiDwxYCAiog3JJ/4jIlqMjfb9wYCBiIg2pKC/pF8RES3MRvv+YMBAREQbUrPf0K+IiBZmo31/MGAgIqINqaWpqF8RES3MRvv+YMBAREQbUpP4CxhgNwYiWiD5vSG/PzYSBgxERLRh7Wifg2EwNYmIGrdTfG9sNAwYXOQfDvm3o1gy8Ngr0/jjH59E33dfwn/NnMSpqSJemR3HXx05jN/5/hD+c+Zv8MjpZzFXzOvl+EeHiGgtkX8Et7aJ725+fRNRPeJ7YmvrxkxlZMAwj9k+nRfDD+aacWTTFjyzfSee2LwNT80Aj4+/jMcKM3jK8OGxuVl879QvMF0qwOfzqYGIiNaWTcGCCBr4xCQiqsVQ3xNtQQYMG5rVsiDjBfNGkw8lMaIg/obMiNeTPj9O5Q0cnxnHRGFaBQmTczN4YXYcRZTEMvo/tjQQEa05bSJo2LV5DgE+apWIXOT3wqWb8+p7YqNiwFBWaR2QDQVBMbyh3YerNxl4fZuB3a0G2gNA0SipQMJXEkGB+LdUEsEC4wMiojVP/kHcuUkEDmJobymqSoJP30Iioo1Dfu7l519+D8jvA/m9sNH5RIXXKBaLmMvnMTMzg6npWRSMADovD+lZVs7JMzP61fLYvrVVv1q4gqj1Fw3zT4NsIbDSi16eKWG8WFI94ncGgW8f/zH+8fhP8ey5V9Dhb8U7tr8a/+l1v44tTW0qmJAC4s9O0L/0WCyT6ETPkH4jxUcw1h8RL3JI9nUhGRvFwdjSzlMu2YeuZAyjB2NYvjNu7l+2fwxqdxcqk0BnDzAy1o/FLO5k7stAKl51fer4s/26XNc5Va5DiA7XuG70PPGRRZ67xZLbTYSX+TqsI5dEX9cAUvotEMXw6EE0+pFajs+OWscAFrTdtWR8fFy/8nbnnXfqV8Att9yiX1VXMFr0KyKi9aUp6EfH5mb9bmWMT5zF6YkptDUZaGtrQ2trK4LBIPwN1FnZwqA9PpnHP+RK+KsXSvivWTkU1fC/Thp4aMLAS7MGLmoSM8qGBXMRUcCVVomfnnke/+uFH+GLL/4Ij02+qMculqzkimABIkAYG9PDKIaRFVNocYbQk8jo1xtbauAwqpeEuO4S9gi1Eea1er6LVla0O5eyURmgdCURG7U+X2IYiSCb1dNXRAaJzj4kbR/iUOyg2Pb6DBaIiGj9YMCgfeHYBJKvFPAvpwt46EwB35P/iuH7pwr457M+PDATwJNnZbAgm6l8KhqThSdbInKzE7jvpUcx8kIGX3/pZzj47PfNlS5WLo1kKorhXvst3hBi/efx7us6Ex8eRnSo57xXbFedaBzx6BDS1cpBX3fRqH6/jmXSIjCK9zsr6pH+89uqQkREtEYwYNCemy7geN6H00W/Gk6J4aT8t+DHi3M+MfgxmQe2NbehRTbfNAfQ0tqMbU2tmJibwvP50zgmhpdmzmDs3Em91kUKhRFBakF3O2X6UmenNTjvYioy/aI8XQweNWd151ZMX7mKtbzL6l5/nbvU8m6wWKavfFDm/OVj6UvWb3kJx3BgOIqhnoTH3fUKR1mKnZLvy9tW5eguX9udY7Wv7m24js91LirHJVjLO+apv8+NC6M7JsohMb/MModlboyoROv3ZV77q8bLdC+IcpXTKuVS93rU59Qcqhyfa5uV69Usyy5zo2paeX8c63SVq0s4LKKiTL0WO/NarayzxnlQ+1vvuujBkPhcD3TZ1lXlerE+g9WPw/r8OD8Dzs+Oa789P1hERESNYcCgvamjBa/a5MdlmwK4dFMQl7WJoVW+DuCKFj/CAVGPF//u3rRdzBdC50U78aotl+DqzZeiNdCMHZu24YrNO/Hq9l24ZktYr3WxIuhVldvalZ6KDNK29KXRYWBg0FYhlJWZrgFERqz0i1EMV9tFUXkx86nPc/56LXLfdU69mXcvK0pm/w3reEciA+hqoFIUih3AcHQIiRplqvqNZIYxqtc91p129iOpJ9KNuKgWOu7gqzv3cXTLMlXnwp4KM4LIQJerwjeEnkHggJouzpXY5+VMpwrH+hFPJZF2FIO4hoaiiHW7Loxa+xuK4aDaP9m9Rk6zUmvqXI+yktyTUdeZOU830q5CzqWzjm3Gy61DIcQOynWqjarpVn+MTFr2e9HLmBudH6hoIVUG4rrxCgJUAKA60uh9kNvMoKdW0FBLpN88DtVPQq6vev8cef2pfhHWcejydn8PDJkXiN4veyAsPx89yAxbnw+PzzoREdECMGDQPtXZgX0hA7FtRfzmxUV8cGsBPWKIidf7dpTw77YXcdVFfrxh6xX48M4u/G7oHWL8tbjxkr143eZL8J4tV+LDoS58LHwd/uPr3qPXungqt1lVerqq3EF0i6DfVsMPdccQTWVhNVCYd45HbUGAqHTFXNWVcsV8NeVTZ5AwI5jKvmcOYwDDOGDbyUivTDdKN1CRE8d9oEZFUpRBQlSahw/YUr9ERW8krl83JIJuMf+QLWLIpZNIxbtVBdE8FwdsZayDQ0eEYd8HmYomVlj3bvhCyG2KYjhs28dkAkPuFB2hsf11q3U9igptQna8dq6z31XIskJvny7LNJOtXQKRflslPNSNWLRWK53YpqhQj8RFMCbvwrtaqeRxp0RAYg+crYCz5qEvRbXrT5dNKpl27J+9/FTwI65+e/FEwtYaqnzWiYiIFogBg3bJ5Dje/ehj+ND3vo/eR3+Gf9s+iw+GAuj9xTOIZjLYO/a8nhO4qjSOX519DteO/wT5F76JwEvfwq+cfQQfnH0W188dw87itJ5zidQd3DGMiQqDSvmoFTWoO6I6BcHx5Bd559hegagmiUHdAmGvIM1j30aVStbyEsGCvlNqf6JPLivKQN0Ztu2HOl5nhcmTKNP+eMp5x9siapcpUUGrWVQNiJgRgw5gMlB1btUfJQdz980g0BpUeo0jIKiyD7YA0MmVftLgHXBViS/vYw7pZApx1QRi1+j+VuF5PYrjEG9qX48me1pTY6089jQdM1Wqnki/vgsvwtCuckqRedzRsPvWfAhhUUT1ApdF87r+xH7YbwBI88vPCo5CZsqZ/L5Y0c8nERFtJAwYtMm7voJC4lvw/+0DCH5tFM0vnELg2w+j5YsPInjnN1G4+zvIP/UiihNPIJg7jOYX/yeaXv4KjGNfhJH9IpqPfwWbXvkKml++B7NP/I1e6zKR6Qyj8i56ouqdcZXzbE8bkfPqaaaorHN4kxUrsUDtu8aCFcBYw3l4BKb7zqoStaUMlYfGW0Yi/SMqHcV2g70iGsaSMzgivRiO6gAmk8ZQNIZu277Jx5o6910Miy5L8055ZV0NPopWBU46PUu32jj62NssdH+XfD3qIMj+lLC6rTwqQLGnqpmpUo0x05xGZCBpuygaCWqW3TJcf+aTl3SqnijHxtIaiYiIvDFg0KYffBgzP3kGU0eex/RzL6Mkf4/ixz/HzE+fxfRPn0P+Z2MoPHscxeksMPsUilNPYHbiaRQnn0FB/Ds3+RTyYihMPIb88SU+Jaka1RG6Gn132DOVSFRAoikknQnrTqJCe+CgmSe+8pULuT/6ZZl519lJVIQP6ju/tpaVkLzF63m3vVFmmofM+07rMYq6k+vO7TfvNpdVOw+5rOuuvrzLC1Xm8mk80Vi3rlybd6hTC+nNvoJkS4gMyJKOfbRbzP4u7npULUcWFWSJoLBmc5eTmfY1sqTfJVEdoRXzuOcH0Oa1UDWQaOi6qKPq9SfIlodFBBKq9USlNXo9RpeIiKgxDBi0QGgbAts3w9i1BcXLxOuOTfCfnsTs9DQKRhGYy6N4ahI+fxvQskMNRrADaNoiBvFvoAMlv3x9MQKt2/VaF0neLXWlH6kcc9edapO7cpNDctCeAmLmwKcceftinqS7CiEq0brPxMoGDXp/bU/pySTk02OqkXd+zUCmnI6l7t67OwFnkKiVrlWNXs+APW9F5707c/sHXaktZoW3Mo+7vE0y5UdMUDnpMdtJM/tbuB7vmknU6aOyQmQZiIBsYCiOfo+KdqP7W0nTqX89ypQZx29BiOt90F7I7oqz2F7VlCRbWpQKJG39WOafN6dMYv4TjQ6LBay0rGrHrdbp2RLT2HUhm/M846+q6XLi2pZ9ixp+pLLrsyCDDf2SiIhosRgwaB2f+vdo/8CvYHPvO9H+4XcheJkICvw+9fPg8pefS6WSeF0A2t6E4ub3wLf1erSG3oam7V1o2vHLaN7Rhead3QheGkXrG2r/Wmld8m6lrCTr/G051PpFWZViU55/EOh3pYDIlKaRiH6coxy6kKx2v1KmHMkOljJnfRlqsOajNm2DXqeVEmT1Q0h310ofMQMZWXkzc7JtQUR53QmEvfJpPIn1HHCVk1q32JdMZd2DOOBKh9HL2cv7gNgfPbVMBh+iqpZydyTWZewom0TYMx1oZZmV9+hw7/y745a6+yvKQwWksp+DWQmvdz3KlBnziUN6faoIbSUotqn6plvXa7p7XkpS5SlHOuVGdU7XHZjFMIj+milJMiWq8nmQg/lEpHKjhjxucd1lbMdd+1edG7kuKk8/8+prIlsFrFSiqvtVlwhcbNfv8v1iOhERbWQ+URE2isUi5vJ5zMzMYEqm4hgBdF7e2P2spTh5Zka/Wh7bt7bqVwtnzMwBcvCJEKE5CJ8BnLvtbkz/8yNiRyfR1HkJmvreh9bYG8TMORj5aSDYjmDbTr0G8xegfb6ACDTEfgRazJG0xuXUY1yzoiK3gAwZYbHLEa0f4+Pj+pW3O++8U78Cbrml9s2WgsHvVSJan5qCfnRsbtbvVsb4xFmcnphCW5OBtrY2tLa2Iih/W8xfv/2ALQyar6UJvq2b4ZOpSK36hBk+9Y9f/OMPiEAg0ITiuZ8Bx/8BeP5vUMx+BYXJozD8m8SZ3gZf8zYzRcm/sieczh8ztUX/hsICLHY5IiIiotWGAUMtIlCQIYNsbfD7fPCJoMHInwImnwDOjMI4lUbx5I9EYDFrzkhrnGwVsFJBzMH8Ea0FpHTIHyWTyw1EmApCRERE6wIDBosICMr/ykH2Xwhtga+tRbYTAZua4d+ySbUiGNgkgoSAKLwSfCX9mwsyH0kOkrUuWmNkHwb9KFBrWOjjTtUv+splGSwQERHR+sCAwUV2cBb/B18wAN+73oD8ay7H2ct34NxrL0PwjbsR3HoNzjZ14rRvO841Xw4j9G4gYPadsOIFIiIiIqL1gp2eiYhoRbDTMxFRY9jpmYiIiIiI1iwGDERERERE5IkBAxEREREReWLAQEREREREnhgwEBERERGRJwYMRERERETkiQEDERERERF5YsBARERERESeGDAQEREREZEnBgxEREREROSJAQMREREREXliwEBERERERJ4YMBAR0QWzffv28kBERKuTr1QqGcViEXP5PGZmZjA1PYuCEUDn5SE9y8o5eWZGv1oe27e26ldERHShjY+P61fLo2C06FdEROtLU9CPjs3N+t3KGJ84i9MTU2hrMtDW1obW1lYEg0H4/fXbD9jCQEREREREnhgwEBERERGRJwYMRERERETkiQEDERERERF5YsBARERERESeGDAQEREREZEnBgxEREREROSJAQMREREREXliwEBERERERJ4YMBARERERkScGDERERERE5IkBAxEREREReWLAQEREREREnhgwEBERERGRJwYMRERERETkiQFDFXOFIl4eP4cHnnge/zv9JA6PPo2Hnn4BJyamMDVXwOTMHKZm8yiUSnoJIiIiIqL1yVcqlYxisYi5fB4zMzOYmp5FwQig8/KQnmXlnDwzo18tj+1bW/WrxXvh9CQyvziB1BNZvDI5jSkRHPh9QFtzEKGL2nHDVVeg+zWXiNebYBgGDLGM3ydmICIih/Hxcf1qeRSMFv2KiGh9aQr60bG5Wb9bGeMTZ3F6YgptTQba2trQ2tqKYDAIv79++wFbGGwmpufwo+dO4OuP/gLPnRjH7u0X4brXXYZ3vOYyvDq0FaenZvH1x4/hX55+SQQWZ+ETgQJDBSIiIiJazxgw2Mg0pMyxV/DMK2fx1s6d+EjXa/Ef3vVG/Ifr34B/3/16vOeqK3Di7Cz+WQQMP3j2OJ49cQavnJ3B1FweJUO2NRARERERrS8MGGyOT0zh1LkZ7OzYhJve9npcfdl2bN3UIoZWXCVef+SXX4cbXrMTx8ancXf6adz5wE9x/2Nj+PnxMzgtlpN9H5Y9bsgk0NnZ6Rz6ksjpyevavGNPIKMnKbWmy2ke5ZRJiHkTjjU5yOl9SeeSuWSfWH8fXKOXQQ7JPvsxyKHx7ahjcZdLo6pcWzWKxYO5/+XyyiXRJ9bjLj8iIiJauxgw2LS3NKE16IdRLKCo+yfIfgqlUkkNTQE/et76Glx7eQfyc3P412dP4G+++yg+85Xv4bP/+K9I/uw5vHJ22lzZMlCVwR5gZGwMY+VhFMPIiv9WswwSS6xcqwq669hHh4FsuV5ae/qyEhXrrgFgePQgYivUtSc+UjmOsZEIBroaK79Iv1ymHxH9vlHmtZURx2TbrijATM8SK/uhGA6KdR1cqYIiIiKi844BgyZTikQ8gGBTM2aNAJ45cUY9BUm2GPh8ftUhJOD3qdaHj3S9Drf++lvwmRuvxR+8763oecsetY5vPvoLfGX05zgzNaveL4WsEPdkhjE6rzIYQuzgwiuIa0sO6WQK0eFex3GGYv26wl5v+jKSd8xVxXrlgoV5Iv0YiaeQTK9E9COIAKhnKC6CLdcxycq+jLoGBlegJYWIiIjWKgYM2ky+iMmZPKbEv75AQD35SP2nnoBUyTOSrQyvu2Qb3vm6y/Deq67Ae6/ejX/zplfjxms60Rz041+PvoQfPfuynnuxMjg8kEK8PybCgwa4UkvsaSXqTrxMzbHP407V0Wkk1nTHHWa1XAIZa3lr5a5tlpdR43swhBQGuuQ0W7pMre04hBAWkUAq69WOUm/6cskg0TWAyEiVYMHrWNT4+a0D1dKc6ikfn1dZC+Xza77T6UEZneZUvZUikx6aF2yViaChXwQrA4ft51mcQ8fx1kqBkq1LlWuwoetP77f3dCIiIrqQGDBo03N5HDs1ifFz09jWGkTn9g7VoiCDBTNocGoJBrC5tUk9bvXybZvxayJ4eHN4B87NzOG7Tx7Tcy1SLiuqXXF0V63RuciKmD01R6WVuCqKqQF0pbt16skI4uL9oDWDrAh2JRErp6aMIDLQ5cplH0KPtXy/uVOZtHOb5bvSkX5zG4jqdBfdGtLQdioivcOIDvV4Vh7rTV+6rKjE9iAzPAp9yBW1jiXUjVjU3TqQQXooilh3o00UOWTFuqLhsHrnWdYeUgMJ4ICcv1qriLnuSNh7XyLdcbHRrK1cxfkflKuU6xzFcFS89zpx1dS6/sRWkn1dSMZG9fQxjETE/AtZPxEREa0oBgya7Oz8yLFXMDM9jTfubMfey7ejWQQF1YIFO9nHoVgyVP+H1+7aiiu2tePHzy2xhSGbRSoahlld1Bx3ma2AQFS2EkOIj9hSlPQdYmeFNY6Rcq03gt7haPnudeawTM4/YKtYmtOH0vYKm6j89zprzZF++zbNSnKtG/6NbcdG5cLL/hqi8iiP2V2BrDddkhXVcplVhp4hPb2G1EAPBlJx9M+vcdc5lhC6Y6J8k+lKhVvU+IeiMTQaL+SSg45tL7SsEa+VmpVFNhWFjkUaJM7/Aau1K4RYvzugqMf7+hOFKc7gMA7YdtgMBtM1WjGIiIjofGLAoP3T48/jaG4Sr7t0O957dacaJ4OBRvj9ZupSa1NABQ7nZvN6yhKkXB2b1Z17fYdWjzIrf8BQz/wKsSNdxx18SKrCZ95tTg10OZbvGhArdVQII5h/Q9qeRtIlKrh6dFWNbsdN9tfQxyxbE+alwtSZHpV9QMy71vZhpFKAnqLDo2K+IfRUSZ+pdyyh7hiiqSTMmE0HdXXSy+znsCsZc/VdWUhZy9NdLxqoE3DMU+X8u6/PWjyvP3FkZmE6A7uuAbGHmZXpwE5EREQLxoBBk2lEhUIer9m5BZ2hLWpcIwGDDBRkfwfZ0fnnJ8Zx7PQ5/NKODj11kSLdIihovMLkeMKONczLo/EmK8fzlj9Yo4Kr8tntaSQyTUVPq2HB2ymLoF+nwiSq5uLUm744kX7dglGl9aLmsehWHlUpz6WRTNVPL3OcQ3uZLLKsvUVgZhx5l5Pq4xDrbuC8LJOqgd157GRORERENTFg0NqamzBXArKiwv/US6fMVgJbOlK14GEmX8DRE2eQ/NkYvviDJ/EvT7+guke/d+9uc4ZFk5U6W8dTT2GEReWxVuWvtsV1Hs6lk0jFRxbw6Mzl6KRsrsNbvemLIVswzNaLSkfjxo5F9gOQKUpmWXWLM7o4Cy/r+uS+pQYOV0/5EQFKYkH9LZYmZBZm460VREREdN4xYNDefWUYu7ZsVq0E9z0ypp50lD11FlNzBZRKMgxwBg9ynOz38J0njuEffvQ0/umJLGYKRVxz+Xb86lVX6DkXL9Kv02xqduo188lTrk6wuWSiZqdYO6vzsOMmeibh2RlZUpU8W465mXOv35Q5014Wth2ZguNKL3JUZOtNX04R9KuOxl3loKGhY5GtREMJDCZTiDfUe726xsp6gdRjW4fQ407hkq0Z6gcn7P0zVlikt0on6gwS1S8MIiIiugAYMGgfe8defOztr8eO9hZ8WwQBf3zvD/G/f/gknn75tGptKBolNZ/8ATcZMMyK4ED+VsPd//oETkxO4d2vuwz/96+9Gb/37jfiVTqlaWlkmo1+Yow9v7tTPrnHVqETlT+zPluZpyvb3XiFT3YeHok7+0EkwnD1cXYqVzjN+QfR70qT0Z2A1Tp1pXRB25F38SvrV4N6KpGVplJv+jIT+35AdtS1goaGjsVsJUphuHZZ1lO3rBdH/eDbCKqU4fn+0bVKK055P8Q1E15SoREREdFy8okKsFEsFjGXz2NmZgZT07MoGAF0Xr7ylYaTZ2b0q+WxfWurfrU403MF9UvNT4kgIfXY88i8cAqbmwJ4+55deM9VV+Dazl16TuCRYzl842fP4euP/gL/+TfeqqZd3N6KpqBf9Wkgkr+9kAiP8lePacMaHx/Xr5ZHwWjRr4iI1hdZf+zY3KzfrYzxibM4PTGFtiYDbW1taG1tRTAYVD9OXA9bGGzkU44u2dKuKv83/8pV+Ph1V2FPqAOPvHAG//17T+Ivv/1T/PT5HF44fRajYyfwsxdO4u2v3oU3XbHDDBYCDBZIy8hfUz5/fQGIiIiIVgoDBpeg34etm1pw1WUXqx9j+9BbX4N3vvYSdLQ24cfPHceXf/gU/v5fn8RDz7yEgIjIbnxjJ3ZctEkFC7D9IjRtUOqpRp3o7MlgeKVSpIiIiIjOI6YkeZD9FKwfbctNTuGJF0/hwadfwlMvncT4XBEXtQQRCW/HJ371Gmxqks055m8xEBGRiSlJRESNWe0pSQwYPJREwJAvllSjgYwDrGDgsRdO4smXz+Di9hbsvXQbrrj4IjWeiIicGDAQETWGAUMNqzlgICKipWHAQETUGHZ6JiIiIiKiNYsBAxEREREReWLAQEREREREnhgwEBERERGRJwYMRERERETkiQEDERERERF5YsBARERERESeGDAQEREREZEnBgxEREREROSJAQMREREREXliwEBERERERJ4YMBARERERkScGDERERERE5IkBAxEREREReWLAQEREREREnhgwEBERERGRJwYMRERERETkiQEDERERERF5YsBARERERESeGDAQEREREZEnBgxEREREROSJAQMREREREXliwEBERERERJ4YMBARERERkScGDERERERE5IkBAxEREREReWLAQEREREREnhgwEBERERGRJwYMRERERETkiQGDy9yzT+PcA0lMPfgtGNNTeqxQKoiJE+ZQyuuRQiGP6X/9DqYe+Dryzz6lRxIRERERrQ8MGOwMA/mfP45z9/8fTH//ARizM3qC4A8CzR3m4G/SI8UihQJm0t/FuW9/DXPPPCFWYegpRERERERrHwMGm+KZUyg8fxTFpx/DnAgcCidPwMjP6alVFAsonj6pAoXCU4+h+Aux7KmcnkhEREREtPYxYLApvvALGC+/AP/UWeDMSRReeN5MS5KtBvaWA/2+NDODQnZMzes/NyGWPYbisef0TEREREREax8DBosIAGafPoKSCBKafEBzIY/CU4+gNHFGzzCfcXYCc489jKbZGbVM6eUsZp961BlcLFIm0YnOTteQyNimJWC+yyHZ14m+5AVo2cgl0af3Te/a2pNJoLMvKUpx7at6zXT2oeqlYTt3NedbJXLJvvL172Re/85jloP1+XCR57uR+S6Yasez2vaRiIg2GgYMWmnyNPLPPI7pl45htmTAKJYw+/hPVZqS4hMRgUW/Lk6Mi3kyKM3NYk4sM/1CFnNPPS7GewcZCxEdHsXY2Fhl6I+o8ZF++b4f5rsLJYNE1wAiI+a+6V1bArOidH4DD7HNxBDi/TGE9JhFWUVBx7xrZiSCgS5XQCn3tyuJ2KhzvmxWTz8PvAOAajI4PAAM93pfZHF9HVrD6HAGPaKybd+E2mYPMOKYD8ietxPX+DVuPx51LOskqCUiorWJAYM280gGxotZ+GZmUIQPc4UC8s8fxdmRL+HM3/wFxv/HX4p/9aBe/wXO/uPfqycjzc3NoSCWwfQ08IIIOH72E73W9S6KcFi/XItyaSRTcXRf2MhrZUX6MSZrxQOD5RaETHpI1Ej7EbNHSWK+pQd9KySTxlA0hu4FRHWh2EERBMUx1FNpiUsnUyKg6nUE2qGYqxxWoVB3DNFUEmlGDEREdIEwYNCMIw8hcPZl+P1FGKLyXywZKE5OIP/TNOb++RuY+87XkRf/ykG+VuN+/JCYZxzFYkktE/AVEJzOofT4v+i1rgx1p7TWHUdXuokzXcmV8rCYO5dq/T0YQkrdvbanTDjTYlypFK50kPJ+qfV1YSAFUcGT08z0mKrH6bibbx5LXzKjj8mWVuPaVrW7url0Eql4d6UCWWsZj2nqeHtEBTw1gC45TU9Q410bdd5VzyCh1uM8HyuSWhaKoT+eQlLXOMPhqNh8ts55N/evfMyO8+Ca5jrPtY/dPN4u82Sr5esdswxworHuhbcCRXoxHB1CWu1KCGFxolP1mlHcqVr243BPq1ImzsO2tSh4XOONiyBcLgDXZ7hKypIq7/J0934REREtDAMGLZAdRUvgNFraDQSbDcBXElGECAQmzsCQT0t65bgYXlYD5Gs5bvyMmgcoIdBUQvNmA83Nkwi+eAFbGGTFxJFuMoLIQJetgisqLZGRcrrDSMwcvyCiAnpQrDeOKIbVdsz0KFlR7EFl3e5Uikzalg5iv+ut1jcqKndWKsbBBd31TQ0kgAO25WTl3p56IraV6XFX0FxpLrLcejL6eMxlyo0nNdan0sNG4jIXCKNy2gJv0w/1DOp9l4N5rlYiaJBBglVZlnfV4yrAmV/RNMnKbw8ytvSm8nWiKr6qMMrTzPQfr3W5hRA7KJdRJ1stf7DWyRbbSwzF0b+oZgAzSMjonKNI7zCiMkhxB6EW9dmppNmNyWvSugjkNeBK4xqJiDL0Wpfboq9xERwMqgu1Etjm0sjGbOcmPoQeW0Qgg4WugYjjel3LDYFERHThMWDQmiaeQUvbJDbvKmHzjiKaWg3Vd1mmGuXFv7Pi38oAMc4nppnxQrAFYhmx3K4iWjefQ/PZZ9U6lyolKo8LvUuYUbXgA7bKSAS9opYyZN5mVaK2PKJIbIn5+xZdsRuxVZjNimkllSLSb+t3EepGLJpanrx5R3qNqGDJfgkj9m0577ArVdNcbHdxxTIxtYIG17dI0SrnKpVMN1YJXahyq0IE/VZFU15brkpvLpnAkKjM2yvy1nUir6+UmGaPi0KxA7Y7+ctrXivQIpRbFaxKO5ytQRbzszNqOzYR3KiLwLwGnOdKXs8iaF6hVCGzFUIOIsAXe3zAvmF5/dnPTbcIWMvnVgfCo87r1byWiYiIFocBg6WpHYYviEDQQFtHCVsvM9C+zYDPX0KpJKIC1yDH+XwGNol5tl5WwqYthlhWrEeswxDrWg7uDqz1b17nkBV1IHegodI/dIVCVi7M6fXuCFdLsahBVMpS0BXQ8mCmLVWCAnsqhZmesRzsAZDYEWTLaR+VQWUN2aKTeWkuKoAx9995h7+x9S1WpJJnooTkLXEPVVO0FiISdgSHZud5qwJttcDoXP+qnVPM62v+NOed/OVj7kt8iZ1MnPtrtnDI1py4SomyPgcZyK4d7vNhMq+B+dPCCC9X0Ovi6MR9ABh0pzDZU+TkxWiRgbAIFaoeBhER0SIxYNB8u98I/+YtokT8IkgIINgsWw0MXLTdQHObfFKqIYIEc5Cvm9sMbN4uWyMMNLXIwEIUpVx2U7ta14U070k5cjioWxJkJ1jx3nqKjPsu69LEK2kQtkEFOiqVpQvJciqFmZ6xUtxPzVFDOeKSlUN3mkulIinTgtw55rXXt9rVCgLM4x6JpzBwuHItVK84m2pNW1ayU7oIZ2o8HKmOWkGAbGWR1+AQEuUTXasT/wXs4O9q0TL7zdhS5GRKnF1UBDL6JRER0XJgwKD5rv03wK49QHOrqPyL936fSjVq22Kg/WLZ6gAEAj41tF3kU+M2bRXBQquYNyCDDLESsayxYzfwlvebKz3vGuzYKainyKi7rAlXbr/FTFtpuE4salNRUUHzuslsppY401zqqXa3PSdvcdck7/qKSlWNu91myo1Xmot53KqLhapA119fNapjsUtW3qauQx2fqyXAos6ZFfgtROYwBlK1+wFU9te8huwpbBVe08yWB6tivthjd1MpQovp7Kyp8xytFXCYx2MyWwuqp5l5TZMtD1YgYV4nTmbLxPKSQZDsO2RLObKTn0M+UYmIiJYZAwbNt/fdMF77DvgueQ18be1ihA+GIQKEJqC1wwwaWkWAIIdN8vVFhppm/UabXEYuC7EO/9XvNkdeAFbHTkfDQSah38tcbFtKSy4rqh/LRN8FHRi0p8xUtqcq/0Pp8vZyycGqKUmOirmq/AygfOM7l8Rg3TymEGL9Mu2q8hhRSVYezfceaS7lMjJVKrj11qelROVQv5TM47XNI9ZvzxyxVB77Kajjs3XEXgYqjUl15q5UMDOJah3AK2VS7RrKJM3zWG2aOpe2loBGj91Kk6vOrBjHFvIsVRt5F151/C0HWDIdzpWGp/rdWNuodp7FMkm5RPVrIJPoEYGn1X9GB1O2z5earl/bLTh1S5WftZ/u4CWDhL1wq30OxXGqw5DzdtrSDMV67amJ1Z5uRUREJDFgsHTsgO+dvwW8fR9w+Rvgb2mGP+CHIYrI7/epQGHrNSU1tIqAQY6T02QqUkDMi8uugiGW9b37d9S6LhhRYTionj+v85tV2lFYV+ZEpcbq8CkH9dSXhT2RqJZIv61DqRq6kO2upEKVO9mKYRD9rpQkq1JmSwcSx3JAdti2jkU+UMidflGN2JZqIVCPfDWHrmy3eZxeaS4iOMnYykw97clqXqm1PjXdfHynI8VLHa/12FkxpLvNJwO5xEe6kdbr7FRP6Fna+ZjXfyUrU9Cc65R3xO3HIvuayKcelVuT5DWkngRVmacnq1s9qkzrSsYwam/5aODYK09q8nisqszFd/9WRA3uPiaJsEx9s9+FlxV6Vx8b9/Uv9tv6oTtzni5xrejknnnTXNeIYHaCrlz/6W532l2Va9yD43hUwGftp1jHAXUx6ulpdLs+E7JvinqCk7W8OE7rMIiIiBbDVyqVjGKxiLl8HjMzM5iankXBCKDz8gb/Ui/ByTMz+tXy2L61Vb9apFIJxtwUfLkxlH40Aox+Db7ZSZQ2i+DgYh98O8R0+cTV0+L1K+LfswaMQAt8XR+A75dFpeuy10N1eFD5SbQaybuosjK5kNSolWE+utRRUSdNtgaIYFNUfFk2a9v4+Lh+tTwKRot+RUS0vjQF/ejY3KzfrYzxibM4PTGFtiYDbW1taG1tRTAYhF/2w62DNVs72Wm5dTOMXXvgf8c++N77+8Cb3gz/qzbBv9Mw+yrIQTYgdIrA4Jq98P26mOdXfssMFlpkKhOLdPVaWpoLnSeyFWi9/wI3ERHRGsIWBi+lIowzx4HjaeCVB0VY9jMYky+rSb7Nu4CtbxYblH0ergO27ITq0EDUMLYw0PrHFgYiosas9hYGBgxeVO6RD8ifhXH8hzCyD8B/UgQPYnRpexd8V/w6fLu6xBm+qDIvERGVMWAgImoMU5LWGBE9wcjPwSjkVSsDmjbDF74B/jd+EsbuD8Po/DD8b+gX495jBgvyh9yKBXMZsSwRERER0XrCgMHFFwjA19SsBvgDeqzQfhl8MlAQAy7q1CMFGZUFm8xlxLJEREREROsJAwYiIiIiIvLEgIGIiIiIiDwxYCAiIiIiIk8MGIiIiIiIyBMDBiIiIiIi8sSAgYiIiIiIPDFgICIiIiIiTwwYiIiIiIjIEwMGIiIiIiLyxICBiIiIiIg8MWAgIiIiIiJPDBiIiIiIiMgTAwYiIiIiIvLEgIGIiIiIiDwxYCAiIiIiIk8MGIiIiIiIyBMDBiIiIiIi8sSAgYiIiIiIPDFgICIiIiIiTwwYiIiIiIjIEwMGIiIiIiLyxICBiIiIiIg8MWAgIiIiIiJPDBiIiIiIiMgTAwYiIiIiIvLEgIGIiIiIiDwxYCAiIiIiIk8MGIiIiIiIyBMDBiIiIiIi8sSAwWXu2adx7oEkph78FozpKT1WKBXExAlzKOX1SKGQx/S/fgdTD3wd+Wef0iOJiIiIiNYHBgx2hoH8zx/Hufv/D6a//wCM2Rk9QfAHgeYOc/A36ZFikUIBM+nv4ty3v4a5Z54QqzD0FCIiIiKitY8Bg03xzCkUnj+K4tOPYU4EDoWTJ2Dk5/TUKooFFE+fVIFC4anHUPyFWPZUTk8kIiIiIlr7GDDYFF/4BYyXX4B/6ixw5iQKLzxvpiXJVgN7y4F+X5qZQSE7pub1n5sQyx5D8dhzeiYiIiIiorWPAYNFBACzTx9BSQQJTT6guZBH4alHUJo4o2eYzzg7gbnHHkbT7IxapvRyFrNPPeoMLhYpk+hEZ6drSGRs0xIw3+WQ7OtEX/ICtGzkkujT+6Z3be3JJNDZlxSluLrJc35BzvF5ZV7L86778rXuIs9dI/OtErlkX/kz7LTA4yYiIjrPGDBopcnTyD/zOKZfOobZkgGjWMLs4z9VaUqKT0QEFv26ODEu5smgNDeLObHM9AtZzD31uBjvHWQsRHR4FGNjY5WhP6LGR/rl+36Y7y6UDBJdA4iMmPumd20JzErT+Q08xDYTQ4j3xxDSYzasVRQ4xfU1ZQ2jwxn0iAq0/dpQle8eYMQxH5A9bwew0Os1g8MDwHCv9welkeMmIiK6EBgwaDOPZGC8mIVvZgZF+DBXKCD//FGcHfkSzvzNX2D8f/yl+FcP6vVf4Ow//r16MtLc3BwKYhlMTwMviIDjZz/Ra13vogiH9cu1KJdGMhVH94WNvKiOUOwgxkbiGOqptKqlkykRUPc6guZQrB+x1Rr5ZdIYisbQvYD9m3/cREREFwYDBs048hACZ1+G31+EISr/xZKB4uQE8j9NY+6fv4G573wdefGvHORrNe7HD4l5xlEsltQyAV8BwekcSo//i17rylB3V2vdDbalCsnBmcriSn9YzF1ltf4eDCGFgS65nkqFxplK5arouFJIyvul1teFgRRE5UhO64OcVPU4HXfCzWPpS2b0MZnLKa5tVbtLm0snkYp360rn4tel9tNjunua81xkkFDzm/96luMCbjE7t2c7BsHr3KjxPUNAagBd5e1Z+2bOY3LdVVflItbjuN6c21w2kV4MR4eQVtsOISxOWiqbVZM8uT4HjnJ0T3NcZ3WO3eN6rSWTHkI01r3wlizHcUvWtaIHx066pi3ms01ERFQFAwYtkB1FS+A0WtoNBJsNwFcSUYQIBCbOwJBPS3rluBheVgPkazlu/IyaBygh0FRC82YDzc2TCL54AVsYZGWmK4nYqJXaMILIQFe58pNJiIpOZKSc9jASM8cvSCiGg2K9cUQxrLZjpkfJimcPKutWKRW2SksmbUshkfkjA4NmRUutb1RUjKy0jIMLulOcGkgAB2zLyYqsPV1FbCvT467UVU8RWei6ZAW9ayDimG41usjy6ErGMGpN0+fC3RdhqCeNbjXdVo6Z4cpy3WnI+nxdYl8d+2I7ubXOjUpxG4nLHDhzmwvKLxtCz6AsMmubERFErkTQYAYJGZ1zFOkdRnSox7tSrD4HlZS5MXl9VU4MOh2fEfE5iIhgqdEK9kKvV7EviaE4+hfV/GE/bhm09CBTTlW0HZMKFuzTFvnZJiIiqoIBg9Y08Qxa2iaxeVcJm3cU0dRqqL7LMtUoL/6dFf9WBohxPjHNjBeCLRDLiOV2FdG6+Ryazz6r1rlUKVG5LN8tFIPzjmd1GVULPmCrwETQK2o2Q5VblIja8ogisWXK39eVohFbZVOmiMRTSaR1LSzSb+t3EepGLJpCvZvEDYnbU1FEpUr2SxixbyuG/ngKSWtHJK8UkQWtSwcdo87pMflGlYcIqA7YyzeCflExTyXTjoqpI7Wm2nKRfsj6fEOi4XLAIk6ueSwNnJvFc++rvCPuKutlVG5VsCrtsLeKVJifg1Fb35oQYuaJUec06viMyCIWAfCylMd8zpasxbG3pkTC1o5bxyRPcQJD8REctB3Usn22iYhow2PAYGlqh+ELIhA00NZRwtbLDLRvM+Dzl1AqiajANchxPp+BTWKerZeVsGmLIZYV6xHrMMS6loO703P9G785ZEW9yR1odMnciUxWVVIj3aLCqqa70oXmqZaWUYOo0KTk3Wbbdjt12lKlrmOmdZjTzJSO5WAPgMSOIFtOFakMKuPGVunyShFZ0Lpk0CGqgeX6m50qjyrTxPqjKbFe/VaqVAAFr+XsRABQNZ0m0i0qvWYF2nHe1DrrnZvFcu+reUfcS9U0swVwnh9RYT4oPxuisi9bG8rXdAbi9DrLtcw8p/OniUBruQJYB7O/RXyJHWXM4w6hOyaCf3k9OspQ9+lwlA0REdHyYcCg+Xa/Ef7NW0SJ+EWQEECwWbYaGLhou4HmNvmkVEMECeYgXze3Gdi8XbZGGGhqkYGFKEq57KZ2ta4Lad7TleRwUN9tjPSr99YTWBaSH19fvJIOYxtUoKMquV1IxmzpFFFzqZXgfuKMGsoRl6xQNp4iUnNd9jv6brWm1VJvOXV33bYv1rkVlfd++V6lTcmgwB4U1jg3a0KtIEAet7yehpAo50LV6pB/Hjvry471GEaNhyPV4Txu1RFanDeVQiU+v/b0tuplQ0REtHQMGDTftf8G2LUHaG4VlX/x3u9TqUZtWwy0XyxbHYBAwKeGtot8atymrSJYaBXzBmSQIVYiljV27Abe8n5zpeddg51BBbPiIe/MJjzyzc3KZ8MVSlEDi4rKjddjLc20DGfKRD2hKreqc7IJpSZ5p1hUs2o8X9NM32gkRaTOuuQxe6WxeE2Td/trBQRVlzNbjhqmA4qRuK5A1zk31ZnH7mTena/N3Fevyqu67soBTuPUOYvWqnjbWzbkvnulRXlNk8dmBRKLPfb5VGrUYjo7a17HrfqdqH5Ah8WZNY/dnnZIRES0nBgwaL6974bx2nfAd8lr4GtrFyN8MAwRIDQBrR1m0NAqAgQ5bJKvLzLUNOs32uQyclmIdfivfrc58gKwOoM6Gg4yCf1e5m/bUhlyWVHZWCY6t39g0JkqYW1PVf6H0uXt5ZKDVVOSHJVzVXkewOHKQhism8cUQqxfpl3pDtWarHiZ7xeSIlJnXdWOWexjUu5v1fLIINFT53cfdN+OgfJBy1VWLyu3yjFKtiCjzrkpc6RK6UqobZ5MQqYxuQ2hx3axqX1d0h31+VTncdmZuxxoyNQ2V0qd6qcRFXVzOUe18yaWMU9M1XOqjq3cf6XRYxfja0ZhsnXA2qeFm3/c4vqxf7BVqpmp2uc+k9T7Lzt5u5+KVZ5xgamHRES0ITFgsHTsgO+dvwW8fR9w+Rvgb2mGP+CHIYrI7/epQGHrNSU1tIqAQY6T02QqUkDMi8uugiGW9b37d9S6Lhh5d1k9u12mpOghEdYVOFERsjqJykE9KWZhTySqJdJv64Sqhi5ku3VlR3XcreTRD6LflZJkVeRk/wr9lB1xLAdkh23rWOTTeBrp/Su2pW6+qke+mkNXVlTE5Y4sNEWk1rrU5Ep6iJouylQUcvVp5uOW6rTaiHI4KMoxI3PyzeUGcaChTs8hsd3KfprpX1aLTs1zI+nHd9rT1MyOwJVl0t3V0sjiGOlO63W6K7iL4+4zkgjLNDZbx3Kx9nDE1SfDfS3L1Dv1xCZrHlEelRPjmqafIGU7MfWPvcr16ib7uDg60ddW/7jDCNuuC/Ny0tPl576cimYOPdnwks4DERGRxVcqlYxisYi5fB4zMzOYmp5FwQig8/KV/1Nz8syMfrU8tm9t1a8WqVSCMTcFX24MpR+NAKNfg292EqXNIji42AffDjFdPnH1tHj9ivj3rAEj0AJf1wfg+2Xx1/uy10N1eFD5SbQaybursiK2kNQo8lB+5Ky9Uksm2QoigjIRNK6dfiLLb3x8XL9aHgWjRb8iIlpfmoJ+dGxu1u9WxvjEWZyemEJbk4G2tja0trYiGAzCL/vh1sGarZ3stNy6GcauPfC/Yx987/194E1vhv9Vm+DfaZh9FeQgGxA6RWBwzV74fl3M8yu/ZQYLLTKViUW6ei0tRYSoYbIli78iTkRE6wRbGLyUijDOHAeOp4FXHhRh2c9gTL6sJvk27wK2vllsUPZ5uA7YshOqQwPRRsIWBqqDLQxERI1Z7S0MDBi8qNwjH5A/C+P4D2FkH4D/pAgexOjS9i74rvh1+HZ1iTN8UWVeIiIqY8BARNQYpiStMSJ6gpGfg1HIq1YGNG2GL3wD/G/8JIzdH4bR+WH439Avxr3HDBbkD7kVC+YyYlkiIiIiovWEAYOLLxCAr6lZDfAH9Fih/TL4ZKAgBlzUqUcKMioLNpnLiGWJiIiIiNYTBgxEREREROSJAQMREREREXliwEBERERERJ4YMBARERERkScGDERERERE5IkBAxEREREReWLAQEREREREnqoGDPzNYiIiIiKi9cMwDP1q4djCQEREREREnhgwEBERERGRJwYMRERERETkiQEDERERERF5YsBARERERESeGDAQEREREZEnBgxEREREROSJAQMREREREXliwEBERERERJ4YMBARERERkScGDERERERE5IkBAxEREREReWLAQEREREREnhgwEBERERGRJwYMRERERETkiQEDERERERF5YsBARERERESeGDAQEREREZEnBgxEREREROSJAQMREREREXliwEBERERERJ58pVLJKBaLmMvnMTMzg6npWRSNAHZfHtKzrJyTZ2b0q+WxfWurfrVwJcPAmXNnceSl5/HYC88jeyqHfLEAiPGGni7KCn6fDwG/GWfJ8VJTIICdW7bhqkt/CXtCl2D75g5s3dSupxIRbUzj4+P61fIoGC36FRHR+tIU9KNjc7N+tzLOjE/izOQ02poMtLW1obW1FcFgEH5dr62FLQza+NQ5/OQXP8fPXhhD7twECiKIkgoiSDBEsNAcCKK9pVUFC3JcoVRUAYQkg4nxmWn8/MSLePr4C2p+IiIiIqL1gAGD9mj2OTydewnHJ85genZGBAEiKBBBw7b2zbjy0ivw1s7X4I3hV+ENl3fi8m3b0dHWjpYmEQmK2GCuUFDLHJ88g6dF0PCoCDqIiIiIiNYDBgzaI9kxnDo3iYKo/MsULdl60BpsQuf2XXh16BJcsmUbQhd1iKChUwQNu7EndCnC23bgkq0Xq/kMMX++kMeZ6XMq+CAiIiIiWg8YMGgvnTmJqakpFSyYKUcl7Nl5KV53yeV45ewEUo89jB+P/VylJL121+V48y+9Gr/86tcjenUErxbzBf0BFPIFzMzOinWd0mtdBpkEOjs7HUMiY07KJfvQ2ZdEzny7zHJI9jm3a9929el9SFo7U2W/y8OK7TMRERERLTcGDFqhKIIEo6RSkbZtasd7rnozom94C16ZnFAtD6+/JCyCg7fg2dzL+M6Rn+Kbj4zi248/jFERRLyl8zUIX7xDdRrJFwpiMPs/LFUmISrXPcDI2BjGrGF0GMguV3XbrPRXggAtl0RfZxeSsdHKduUwEkfGte34iH16BANdOmiI9DuWQ3RYlJV+fzCGle9ST0RERETLgQGDTVEEDaHNW3DVpVeo9KOJmWmcm5tBR+smdLRtwpMvZXFudgbb2i/C1Zd3qr4NU2L61NwsLhbjOlrbUCwtT7AgWw96MrKS3Y+IHqeEYuiPrWR1O4NE1wAiIhA46N6OCALmjbMT00fiKSTTbD8gIiIiWi8YMGjy4al+v08EClvUY1GfPfESXpkcVx2fW5ua0NbcAp9P1Nc7tqK1uVm1RMj5L9+6A1va2rGppQUBf0A/IWmpT0nK4PBACvH+Bu/E29N/3Ok+rtSgPitnSLciiM1gqEdOM1sGcskEhqLD6HVEKQuTymb1KyIiIiJa6xgwaLKiL/shtLe2qtSiJ18+htlCXv3uAiAHoDnYpF7Jfg6yc7P83YZ2EUjIoVk9x9acb8lyWREyxNHdSKU9NYCudLdO/xlBXLwfLHckEPFC2pbSJNOZBgbNlKFQDAfHRjEctdKKDkI2HmSzKURj3YtMGcohmwGi4bB+T0RERERrHQMGTf6WgmobEP9nlAwRGPjVa9myEAwEcPrcJH703FP45qM/VvO9JnQptra14ydjP8dPn38WTf4gtrRuKq9rSbJZpKJhNFbtjmOk34osIugVEUAqmS63MkT6bSlNoW7Eoim5eg9mhT8StocLrs7N8zo8VOSSgxhIxVc4ZYqIiIiIzicGDJpsSZjN53Hq7KT6Uba37t6Dx7JjkL/2vKP9IlzU2qY6NLcEmzA9N6uenCQDg2tf9To88eIxFEslbN20Ga1NZrrSkqWyaCixp25gYa/wmylI9Tg7NocQO2i2UIzK5ggXM53JHLqSsfl9LoiIiIhoTWPAoMmAQSYUTc5MYSY/izde8Sr1mwszIogYO3kCsyJYuOGqN+Mtu1+jOj3L4EEGDk2BgAgwCuV1SD7976KFw4gis/SHIc172pGZguQthO5YdEF9EBxPSeLTj4iIiIjWHQYMNjKRSLYUzBWKmCsWMFPIq5aFzWKQv7/QFAiqvg4yMFDzGiWVriR/l0GOOzs7g4JYzu9bYrHKJyHFUxg47J3+04hcOolUfKT2k41cQt0xRIcSld9TICIiIqINjQGDRbYwiEGmGclWhTNT5/DC6ZMqQJC/5CyflvTS+CnVEXo6P6dSlWRgIJ+Q1LljFyZnplWakvzBtyW3MAiR/hHEh3rmP/Uol0Siwdp8KBwBhtKwwg6zj4F+Y+NIQRLBygHZN7qryu8zEBEREdGGw4BBM5+S5MfE9BRyk2dUy8KmlmY88sIYfvjsUyJ4eAUtTU140xWvwpwIGk6fO6uemrSzY6ta5siLz+P4+GkEdSvE0kXQPzaGkcgAuqwOx3LoyqK70RaD/397dwIfV1XwffyfZZJMm6VZuiQpRCgpS1OWUqCvQBUoFqjg4+MCjygPFcFHEXhoVSgooiLCq62g4oIKKC6oKK8o2GqhGFQCdoMGgRZoQ9skbZM06aRNZpLMvPfcuZNMSm6aSWcyk+T3/Xyuc+bOdnNmqOd/zzn32Osi3K33O6+9VZ86aEjSZF38qZv0l+tOsx7vW6V58sX321dU2hA1P8Fsp113StQEawAAAIwHacFgMGQuExro6lJnZ6cOdPjVE8pQRXniR6M3t3Y6pfgonpTjlGJ3y6MP2sOMzITnLKvRX1E8VadUzLB7HMz9idk59qJsT7/yolra92lm6XS9w3rOll312rRjm/26yBwG4xuXfsIpAcD41NbW5pTiozuU7ZQAYGzxZKYrPzfLuZcYrW0+tfo65PWE5PV6lZOTo0x7WYBD9x/Qw+AoySvQhByv3UNg5jHUNe/Sc6+/ohffelOvNmzXtqZd6rKClVnd+Z2Vs1Q0Md96zm77MTNcKXoQkpnvAAAAAIwFtGwdJ5QdaYWAPCvheZSWkW7PVdjesscOCq817tBL27dq41tvqLl9n1r2+6z9jdq8a6cOBPx2QIhOZ0NJagAAAMBoQMvWMXPadB1VPEXFuXnyZuXYPQ1m8rKZr+DrOGBPeK7dWWcPP1pf97pea9hhhwcTFsySb2begnm+2TIO9ypJAAAAQIqgZeswvQvzZhynOUfO0JTcfHsCtGn8m94Cc+lUcz8YDGq/v9MemmT2Z2V4eq+IZIKDeZ5Z2M2sDg0AAACMBUx6BgAkBJOeAWBomPQMAAAAYNQiMAAAAABwRWAAAAAA4IrAAAAAAMAVgQEAAACAKwIDAAAAAFcEBgAAAACuCAwAAAAAXBEYAAAAALgiMAAAAABwRWAAAAAA4IrAAAAAAMAVgQEAAACAKwIDAAAAAFcEBgAAAACuxlRgCAZDTgkAAABAPIypwNDdE3RKAAAAAOJhTAWGQBeBAQAAAIinMRUY/IEehiUBQJLx7zAAjC1jbtLzgc4upwQASIYDnd1OCQAwFoy5wOAPhNTp73HuAQBGkvn31/T2AgDGjjEXGKSQ9nd2ERoAYISZf3f3d9DLCwBjzRgMDJaQ7NDQfiDAWFoASDDz72z7gS7CAgCMUWMzMBhWTvAHgmr1+e3/IwswIRoA4sb8exro6rH/fd27z88wJAAYw9KC1r/6PT091j/8Xers7NSBDr96QhmqKJ/sPCVxmls7nRIAAAAwPnky05Wfm+XcS4zWNp9afR3yekLyer3KyclRZmam0tMP3X8wdnsYAAAAABw2AgMAAAAAVwQGAAAAAK4IDAAAAABcERgAAAAAuCIwAAAAAHBFYAAAAADgisAAAAAAwBWBAQAAAIArAgMAAAAAVwQGAAAAAK4IDAAAAABcERgAAAAAuCIwAAAAAHBFYAAAAADgisAAAAAAwBWBAQAAAIArAgMAAAAAVwQGAAAAAK7SgsFgqKenR4GuLnV2dupAh189oQxVlE92npI4za2dTik+GtqznBIAAACQOKW5Aad0+DyZ6crPTWw7trXNp1Zfh7yekLxer3JycpSZman09EP3H9DDAAAAAMDVmOphAAAAAEYbehgAAAAAjFoEBgAAAACuCAwAAAAAXBEYAAAAALgiMAAAAABwRWAAAAAA4IrAAAAAAMAVgQEAAACAKwIDAAAAAFcEBgAAAACuCAwAAAAAXKUFg8FQT0+PAl1d6uzs1IEOv3pCGaoon+w8JXGaWzudUnLtbWlWYVGxcw8AAACj0YZtnXp+8wFtqutU7fZObdvd5TwydLk56TpherZmH5mjqoocnTc7VwUTEnuO3ZOZrvzcLOdeYrS2+dTq65DXE5LX61VOTo4yMzOVnn7ov23cBoYu6+9tb/epsLBI96y4W2/VbdV7L/lPvfucBUOqOAAAAKSG/f6gvvybXfr1P/Y5e+JnakGmViwu1VnHTXD2xF+qB4Zx2TI2YeGeFXepsaHevp+bm6tduxr1kx99T1+5fZna2lrt/QAAAEht697s0MKvbktIWDB2tXXr8nu2W4Fkt/zdIWfv+DLuAoMJC/euuFsbN6xz9kifuOZaLf3cLZp+xJHasvk1fekLn9eePbudR8e4l+7XqScfpwdfcu4fjni+F1Ib3zUAIAW8uiOgS5dv1/am2IceGZWl2Xr81hlqf+Skt21v/bhKn1xY4jxTeuDpvfrUD3c698aXcRUYImFhw4a1zp4+c049XV+54xs6/vhZdlhY8Y07FQrFJ0U2rbzWblz1bddqVZN5ZI9W3Xiclq7cYz9vIOHXRp6fACdeo3Wrl6t27UZnx2GI6b3Cf/upJ9+vTc6exNqoBxPcwLW/qxufUKK+KlvTE1pq/R2D/WaGL4Y6iufvBgCAYQh0h3TDgzvV1TO89tqiufn6250zde7sXGdPf0W5GVq+uFyPfPYo5XnDTeanNu3X91a22OXxZNwEBjNP4zv3fnPAsGDmbhjZ2dm6YclNys8v0FtvbVP135629w9fuFG8cNVFWrXxVa2LbD87SfXh0VCHVHLBfdZr7lNUwI0zq5G4YKlUVu7cPxxDf6+mlberfrFVF6vL9VDcG9nheh8NZ7/tkPHAUBvdVv1+TVpm/YaurD/7MP++w62jeP5uAACI3fI/NunVnQHnXmyOmpqlB66rUL4TBAbzXitY3HPVdOee9M3H96ilPejcGx/GZGAIBAJ65d+1/bZ7v/V/tW7t884z+jNzF154/p92OS8vXx++7KN2+Xe//ZWCweH/IDY9cLZumf2I1n1rkfq190+8RotPdMpJd7IWWw3Q5RfEY5L7UN9rjxrKbg/XQckiLb/19PBuDM5q3M91fkuzP/6qLi5LRC/DUMXzdwMAQGyCIemBp/Y692L37auP0MTsoTeDLz2rUB/4P5Psco/VNHzk7+NrvuuYDAxm0vIdX/lCv80tLBhmqNJ931mh+p077Pvz33WucnPz1NzcpG3b3rT3xazpCT307fN05yUnOzsGt+mBviFL/Yab2GPFo4ftRIbyRLZDDOlxxppHtn5nlAd7bCDOcJje1/SeGY/xmJpe0ENXnN33/Md39gWqyN8bfWz25/T/DNdjtY/RCmprpO9eYZ578HCuQd7H9e8zIsN1hnAc0cfu2nsSfp+FNz9l/at1mf3c8Pce3r905Ubnc6KP/wVdGXlfa/tjfaSxHnnNHvffUbTDqSMj1t8NAABx9sqOTntI0nDMrvDqnKqBhyEN5jOL+k6S/fa5Nqc0PoybIUmH0t3drSeffNwuZ2RkaOaxx9vlN17fbN/GrH6nnjnnIp06hKFEz9x8ttbOjQxXWmLdv919zoLV2K5f+Gzv8KaHrl+hK92GtJiG4RUv6s7VznuvXq4y5yG70XeF9JDzPvZ49CsGmSth3mvBUlX9zHn+xmd1Z+TNYjkmS9PanXpP5Jg2PqLPWA3m/o1O6/VrTw8/bh3Xu+0G9dnhIUzWvlV3nWc1dF1CiemxMMd2jvUftn2s/YdzffeK26VbB36fQx/X4K+3rVmqhZFjN+9h3f/6gA33yVr4rfB76PpH7OdHn61/5uYfOZ/jHP8Qvq8h/44Oo45i/t0AAJAAz20+4JRid3rl8C6Petoxfa97c9fwhkKNVgSGKGboUkRZeXhsdmNDg30bq6b6F60IW95/KJIbq8HYO0TpxPdbDbmn9Je1LmeHrcbe4qiG5ey5S6RNOweZA3CSyiIHYb12of05e7TqwRVWY/EazbYfsFiPXXm9++duenypdNezUUOprAbvBU7vSYzHVHLBNVEN1JM193qptj76c5fooY/3vfeV1uPRdVRywdX6jF5U/TAaqe++6/bezw6/zwqtdULBoY9roNcffBxRx269x8VWg/uZVS/EPkfj+qujjmWI39cAv6OhzpWJ5l5Hsf9uAABIhI1bh7+W1+mVE50ShorAEC3qqkiZGZn2rZksPWyDNuT7vDvWiaPRQ0KuWOHsHEDJ6XrPOSvsYSz9h6fsVH3vcJS+7cpvS8/UD3S5sI1aaz1WVdYXCt5mqMfkiB46Yz73UGKuIxeD/g2WQx3X219/UKP8nHKVOsXD0f/vHdr3NVAdHRx4hsK9jmL93QAAkHqyPWlOCUNFYIhy7HEnOCX1rsNQWFRk38aqpOwkac1ODa9/wp3doI0eEvKzJc4jAwkPezFDY6puNnMG+g8dCQ9HOWjrPTt+sPNU1jueqb/Yjik8F+BKhYfhmO0h04OQdKl6XH1i+74SJ1WOAwAwfp0wPccpxe6lug6nhKEiMDjM0tgXLXqfXTZXRvq3MzzpmGNm2rcxs4eErNBDbhNPh8Wc6T9Pd66OGhIyJOEr2qy6S7rlcTO3oFxl58Ry9tk8323YSYzH9NIL+u45y7Uq1RqYqXpctli/r0RJleMAAIx3J0zPdkqxe2nb8ALDv14f/ryJ0W5MBoaCgkn6wm139NtOnXuG8+jbeTweXXvdEnulZ6Pmn3/X3pZm+32iex1iM1kLb10umTP7B08Afun+YV5Z5uCG+0Y9ONjwn4M+p6H+KadkHdvit0+KbVp5v8vk1YGev0erVkbCRwzHVFaud695Uusi72Md41CGJA1HTA3bETyutznk0LVYv6+hi63xn7jjAAAgFiccMfzA8Lfadr2wJfbG/4//2uyUpP9dVOyUxocxGRiysrJ0/AlV/bYbbvy8a2i46upP6/Qz3mmX9+1r0y9+8ZBdPn/hRXbPw7CVOFej2RS+bGbv9mC5Lu6dPByLqBBiv9cLmjvY8B+rEVwbNd7cHm4TOYN+4jXhHocFfY8vrD89aqLtQczKvj87Ker5Z+svVliI+ZisOlkW/blrT0/A0J9Iw/btw7BcjchxvZ09qdhcWcn6TNfLoBqxfl+HNIw6MuJ+HAAAxG5KQaY+MC/fuRcbszL0x79Tp/3+oa+19eg/W/WLv/Wt8PzhM8NrMowXacFgMGQm9ga6uuwVjw90+NUTylBF+eCTQ+OhuXX4M9yHw6y3cO+Ku3tXezY9DyZMRPj9fn3j7q/aV0sqK5+uO+/6lt37AAAAgNRyIBDUe76yTdubupw9sblqQbHu/UTfCs5uXtzaofNu26LOrvDFcf5nYZGWvT++7WRPZrryc7Oce4nR2uZTq69DXk9IXq9XOTk59onx9PRD9x+MqzkMpvF/w5KbdMopc509fczCbl+89bN2WJg4MVdLPnsLYQEAACBFTchK17evKpMnY3hXPfrJ6mYd/cmX9dRLPmdPf+2dQV357TqduWxzb1h416wJuuk/En9SPdWMqx6GCNPT8K3lX9fFl/yn3cPw4/vv05qn/2o/NmlSoRUWlmnGcCc7AwAAYMRs2Napz/yoXjuah9fTYJQVeTTryBwdX56jJl+3/r29094iq0mnW5nk6gVFWvq+EmVnxv+yrKnewzAuA4NhQsP+/e12QLhnxd1a+68azX/XufrQpZersHB4l1IFAADAyDPDk+76/R799JlWZ0/8TC/26LtXl+mUdwz/Uq6HQmAYRDIDQ7TaTS+qvHy6CovG14x3AACAsaTZ16OaLQf0/GZrs25f3RlwHhm6ggnpmjvDq3kzJ+q0Sq9OPDJHGQkexE9gGESqBAYAAAAgWZj0DAAAAGDUIjAAAAAAcEVgAAAAAOCKwAAAAADAFYEBAAAAgCsCAwAAAABXBAYAAAAArggMAAAAAFwRGAAAAAC4IjAAAAAAcEVgAAAAAOCKwAAAAADAFYEBAAAASKLMjNRukhMYAAAAgCTKzExzSqkpqYEhy0NeAQAAwPiWQQ+Du+ysTKcEAAAAjD9mOFJGOj0MrkwPQ2ZGalcQAAAAkCh5Ez1OKXUlvf8jb2KW0sgMAAAAGGcm5GQqPcV7F4ykBwZTSbkTUj9ZAQAAAPGSkZEmrxUYRoOUmGGR5clQYUGOPJkpcTgAAABAwkz0ejQpL9u5l/pSpoVuemPyc7M0kd4GAAAAjEHm5HhhfrZysjOcPaNDWjAYDPX09CjQ1aXOzk4d6PCrJ5ShivLJzlOSoycYUk+PtQWDCoWcnQAAAMAoYWYnmOH35ipI6Rnp9gnyZGlt86nV1yGvJySv16ucnBxlZpo5FIfuP0jZwAAAAAAgPg4nMDBpAAAAAIArAgMAAAAAVwQGAAAAAK4IDAAAAABcERgAAAAAuCIwAAAAAHBFYAAAAADgisAAAAAAwBWBAQAAAIArAgMAAAAAVwQGAAAAAK4IDAAAAABcERgAAAAAuCIwAAAAAHBFYAAAAADgisAAAAAAwBWBAQAAAIArAgMAAAAAVwQGAAAAAK4IDAAAAABcERgAAAAAuCIwAAAAAHBFYAAAAADgisAAAAAAwFVaMBgM9fT0KNDVpc7OTh3o8KsnlKGK8snOUwAAAICha/L1aNX6fXr5rQ7t2det3W3hbc++LjXu7XaeNbrke9M1ZZJHk/MzNbkgU1Os7YiSLM2flavTjpngPCt1tbb51OrrkNcTktfrVU5OjjIzM5Wefuj+AwIDAAAADkswJL2wZb/+utGnv2zcpw1vdjiPjA/FeRlacFK+teXp/JPzVWLdTzUEBgAAACTFb/7Rqi/9ql7bm7qcPf2ZM/FTJmVq2iSPplrbNKuclZnmPDp6tLT3aFdruIdkV5u57VJHwEpKA/j4ecW67bLSlAoOBAYAAACMqE11nbruR9u19vUDzp4wc7b9wlML9N65BTr/pDxle0ZfOBiqzfV+/elfbfqjtf3roHrI86brc/8xVddeNDkl6oDAAAAAgBHRsLdLtz/SqF/8rcXZE3bVgmJ96MxCnXX8RGfP+GLmajz6z1Z97897tHVXwNkrTS/26Pb/KtVlZxU6e5KDwAAAAMYtqy1jt2G6rLaMadNENrN/NDINuIyMjN7N4/HYjbuhNOwS7e+v7NcH735T7Z3huk1Pky47u1Bf/HCpjijx2PsiunskX2dInV1SV0/I2qzbbmv/6PxalGlVvyfT2jLMlqYc68/Ny0lT5kGjjnqsv+9X1S2683e79NaevuDw/nkFevC6d7zt+SOFwAAAAMaVQCBgt1vM1t09Oq+6EyvTuDONPNPYMyFipD1W06bF39lmBwHDNIBvv6xMM6ZlhXdYDljt430dITso+Aee0jDmZDvBocCbJm9fVdgh6aGnW3T37xt7rwxlel8evelo5eaMfPgjMAAAgHHB9CK0tbXZgWE8M429vLy8EQsOK/6wW7f9qsEumwnLD//vO7Robr593zC9CA2tQe33OzvGqbwcaUp+er/gYHpjTK+M6Z0xjp+eoz/ccrTKikY29BEYAADAmGbaKiYomLYK+phGX35+vt3wS5Rbf16ve/+0xy6bibyPLTta82aG5ykEuqXGtqD2ja+rqB5SvleaVpBuhStnh+W/763T755rtcvmylF//XJlv96ZRDucwDDy/SEAAAAxMCFh9+7dhIUBmDrZs2eP/P7EnNr/+TMtvWHBzFGovnNmb1gwIWHLLsLCQCJ10x71k/3pDRW64eLwCXmziN0H7n5Tvo7RMaGDwAAAAFLW/v371dLSolBo4OvdQ3bdNDc323UVT2tq2/U/P9hul8uLPVrz1ZmqLM227ze3h/RWc9D6bPsuBmDqZltT0K6riK9dXqYvfGiaXX69wa/LV2y1y6mOwAAAAFKSGYJkNgxNPOvrjcaAPrI83JjN8aTp8VtmaFpheHxNQ2vI3jA0B9fXzR+Yak8YN57e1K7PPbTTLqcyAgMAAEg5+/bti/sZ8/HA1Jmpu8Nhhslc/LU3eofL/PzGd+jY8nDPQmNbqN8ZcwyNqTNTdxE/+UyF5hzttcvfX9mknz7df02LVENgAAAAKcWMy29vb3fuIVam7jo6hj+xYNnDO3vXD/jKf5XqgjnhqyGZcflNPsLCcJm6a+sI15+50tTvl83Q1EnhXpsbfrJd9S2pex1aAgMAAEgZ5nKpZs4CDs/evXvtS9DGyoyr/9macP2fdswELXnfFLts1lfY3jJKV1xLITtawgvZGSV5Gfr+/xxpl83aFl/+daNdTkUEBgAAkBLMysyEhfgxdWkuRxuLL/2qQUGnE+HeT0y3b01jtq6JCc7xYOrQ1KVZ9dp4z8l5mn9Crl3+ZXWLtliBLRURGAAAQEpobW21QwPiI7J2xVC9uLVDf3gh/PwPvnOSTnxHeIz9zr1B9fC1xI0JC/VWnUZ8c3G50tLCYWLZw/XO3tRCYAAAAEnX3d3NOgsJYOp0qEOTljy4w77NzJDu+li5XfZbL/XxtcSdqdPI0KQTjsjRR99VZJdXrt+n515Lvcn+BAYAAJB0h3tlH7jz+XxOyd1rO/16fvMBu/yZi6b0XkLVrOKMxNgVVbdf+UipJmSHm+U/XNVk36YSAgMAAEgqM9GZ3oXEGUovw6qNfYHt0xeW2LdmojO9C4kT3cswOT9T7zs9vDbDXzakXngmMAAAgKQiLCTeoS6zGmmkmvUWyoo8dnmfcwlQJE7rgb46XnBSnn27ryPY29uTKggMAAAgqQgMiTdYHXcEQqp+ObzuxfknhddcMAgMidfe2VfHF54a7mEw/hLV45MKCAwAACBpzGRnsyGxTB27XYHqqZd8vZdSPf/k8Fluv/WVBPhaEs4MSep2vpZ8b7rmHjPBLhMYAAAAHH5/sq4771fD+if0xBN1GnRKsK9ONU9Ua/1IXB/f16Camhrrsw49SXk43IYlvbg1PPzFrD58trMmQPSZ77Fnr/5x78d1xZI79I9mZ1cSRffkvOfkcA/Pprrhr9SdCAQGAACQNMNZjXjI/M1qqF2vmmoTDMxWrZr1dYq5jZhnNaaznHIi5ZVq3ikV0vqWwUPMMLnVdWNruCthZlm2HRqMjoB9kzy19+mUM9+rG1fvcnZEaX5SN1qPnfLwJmdHrAp15g0P6PrKGj26YYD3H2EHorLorCNz7FuzWN6efanTxUNgAAAASRPrSsRD5atbr+rVNVpf1y4VVaqqqkpVlUXKClhN8Vg6C/IqNG/+fFUVZzs7EsmnutVbFKgqMhkl7tzqeldrOEgU54UvpWp0R8YojVFNq5fq6tWzdcmsqc6e5Imu66Lcvu9g114CAwAAQGICQ3OtNtQ2SBVztGDRfM2rmqmKigpVzKzSnHlVGpG2/7DkqcIcb0Ui4sJggSHcMC3Ky7BvDXOGeywrWbBcG373dZ1T6uxIoui6Lszt+w4anSCXCggMAAAgadwm4g6fT3Vb6uQrrtQpVaUaWjawXlNbreonnlB1da36TSHw1dnDmfrNYfA1WM+vsZ9vhjlVr9+sQ05xsF5Tuz78GU9UV2t9Xf+BUf6GzVpv7TefVV1Tq7oEjElyq+tIwzT67PZoCwwvPfxenXLmUq2MrtZ+w5q26/El5jl3a230d+V/Tt++2Np/x2pnx8iLruviqNDWuJfAAAAAEP/A4G9Xs9VoLC4tHeKwnga9vH6L9YJZmjWnQllWQFi/YfOg8xx8LVYgyavQrHnzNG9ehXLbt2j984O8xkycrl6v9qzK8GtmVVqfE+gdGeWrq9HqLS3KrZxlvd88Vea2q7a6Ju6hwa2udza/fUhST7xzXNIdobkLplu3z2rNy30TNPwvV+vxFo8WXzTf2TPyouu6tDC8Boaxu40hSQAAAEpPj3NTJBCwIoCZpDz0WcqllXNUUVpshYwqzaqyYoavUe2DNNbzKuapqqJUxcXWa4qt4FBZbFKE62v8AZ8dJnKtEBN+TamqIr0f/gZtqW1Wxax5mmmOwXq8tKpSldYrahsGiy2xc6vrSRPDZ7V9HX2nujNSpIX4zJeusnsJ+m2XfE/POI/HouzsD+pi6/aXz65zwlpAm559Vs3HXKiFc0ZiVvvAout67/6+7yAnK3Wa6alzJAAAYNyJe2CwWM13qyk4VKUqiuqKyMoylxU9xKl9v08NDZtVu75GNTXVWr3eNOzdG/fZVkAwmaLOem71+lo1NPeNifG3N9sBp64mciUns9Voi3mwva8XIh7c6npKQbhnIfqMdmbfyJikmnneefrs9Rf23z56rGY6j8ckb74u+ahH+k21NpmK9a/Tmt9Yn3HRfB0bfkZSRNd1ZD6JMXVSX49PshEYAABA0mRkxLllmperIuumua4xIZcmNZdqrX2+WlusVn5xRaVmnXKGFsw51MzZYs2ct0gL5lVax9ai9TWrVV3bEA4DgXC0qbQeX7TooM1633jOz87MHLgBmsqBoWz+R3T5pdf23z58nsqcx2OTpbkLLrTCRnhYkhmO9EtN1+Xzj3MeTw5Pv8DQN29h6qS+4UnJRmAAAABJE/fAYDXOS6uK7Sslvby5Oa5n6A1/S509t6CicqZKi4uVl51ttfnbnUcHZ3oaqubM13zr+Hx1dWq03ic7t9juEWlpTki86ce9hyHcMN3T1tdYzUwPr8cwWpSUHmX972vaVNfXt9TU+KZTilI5X5ccI616frXWPPWsdOEHk36lJE9GX11Hh7ZIkEsFBAYAAJA0Hk/8z6LmVZyiORV5at5So9XmikS1m1VnNdDrNteqpqZWUSOCYpbtzI2oq2tQc3OzmutqtaVh8PHv/oZarY88v7lBdWZuQl6ucs1QqLxpqrSPdYNqaqOeYx3z4RznQNzqeqAehgkpe+nZgZVVzLaHKf3yB1/Sb6vXac1jy3TzvQMEBh2ncy6druYnf6Rv/j/p4vmnJmTNi1jkRP186GEAAAA4iNfrdUrxlK3SqvlaMK9KFVZjrL1ui2pra1XX2K6s3GJlHU5juLhK86pKpZb1qnn5ZTVkVWiW+ZBBZFvJIKthixVWzJyHLWrPtd7jjCq7Z8Eca3HVGdZ7FoXf0zznZbMatfWaODfa3ep6dkV4f0t7jxqdxcLyvaOrh0GVH9FdXz5b72zepDuX3aFH3zpbt966wHmwP3vyc0uXmovO1iVnFDp7kye6rl/c2mHflhV5VDAhdZrpacFgMGQW8gh0damzs1MHOvzqCWWoonyy8xQAAIDE2b17t7q7+85uI/5M78LkyQO37fbs69ZR17xsl5cvLtcnF5bY5dd3BdWZOksBxI9vtW674B69dv039etLkzt/wWtlzRlT+oJB6eJN8nUEddWCYt37CXMZ2PhpbfOp1dchrydkh8ecnBx7XstQLjxADwMAAEgq03BBYg1Wx5PzM3XCEeHH/7x+n31r5OaMsl6GIWp6/s/6oybpkjnJDQtGXlQdP/fafjssGOefnG/fpgoCAwAASCoCQ+JlZw8+vun8k8Ij+f9W266OQMguj7phSYewteYPWvnYbbr53tc086M36oOVzgNJFB3KnlwXDmtmvvm5s83lfVMHgQEAACSVWWSN0JA4pm4PtZDdAueMdldPSKtfDDdcJ1gvyRtDX4tvy4+07JublL3g8/rWp06N6yVrh8PUranjiJVO786Zx+dqQnZqNdEJDAAAIOny81NrCMZYMpS6nX9CXyP1+39usm+NqQVjp6l44sf+pA3/eEz33TB/mOs4xNe0SX11+/dX9uuVHZ12OdLbk0oIDAAAIOnM5MsJEyY49xAvpk7dFmyLlmG1CK881yx5J1X/u733bHeOR5o0YWzOZUimoolpyo76Wv73x9vtW29Wmq44N3z9rFRCYAAAACkhLy/1zqyOdrH03Cz74DTlecNNw5sfrlcoPJVBUwvSRGSIH1OXpk4jfvXsXr26M7zoxpL3TVVJXoossx2FwAAAAFKCWfW5sDD518UfK0xdDuWSmRGFEzP0+fdPtcuvN/j14NPNdtljtV/Li4gM8WLq0vToGIHukL74y3q7bILC0vdNscuphsAAAABShrk+PPMZDp+pw+EsinfdoikqLQyvMPyFn9dr2+6AXTbDkqLPimN4TB1GD/H69A+29y6W99XLy5SVmZp1TGAAAAApJTc3VxMnTnTuIVam7kwdDkdmhmm4ltrlfR1Bvf/rb9q3xuS8NBXnEhqGy9SdqcOI769s0iN/32uXjyvP1sfeHZ5DkooIDAAAIOUUFBQwp2EYTJ2Zujscl51VqA+fOckub2nw6yPLt/bOZyidlKap+YSGWE2x6szUXYSZWH7TT3faZTNv5JdLj7LLqYrAAAAAUpJp/BYVFSktjQbqUJi6ilfIuv/TFTrr+HAvzzO17Vr2cHicvTHZavxWlKRb34uzA65MHZm6MoEhom5PQJd+Y6uCVggzPTqP3nS0ZpYle1WIwREYAABAyjKLjpWUlMQ0eXe8MZPFp0yZEtfF70xD9tefO1rHlocbst99co++/rtddtkwi47NmJKuTL4WV2ayuKmj6MXv3mgM6JKvvSGfM8zrB586Umcel/rD7/iaAQBASvN4PHaDeLjj8scyUyemboay1kKsCiak64+3zlCxc5nPr/22UR+7Z5v8XeHxSWaNhspp6SrJ47Kr0UxdmDo5Zmq6XUcRZnG2s5a9ZocGY9kHptrDv0YDAgMAAEh5pofBXPln6tSpcT2TPlqZOjB1YeokkUO2yoo8evbOY3X01Cz7/mM1bTrni1u0Z1/4yj7m8qDTCtJUWWp9P7FflGnMMXUw06oLUyeRS6caP1jVpEVffb23Z+G2S6fp1g9Ns8ujQVowGAz19PQo0NWlzs5OHejwqyeUoYryyc5TAAAAUkuX1W7p6Oiw2y7d3eHG61hnelqys7Pty6Wa8kgyDV0z+XlNbbt9f1phph6/ZYZOOKJ/eOsISG0dIfk6Q/J3OTvHONOLkJeTZoWFNHnDuaqXmafw6R9u18+fabHvm5Wcf7HkKL3n5JGf0N/a5lOrr0NeT8j+DZnQaXqmhjLcj8AAAABGNastY7dhTIgwbZrIZvaPRqYBZ+YlRDYTDkzjLtnzOEzjd9nP6nXfn/fY9z0Zafrvc4vsxd5MT8TBunusoGEFh04rOHT1hKzNurWyXffo/Frs+RqezPDcBPO320HBCgkDzeMwV5X67T9bddfvGrW5PryKc3mxR4/dfPTbQtZIITAAAABgRJiz5dfev109TsPfLDa2+Lxife4/pto9D+OZCQqPPd+qrz+6S6/s6HT2SmfMnKDffv5oFeWG54MkA4EBAAAAI8ZM3P3qbxr06D9bnT3hKyudfXyuFp1WoEusbaBeh7HI9J5Uv9yuP/2rTU+s26f6lr6xWEeUeLTsA9N0+buK+s1pSIbDCgw7duwK+QN+mfnupuuu2woPWTkTNOPI0TMRAwAAACPPnEW/4zeN+sMLbc6ePrMrvPZY/SNKsjR1UqamFXo0tcCjIyePziDR7OvRrtYuNbZ227dmW/fGAf11o0/tnf3HWZXkZejz/zlNn76wxNmTfM0tbWpp269u/34rLDiBISNDaUMJDFu27gyZMX+RcX9IPZHxiyM9wQkAAABIe+PNraZzAQAAAADeJm3nznoCAwAAAIABpbW0tBAYAAAAAAworb29ncAAAAAAYEBpgUCAwAAAAABgQPY6DE4ZAAAAAPpJC1mcMgAAAAD0k+Q15wAAAACkMgIDAAAAAFcEBgAAAACuCAwAAAAAXBEYAAAAALgiMAAAAABwRWAAAAAA4IrAAAAAAMCF9P8BdWBp5ADu5DkAAAAASUVORK5CYII=;" vertex="1" parent="1">
          <mxGeometry x="2021.8200000000002" y="3050" width="296.36" height="288" as="geometry" />
        </mxCell>
        <mxCell id="uL55kOceticVz0h6povc-11" value="REQUEST RCORDING FROM NEW TAB" style="text;html=1;strokeColor=none;fillColor=none;align=center;verticalAlign=middle;whiteSpace=wrap;rounded=0;" vertex="1" parent="1">
          <mxGeometry x="1990" y="3430" width="270" height="70" as="geometry" />
        </mxCell>
        <mxCell id="uL55kOceticVz0h6povc-12" value="&lt;h1&gt;EXPLAN&lt;/h1&gt;&lt;p&gt;Send a recording request to the background, then the background creates a new pre-defined tab and requests recording from that new tab&lt;/p&gt;" style="text;html=1;strokeColor=none;fillColor=none;spacing=5;spacingTop=-20;whiteSpace=wrap;overflow=hidden;rounded=0;" vertex="1" parent="1">
          <mxGeometry x="1570" y="3370" width="240" height="170" as="geometry" />
        </mxCell>
        <mxCell id="uL55kOceticVz0h6povc-13" value="" style="rounded=0;whiteSpace=wrap;html=1;" vertex="1" parent="1">
          <mxGeometry x="880" y="3710" width="640" height="570" as="geometry" />
        </mxCell>
        <mxCell id="uL55kOceticVz0h6povc-14" value="" style="rounded=0;whiteSpace=wrap;html=1;" vertex="1" parent="1">
          <mxGeometry x="880" y="3710" width="640" height="30" as="geometry" />
        </mxCell>
        <mxCell id="uL55kOceticVz0h6povc-15" value="HI" style="rounded=0;whiteSpace=wrap;html=1;" vertex="1" parent="1">
          <mxGeometry x="1380" y="3710" width="30" height="30" as="geometry" />
        </mxCell>
        <mxCell id="uL55kOceticVz0h6povc-16" value="" style="rounded=0;whiteSpace=wrap;html=1;" vertex="1" parent="1">
          <mxGeometry x="1340" y="3780" width="150" height="210" as="geometry" />
        </mxCell>
        <mxCell id="uL55kOceticVz0h6povc-17" value="STOP" style="ellipse;whiteSpace=wrap;html=1;aspect=fixed;" vertex="1" parent="1">
          <mxGeometry x="1375" y="3890" width="80" height="80" as="geometry" />
        </mxCell>
        <mxCell id="uL55kOceticVz0h6povc-18" style="rounded=0;orthogonalLoop=1;jettySize=auto;html=1;entryX=0.544;entryY=0.007;entryDx=0;entryDy=0;entryPerimeter=0;" edge="1" parent="1" source="uL55kOceticVz0h6povc-15" target="uL55kOceticVz0h6povc-16">
          <mxGeometry relative="1" as="geometry" />
        </mxCell>
        <mxCell id="uL55kOceticVz0h6povc-19" value="&lt;h1&gt;EXPLAN&lt;/h1&gt;&lt;p&gt;Send a strop request to the background, then the background send stop request to new tabs which recording and this tab send video response to background for upload server&lt;/p&gt;" style="text;html=1;strokeColor=none;fillColor=none;spacing=5;spacingTop=-20;whiteSpace=wrap;overflow=hidden;rounded=0;" vertex="1" parent="1">
          <mxGeometry x="1570" y="4050" width="240" height="170" as="geometry" />
        </mxCell>
        <mxCell id="uL55kOceticVz0h6povc-20" value="" style="rounded=0;whiteSpace=wrap;html=1;" vertex="1" parent="1">
          <mxGeometry x="880" y="4480" width="640" height="570" as="geometry" />
        </mxCell>
        <mxCell id="uL55kOceticVz0h6povc-21" value="NOTE" style="rounded=0;whiteSpace=wrap;html=1;" vertex="1" parent="1">
          <mxGeometry x="1335" y="4630" width="145" height="330" as="geometry" />
        </mxCell>
        <mxCell id="uL55kOceticVz0h6povc-22" value="&lt;h1&gt;EXPLAN&lt;/h1&gt;&lt;p&gt;when user stop recording, it also send the same request to content.js in meeting (NOTE) then it continue send NOTE data to background.js to upload server&lt;/p&gt;" style="text;html=1;strokeColor=none;fillColor=none;spacing=5;spacingTop=-20;whiteSpace=wrap;overflow=hidden;rounded=0;" vertex="1" parent="1">
          <mxGeometry x="1570" y="4710" width="240" height="170" as="geometry" />
        </mxCell>
        <mxCell id="uL55kOceticVz0h6povc-23" value="&lt;font style=&quot;font-size: 59px;&quot;&gt;FLOW&lt;/font&gt;" style="rounded=1;whiteSpace=wrap;html=1;" vertex="1" parent="1">
          <mxGeometry x="-304.40999999999985" y="3553.5" width="470" height="75" as="geometry" />
        </mxCell>
        <mxCell id="uL55kOceticVz0h6povc-24" value="" style="rounded=0;whiteSpace=wrap;html=1;" vertex="1" parent="1">
          <mxGeometry x="-398.40999999999985" y="3658.5" width="594" height="150" as="geometry" />
        </mxCell>
        <mxCell id="uL55kOceticVz0h6povc-25" style="rounded=0;orthogonalLoop=1;jettySize=auto;html=1;entryX=0.5;entryY=0;entryDx=0;entryDy=0;" edge="1" parent="1" source="uL55kOceticVz0h6povc-26" target="uL55kOceticVz0h6povc-36">
          <mxGeometry relative="1" as="geometry">
            <mxPoint x="-338.40999999999985" y="4088.5" as="targetPoint" />
          </mxGeometry>
        </mxCell>
        <mxCell id="uL55kOceticVz0h6povc-26" value="BACKGROUND" style="rounded=0;whiteSpace=wrap;html=1;" vertex="1" parent="1">
          <mxGeometry x="-398.40999999999985" y="3958.5" width="120" height="60" as="geometry" />
        </mxCell>
        <mxCell id="uL55kOceticVz0h6povc-27" style="rounded=0;orthogonalLoop=1;jettySize=auto;html=1;" edge="1" parent="1" source="uL55kOceticVz0h6povc-28" target="uL55kOceticVz0h6povc-26">
          <mxGeometry relative="1" as="geometry" />
        </mxCell>
        <mxCell id="uL55kOceticVz0h6povc-28" value="start" style="rounded=0;whiteSpace=wrap;html=1;" vertex="1" parent="1">
          <mxGeometry x="-374.40999999999985" y="3728.5" width="120" height="60" as="geometry" />
        </mxCell>
        <mxCell id="uL55kOceticVz0h6povc-29" style="rounded=0;orthogonalLoop=1;jettySize=auto;html=1;" edge="1" parent="1" source="uL55kOceticVz0h6povc-30" target="uL55kOceticVz0h6povc-42">
          <mxGeometry relative="1" as="geometry" />
        </mxCell>
        <mxCell id="uL55kOceticVz0h6povc-30" value="stop" style="rounded=0;whiteSpace=wrap;html=1;" vertex="1" parent="1">
          <mxGeometry x="-161.40999999999985" y="3728.5" width="120" height="60" as="geometry" />
        </mxCell>
        <mxCell id="uL55kOceticVz0h6povc-31" style="rounded=0;orthogonalLoop=1;jettySize=auto;html=1;" edge="1" parent="1" source="uL55kOceticVz0h6povc-32" target="uL55kOceticVz0h6povc-42">
          <mxGeometry relative="1" as="geometry" />
        </mxCell>
        <mxCell id="uL55kOceticVz0h6povc-32" value="NOTE" style="rounded=0;whiteSpace=wrap;html=1;" vertex="1" parent="1">
          <mxGeometry x="25.590000000000146" y="3728.5" width="120" height="60" as="geometry" />
        </mxCell>
        <mxCell id="uL55kOceticVz0h6povc-33" value="IN MEETING TAB" style="text;html=1;strokeColor=none;fillColor=none;align=center;verticalAlign=middle;whiteSpace=wrap;rounded=0;" vertex="1" parent="1">
          <mxGeometry x="-204.40999999999985" y="3668.5" width="270" height="30" as="geometry" />
        </mxCell>
        <mxCell id="uL55kOceticVz0h6povc-34" value="send request start record to background" style="text;html=1;strokeColor=none;fillColor=none;align=center;verticalAlign=middle;whiteSpace=wrap;rounded=0;" vertex="1" parent="1">
          <mxGeometry x="-324.40999999999985" y="3848.5" width="60" height="30" as="geometry" />
        </mxCell>
        <mxCell id="uL55kOceticVz0h6povc-35" style="edgeStyle=orthogonalEdgeStyle;rounded=0;orthogonalLoop=1;jettySize=auto;html=1;" edge="1" parent="1" source="uL55kOceticVz0h6povc-36" target="uL55kOceticVz0h6povc-38">
          <mxGeometry relative="1" as="geometry">
            <mxPoint x="-174.40999999999985" y="4168.5" as="targetPoint" />
          </mxGeometry>
        </mxCell>
        <mxCell id="uL55kOceticVz0h6povc-36" value="NEW TAB&lt;br&gt;" style="rounded=0;whiteSpace=wrap;html=1;" vertex="1" parent="1">
          <mxGeometry x="-398.40999999999985" y="4138.5" width="120" height="60" as="geometry" />
        </mxCell>
        <mxCell id="uL55kOceticVz0h6povc-37" value="background open new tab" style="text;html=1;strokeColor=none;fillColor=none;align=center;verticalAlign=middle;whiteSpace=wrap;rounded=0;" vertex="1" parent="1">
          <mxGeometry x="-338.40999999999985" y="4058.5" width="60" height="30" as="geometry" />
        </mxCell>
        <mxCell id="uL55kOceticVz0h6povc-38" value="" style="shape=image;verticalLabelPosition=bottom;labelBackgroundColor=default;verticalAlign=top;aspect=fixed;imageAspect=0;image=data:image/png,iVBORw0KGgoAAAANSUhEUgAAAwwAAAL2CAYAAADsARGwAAAAAXNSR0IArs4c6QAAAARnQU1BAACxjwv8YQUAAAAJcEhZcwAADsMAAA7DAcdvqGQAAABhaVRYdFNuaXBNZXRhZGF0YQAAAAAAeyJjbGlwUG9pbnRzIjpbeyJ4IjowLCJ5IjowfSx7IngiOjc4MCwieSI6MH0seyJ4Ijo3ODAsInkiOjc1OH0seyJ4IjowLCJ5Ijo3NTh9XX01vqh1AADMSklEQVR4Xuz9C5wcV3kn/P/6MjeNPJIsteRLOxoQF1sGQ4MnDMRggkOHmO3ALMOirAlO9C4TJmZY3jdeetnJ35/Eb/RJhjhZklm7WWWjxAveJaC8s7jB4CYmOJjQMOAGX+QLlj1Y7YvU1mVmpLn1pf7nnDrVXVXT1d1zk+by+5pC3XWvU9U956nznGrfN0efMUBEtIYY4j+/zw/DWHtfX4FgAKGdl8Ln9+sxy2NubhZnTr6CrRdvR3NLqx5LRES0dMv7F4uIaIXI2MAKD3ziv7UYLMgg5+Idu5Y9WJCam1uwuWMLxk+fQj4/p8cSEREtHQMGIloTfD4ZKKxdwaYm7LjkUgSDQT1m+W1q34z2zRfh9Cs5zExP6bFERERLw4CBiGiFtbS2IrTzEgQCAT1m5WwSAcOWbRdjcvwMzk1O6LFERESLx4CBiGiFyBQkWXm/eMdOs4nkPGlpbcO27SFMT0+p1gamKBER0VIwYCAiWgFt7e3YeellKk3oQpApUNtDu9DU0qyChsnx0yiVSnoqERFR43z3/ejnfEoSEdEy8Pl8Kv2o/aIO1Ql5tSgWCjg7OY7ZmRk0NTerfWsW+9nU1KznICIi8ub7xg+fYsBARLRAfn9ABQj+gB9NwSa0trWrYGE1KxWL6vGreTHMikG+l09s8svBxwZnIiKqzvfU8ycZMBARbUDy9yzM/4n/1HNr+eeAiIjm84k/EvwLQUREREREVbENmoiIiIiIPDFgICIiIiIiT8uaksTsJiIiIiKilScfvHG+LDpgsC8mX1sDERERERGtHCtYkP/aX6+UBQcM1uzyB4Dkq0K+iKmZOeQLBTHOHC/2WM3DAIJolVnBLxMiWqX4t5hozbMHA/KV3+9DUzCAluYgWlua1Hj5iOyVCh4aDhjkbHJQgYL4d/LcLM5Nz4opPrGzAQQDfjEE1DPJ+eVEtDqt5N0HIlqdGvwzT0RrhPxIF0V9PF8oYi5vDq2iLn5ReytaW5t1QGF2U16uv/sNBQxWoCCHc1OzGD87g7bWJmzraEdTU1DPRURERERE55Osp0+cncaZySkRLPiwub1FBQ8B3eKwHEFDzYBBTrKChYKIYk6NT8kGBWzfuhktzWbzBxERERERXXinx8+qLKCWliZs3SyChoBfDIElBw2eAYMVLBSLRczO5VWwIPOkdu3YqucgIiIiIqLVRNbbX8pNqDSli7dsUulJSw0aqgYM9mBhTmw0d2ZKNW3IlgUiIiIiIlq98vmCCBrGVReCjvYWFTAsJWio+sNtVrAgO1OcnJhGW0uQwQIRERER0Rog+xhfGtqCqek5nJ2aUd0LZN2+SjtBQ+YFDHJFJTEUCgWMn51G0O9jGhIRERER0Roig4Yd2zZjciqvMoasBxgtJmhwBAxWy0Ihn1dNGbP5Ei4JMVggIiIiIlpr2je1YlNLEBPnZlVjwLIFDFbQMH5uDhe1NZWf40pERERERGvLjos7MJcvYTZfUHX8xQQN5WhALihXIKMP2bu6VDJw8bYOPZWIiIiIiNYaefP/ovZmnJvKL1/AIIeZuaL69eal/8wDERERERFdSBdv7UChaDYMLCZoUAGDXMAKGPJiRflCCW0t/GE2IiIiIqK1Tj5N1e/3qf7JS2thEINcgYw6RACC9vY2cwIREREREa1pAREwyJ9MkHV9q6GgUZWAQSwkF5SDTEUKBgLmBCIiIiIiWtOCAZ8IFkRdXwQLVtDQaEvDvJQkuSKfb2HNFEREREREtHoFAn4RLKAcLKg8pQaVAwYZLKh/DR98fnZ3JiIiIiJaL5qaKv2TVWOBqPs3yq8WsAYxwjDEwmxgICIiIiJaP0RdX/2jGwkWotyHQbICByIiIiIiWn/KDQULqPNXAgafj8ECEREREdE6VK2e32jd39HCQERERERE69dCWxekcsDA1gUiIiIiovVtMXV+tjAQEREREZEnBgxEREREROSJAQMREREREXliwEBERERERJ4YMBARERERkScGDERERERE5IkBAxEREREReWLAQEREREREnhgwEBERERGRJwYMRERERETkiQEDERERERF5YsBARERERESe1l7AkEuir7MTnZ19SOb0uHVkNn07uuTxdQ0gmdUjXXLpwzh0OIMJ/X5RMglRhmI7fUmsqWJc5+d/ZcyK092jrqnDR2f1uPMjk5DnSgyJjB5T27Jc20uSQULu73U34/YHPT6A51MujcOHDiNz4QpkdSl//hPiTNFyu/CfPyJarVZVwDCbyyCZuBX7eq4zKxli6LphH/oGDyG9ESqH2SRuHUiie/jLGO5OY+D2JOZVWcQfzMF9t+L2W3swmGKNmdwmkB4SwYH8/PQM4sHshKi070NPqhtffmAYvXta9Hyr0Kq4tiPoHxvDA/3AocEUjuixKyeL5ECXCOb2IZFxB3M5JAf34dbbb0WP2JfaJSLm7TO/M51DF24QZZpIHWUlcLGsmyseQ4Ox8OrHvy1EVMMqCRgmcOTQzbiuqwcDQ4eRzlSqybmjaaTuuR22UeuUqDjcPoDs/oO4I9aN2B0HEc8NYED8NXJUIzr2oLs7BIR7Edsr/iUqyyJ1640YmujHQ2NP4YH9wOf33Y5sbARjI3F0d+jZVqtVcm3LVpEbBo8i+unrsVePWynZ5BBuT4YRP3g3+iMimDtyCDeWK6Ed2NPdjRDC6I3tFf82JrSnW5SjHPaIZXI4mj6Mob4bcPPtaQYNq8XEESQPDeLmW+sFgucR/7YQUS2lUsnI5/PGuakp4+SpU8axF14yxrInjPNnxnj4rg8au3fvFsO1xkf++KvGD545IcbqqSeeMX7w1T82vvS4HnHiXuPjat6PG/eez91cbx6+yyzzj99rrKli5PlfUx6+S54rMdz1sB5DlhnxGfzg7g8af/aDcT1GOGZe35+8f6EX9wnj3o+bZf1xxwdj3Hjmq580rlWfmd8w/tb6Hl2ryp//u4zzdkVZ35XLuc21+v1LRGva6TMTxnPHjhsvv/yyMT4+bszOzhrFYlFPre2CtzDMpofQNyRvp4UQGx7Bl2/rRfeeEKzEiZbQHnT33oabVvpWHxHRedQS6cfI2Aji3S2YmJgQQxYP3nMIKUTUd+Dy6MCe3v3oVa+PIJNlqgkRES3cBQ4YckgdOqSaZEM33YEDsbA5umGzOJq8HTff0KVySa/ruRX3HKnW6J5D+p5B9JX7Rnjn9To6aebSOHRrD66T77tuwEAiPb9PQRW5ZJ+5jr4kshNHkbz9ZtzQJdd7HW4ePIwj1fqdim3dM9iHnuv09sX29t2aQOrovD00O2WKobHcWVFGqQRutY5dduZMHnWmOVlqdIS2yqXP1tN48cdZma/n1kPIiIqSlX+9sHxg89gG9PnvusE8NneJTWQfVGW7T89nlq3crp5BW45zb1/H7NEkbr/5BtWJXe1bSq9hIuNY9823J+Hoi1yjY2e5zKsU1MTRFBK37tNlK4bretA3eM/8/j/l9fchmZ1wfoZuHsThqifOg/u6Fdu8VZRV1WrpvONOucrU49qe17dJXDd9tyPZaAfuKvvYN+jetswSOYzb+/T+ye+Im+U2qn2fVMgbHuohBZ23I+3enXI534zD9o2596fz9bjmmmvEID43yQ7sPziMm/aYszquycWandWf9xD2hp2ByEKOOZe+B4Plec3v24Tr4lrsNZhO3KzW25Wo9BqZyIjt6c+P+gweymCiximfFZ/zQ7Zty/075N5wA9tdHPG3TPZFkesafNDxHTTx4KB5DDcOITOrr/GeIXNiakBfP85rfjHHUv9zLOaRfwv26TLVfwcPlb8Ia/1tOb9/Q4lo9bmwAcPEEaRT5sve3uux0BTr9OfFF+rtD2I2tAfyhlw2cxiDNw44/zjLL+ieLuwTf7RS4vsrInN7Iy2VvF7x5V61cpM5hIEb9+HQ0RaEIyKQyYkK8dA+8YV3pHplu5qJFIbEH7zbH5xFaI/MJ5Z3EG+dl7c6KyrqPV37MHhPSnxlR1T+caTlKNKHh9AnKpqDD1bdwwbIp+OIMuobwuFMVhyHOPaw7GQpv7iXUAFxa/A4ZaduWaaD9zyIo5D5sqJc07ej5+YhpGrXy6o6clhUIvvuQVa2QokLIHdU/JEVx3az4xxlcI8IkgbFHzaErsdNN0V12Yrt7hMV8moncznOvVjHrftux4OzIYTVKsS+icrWUCqNxM094g9yZd0PHhrAvs+nG193FdnkAG64oQ9Dh9OY6DBz2PeIaz8l/sjvu/FmEUhXW/sEUkMieLN/hh68B7fefCsa6fOYFRWh8nU7K8+nuG5FeR8eysyvFBwVn80behxl+uAhUWkeqnfcsuOv7Nsk5mvZK86fbIEU13VKnKMbBuo/Kat8zYlrMdSL/bftR294Apl7jjquTVV+N5qVpz039WN/bxizD8pt3CzOlfcetnRHsV/VwQ+J7xfnfLl0EurrrfcmRMUhSxMiwJj3WdfTpMhNccStmZdFDg9+fkjsnRDpx/W2ltrGj1l8nsU56No3iHvEl+is6iMREde4+A61dS5b3DUoPyri+h96UF0zOX01qHX1iO09KD63cnt7OpC5vQf7RHBd7atCfofukzdDxJd/x/X70X/T9WjJimBo340Y8HjcXLXtLl4I0fhtiIpXuXs+Lyrr5lj59+eeoXvE+vei/8CnxXdPCzpEuXRbJ11+d8n3YujQzeoLP5ZGPsfyb4GYR/4tEEW6V5zv/psi6BDrTWfrHPuF/BtKRKvHBe3D8PjfGr+hckMXkI9ezmHdbVz7ya8az1idHca/a/zxteb4j3z1mDXS+O5/ubYyry1VePyZrxqfVPNfa/zZD6yV2HKud3/QuOvhygLHvvpxPf6PDdvsVZ2415r3WuOT91r7Irb5gz/Tx/sRo7KL3zX+i96PT371GbHHFlvu8bV/Ztvmw8Zdah27xf7pUV7K5es8FrEjxp990FyHI4e2Rl6tVS72/OgFHac4nvv/wFzHtZ+817DNbcuxbuCYbOd/98f+1njckf5trecPjPvL4x83vnrXD5zHM/OD8rXyx8t87p3rsGY+ZnxV55fL4YPiIK21HyuXoW3dNfK0y2VuLyhxnj+o5v+g8WfftR/pCeO7f6b7B33sq5Uyd3yGbOdCXhe/YY6vfIY8HPuq8TG1jmrX7f2i1E328rDn6j/zpY/p8fYyrXZti2P40r2Oz64qz4+Z89Xbz8f/9jfM7fyX75b7RUnjzzxTuSas8vuNPza+a9vOzMP6Ov4NcZ3pcdVY27j2z35g20blev8D62Js5LPu+i4sl1/9D0a5D8O17/mI8ZGPiOGDv2IuK4Zf+fjfGvavgIUc87Gv6nN17SeNrzq/RI2v3q/nWsI1KNd77zHb2Rm/3/gDNc35vWLMiO190vw+d3w2yuX6ceNL5T8Igu4P4vg+qLVdL+U+DNUG52e0XFb6O9R6/xt/9rDj+iuv0/1du8hjqfs5lutV835ErNccZTphPHPMWmG1z9+F+RtKRCtj7fZhmJ1dwmML96K/vxflp0R2XI+YmaiLdE7f78g9iHvuka+vRzwu5rU1YXTs6RXLy9ttOSTkXTNzdMX+OPZHKguEr+9FTL3KItfo3fDuOOK2NKuO7hhi6m5kGpVdvAfmLop5e/fYWllk7nE/zF1MzLt72YgjDyZU+Yb6nccidgSfju/Xb5ZBA8cpm6aTh+ULeS5isM1dOc4F2YvbxDHstR1WOCb2o1u+OowHy83se9HbL580Y9MSQdQ8mchWO5nLce7VOqyLM4zoTTfp1+K6k3f29Ltw9yLW7ZIR51m2F8nz/Onr7UcawvX9/Wb++oPyTqIaadPtPBfiuoiZJ67yGfJwJHUID4p/Q/uHcce86zY6/+lC8hzbHtO0R5SpvBtb/7jFMdwUc3x2ZXl2x9SJrrufHR16wSNpR1pMh2oJM1nlFxVldb1tOy2RqHlujqRwpPpNamWvOIfqY3o4U/k+m0gjJa/3kCh/vdKGPutIIV01rbJx8sly6bQY9N3/SP8I7ju4H/avgMaP+QhSh9SZxv7hO9Dr/BJFb9Q804u/BoGb7rgDsbD1WZFfFUnxCRZkOdnTVFvE9uJxcdU6WeUaivfjJvtjg8PielYXmdhuldYN93aXQ7g3jtsi4kUqgcOpJBJDouz29uPApyPlfnm1LO5YGvgct7To7R8V14U9jSiEPWHbOXW70H9DiWjVuLABQ0hUpNQL8QWiv9caF0bI/ndJCO8111aWzZopAXuvx17b3x3L3sj15otsbn4zd8j6gtXExuZVgurpcK1DfDmH5R8Tm2zWzMnae/3eyhd+2V5UdnGh37A5HM2YhRrt3jvvj1VLi6vwlqKB40T2KJLy36rnIiQvhQWaf/7luD16uzl7svNsTtR/DuPQodtx67592HfDddincjQ8LMe5d62jo0MfYHe3I8hZ1LodcsjWOM/o2Ivr1cfCFryVdch6hENo3omrRj6q06waR8V1O2+b1ewJ2SrIQjiMRrZkmhDbS+KeQ0MY7BPnr+c6XHdrWk+rzQwixYWSSeDmLjO3+x4ROVSujkr5WTnolaEHZqZ5tbKzEd87+2UtNndIVMbMURPplKr0hvZH0a0LqNHPuuPaXYTo8CjGxsbw1Kh8VKs89B7cnLBX6BZwzDlRwVSnOorr93qd6aVcg6J8XOvNHlXfFNXLSab06JcWq1xz1u+PlIcuDJiTqnx/zt9ufXGMiHKVZVsZ+l3X8V7cdCAuxh3BUN+AqPyLQOs2mYqkJ9exuGNp4HPc0o39B3tFeeaQvPUGXKP6E4igsN6flQv9N5SIVo0LGzDISoOq9B3BYV0BWREdHfP+yKw25TuhK6DF/dfkQlrRc5FDznUHc/bIPbj5ui7c2HcrDiWPYEJEFNGb+nGT/jt33s0LrpbPhTjPK77N3IMY7LkGN+wbwOfvyeCoqHxGY/vRH2uw6tESQf+XH8BDdx8Q5zyscrsH93XhuoH5P4rYLe8O33Zb1aH2Y+nDYll5QYnKWEZ+j00grZoX9qL/+vlh0Up+1u1aQtcjPnwH5J5lhm7HoSqtlI0fs7huGzjVy3k9LLSc9kT3Vz0OOUSXuSWhlpaOMCpFJ14v4nSvxLGEo3fgodERDMdj2APZn6APN14j+1M1EKCugb+hRLSyLvBTkiK4Xt4CE47cPtjYF9dCWC0Y6XTVOylHj+jbgWHX3c/zKBQ2W0XSImCav4tHUdnFhe5hR/muffrIUfOFTfZojTu0qayrMiXe6/1YNFGRUFW8auditnKcjZuQGW1OYj0ZdVghRGTPP1lxu2cQss94dPghPDTyZRw8EMf+/Tchpp9Cs7pl5I07h+wRfZuxLISwPpZq51mWiflgge4qLTKLVbm2kg9WSUVYRkeSQxBxAvb2j+ChB76ML99xmzh/+0XlfyGfhw6Er78JB+5+CGMPHVSPaM4lB5B4UF6IlfJDd0ytu9ogYo2aZLqF/CQfOSyv74zMvgGu3w+dsaOEV+yzXkO4F3GVI5PB0O336JSpBRxzh5hXzZjEg57fz8t7DYZCOt2sSjnNHj2iUp/srO/Qo+Lfm6ochxx67flYKyqLw4MDSMlg8TbZ0iDKffBQ9SfGVbHixxKKINY/jAdGH8F9t6lQUuyfdV1UsQb+hhLR+XGBAwZREbjpNsRVzCC+uHpuQN+hB3E0V/l2nZVPU7lHPi5Vj1gIW97n4KDzjuLE0cP4/Odl7XIv4rHG8ktXQlj8wTZ3cRCDjidgTODo4c/D3MU4Yo22aZeJCnq3fvp6IoHD9kdQZpMYkrm1bmErReyQqAhW/jpMPHgICXc9daH2dqNXVZ4OI5GwP1VDVOo/P4TEvFSFetLiGOzndAKZQ3o9e/v102BmMaHXGxIVnzJx/IdqpSRdaOKPtNnylsJh+XQnbfboPaLs9BubvdG4CsbMoNv+V10+IefzuEe+jN5Ut9LbuBZEYuY2c4mhyuNiFXndprwrIAs0O2uuqSPcUfmMTqRxz6HGUpKyIoJ0XFrhvZAP55ImdMS59/p+UeUVV9SQfIKMq1aUexBDjXz5hK5Hr/y4iYDuwXtSqsyvj3U7UmpCK/ZZr23vTSJIlgeYuR1D+hFyDR9zi6hgxtWZRmLodnkvoWLiqLg+zfmW8xqUqaXq43s4gUTati75WN6hhPN8CuFIVLWiiIn4vPuJcnIfD52/X1M+cmgAt4qv1tD+2/BpUbmPy4LPDGHwkMeTgTIZxyOVV+xYJkSg5TjPHdgbUaUsTlHVPTOtgb+hRHR+XPCAQaUM3P1l9Ms8Y/F1lFLP8n99OXfz9fJ57YOHaz5/21sIsdsOolf8kZJ3FK+Tz2+XOew91+GaG25FMhfC9bfdYeucegGEYrjNyi0duE49t3yf2Mee667BDbcmkRMVkdvu2N9wDqxdR3Q/DshyzSVx6w3X4QZ57PIZ3Ncdwl7xx2we9dhReR5yOHTzDeb8sqyGWnC91Wd30faiN36TqkDJx/t1ifMqj/OGrmswkI2i34xUFmAvwtnbcZ1ejyyvHvUDgBHED9xkVjjknWX9R/EecTzq3O/rwXUDOUSWfDwrqdLy9uDgDbiuxzxv193wIPZUKaiWiDjPcdmxWwbd16DrBjm/LNsulbsuD/bu22Kqgrhc7Nu8p8993Xr8zscilO/KD4rjUedP/HvjPegwk+LryqX3mdda3yCGbpe/5bDPzAUP34Re9Z0jjqW7H8P7RXmrz8k1urzFIJ8533UzEg19+XSgOyYvqjSSSXkd9uIm9+NRV/CzXlNLN/pvM8vrwVtvV4+ibfyYRXC4/4DuB3IP+q6Tvwkg5xWfo2tuwK26trus1+DeXsRvUt8USOyz9k1urw9HRGAy78yHe0W5Xa+2nbi5q7xt9V0n93HeD2Qs1hB6HP0K9GA9ovrIIQzeLl9HcVt/tyi5FnT3m49azQwN4pC9mcG6OZM7hH03yOugB4fkoit1LLNHkdDn+dbbzb5AN/TJuw8hdH/6ev19Wc0a+BtKROfFhQ8YpI5uxL/8AB44eJv4Ixux3ZULI9Ldi/13fBm9Zv1p4USF4477HsDBuH5+u3p6iPj71RvH8Mh9uHt/g502V5DMLb3vgYOI95rPLZdPOJHPaO+ND2Pkvruxf8Gd8yx7cZMIxg7KnNWQ7Kh6FLkWUSl54G4doLl1iC//L4uKxPWV+cP7MfJl8UfaVfdZjI7rD+C+ETOXXHWmzM4i0v9l3DdsPmVmYcLYPzyizp98KkwmG8Ke6/djWB5b+Y+XqOz0H8Td6viz4tyL4xGVtuG7+8t3mVervfvvxshtveoZ/fIueVadt2FxLegZHORxinL8sihb8flp0U/JmegQAeCBu1X+/vK1Llic2wxn5XV7FBMyBeZglackLVIoJj4bd8g70/J6lOWwF5+++w7dWlVfOBJXT/bJpu5B4tBhHJ0Ii8/VQTxwnyiTcg6FqOzfdrf4/hHzdu/BrChvWX5Z+fmR5XdTY18+8ulgMgw/cuQIsL/X8fQhy8p91msLxT5tPr0HKdz+efnDYgs4ZtUP5D58WQTiUXFByusxfXRCPRHoYDnnajmvQfE9dOA+jIjtyWXU9T+7B/vFPgzLmmsVe3rvnrfto7IyK8v1wPIGy1XNHkFi8HZxLsXflts+rZ8SJ4jvm09bKWH21CQZPN69H9fL1En52cl2yG4CyoocS8ceRG+KIqxaKRK4J5VFhwjiDsjzKnP0alkDf0OJaOX55O8wFItFzOXzmJmZwdT0LIpGALsvX/GvWCJN/LHtuhFDOSA+Mqae7EJEREREy+fM+CTOTE6jrclAW1sbWltbEQwG4ffXbz9YHS0M58vsERza14WufY13QjvfJh4cxHWdXdjnlfO6Hh1J61/sjWHPst8Jt8mlcOt1neL834MqXTOJiIiIqIqNFTDQBSV/lCjpftSG7GA5eLvqJBu6qRdVM6WWWUuHrQMtEREREdXElCQ6b3LJPnTJHqfhCLrls8Rns+Vfo1WdIodXIteeiIiIiJiSRGtCR/d+HLhJ/vKtCBRUx7lZ7OmO4qYDX8boCIMFIiIiotWILQxEREREROscWxiIiIiIiGhFMGAgIiIiIiJPDBiIiIiIiMgTAwYiIiIiIvLEgIGIiIiIiDwxYCAiIiIiIk8MGIiIiIiIyJP/O6/oV0RERERERC7+X/vNA/jpjH5nKU3rF0REREREtJH5kf7/4bZ/GNNvpSmcPX5MvyYiIiIioo3M//0jL+IrN3Xqt8Iv/hknThf0GyIiIiIi2sj8b7/yErQG9Tvh5z/5OtwZSkREREREtDG5npL0PLJPntGviYiIiIhoo3MFDCdw5lH9koiIiIiINjz+DgMREREREXlyBQw7sbNLvyQiIiIiog3PFTD8EnZ2btWvidafXLIPnZ2dSGT0CCIiIiKqyf//pZ/Ay2f1O6Hz9b8K20OTiNaVUOwgxkbiGEozYiBaDDPo7kMyp0cQEdG65+99x9W44rf+DtZPtzVdHcUlW85PyJDs61R3e6sN6/EOsPpD25fESvydzSREua3Qui1qG+Vzk0FiGU6SWflIiLUtVE5dP30N1VrMedV2ckn09Qwh3h3R09YifTxVzveiKnOZxIpfOytCnktxPTZ2DawE8RlYtu2b66r+kdLne6GfN3leF/XZqk0G3aPD4vs7vbTjXsnvQyIiWl5+4O24/Y9+C5WfbtuKjksu169XVuzgGMbG5DCK4SgQH7Hej6F/LdfnLoBIvyi3/iy6VizSyiCNEXWuwipw6AGWWukWFZqubL9YZz/qrUlVLhZ5bJlEF7KyfEaAnsNhHFzj11cmMQgcqH6+VQvK2EHEQnrEWrKgwEVUsFUxiHOZ7bpANxgi6D8v2w+p78rRcOICBkc28nM7IL6/u9fiRUZERIvhH7z/G/jsW1v1Wy3Qrl/QmhIRle/e8ArdsROVI1XLNisvyxHU5cK9otK70jX3HMK9el9l+XTLquZaJo9HBwQrer5XOXESuw/GxNUoi2EMveELVwrna/syGDwgrt8LTl53azUoJSKiRfH/v+9dnZ2crebqjEqxqDT7W2kx5uBMvSg3caumeD3PvDuWVnqKOfQlM+p91TuEKuXB2aQ/L/XHPY9Ok6isv0pFwr5/dVIGGjom+7SuLgxa21Tj3es3j9/rjqjanrUuV/k6y75+qoNzXc5tymldYl+tad53Ts397RpIAUM9Vee179e89eTSGOyyTc+Gq7dm6PNm38d559px3uzzmvtoXUvmdF12tc6bg7WOXO3jQRaHbcfT2XVYjLGpes5dHMfhnrdaaozrmrG24bjW52/Tcb2IheV7r/Os5u0ZAlID6NLzzy9X+/WYRk952504nLVqr42Wo411PPZysW3fGucsE+fxdXUNLuK7qBrvbarPzGBar2MBx1nnPLlV/9w2cF0I9n1pODWu1vXo+j51tDI2eB0SEdEyKJVKRj6fN85NTRknT50yjr3wkjGWPWGcXyeMez++27jrYf1WOHHvx43du3cbH7/Xvi8PG3fZZlLzfPxesbTtvVhmd3keMb9jHeZ2KtMry9i3XeHeL7387rvEmrWH76rsw4l7jY/v/rhR2WVz+9by8/fPGmdbn0v9Y5K7YFvesQ/O7Stqusf25LE4ju3e8rE8fFeV/baVvdu84xLbvVe/UetyLDv/mNzU+pwHos+F7fjU/tvKv875cHMck7uc3GXjWLe1L5VtqWMU26ocZ71jbPR4nPs/r5zd++nmXqfeL/d+OsvI9TlQ67Avo/fdttC8c6yXqXWO1Tz2Zaz1OvZXcB9j1XNRoxzdrOOxFtDlbF/HvHKW5WQ7Xse1Y723r1OXq/fx6/Ng20/3Np3baOA4reOqcZ7c5h2nKAvzc9vAdSHnsc3gLhO3+WU0f/sn7r3Ldt5c+7CI4yMi2shOn5kwnjt23Hj55ZeN8fFxY3Z21igWi3pqbas8YLD/ga5C/WF3/UF1LaPGWStWf2Dc65y/bTtHRVlu7+N3GXfZ5pfTrUqA/bXFvv3qx1TtD3FF3WOax3k8jv0Xai4ry6faH3hXOZvkfntVwmpMU+uqMs1r29r8/a5WOTDHNXo+5quUnXPZ6tdIZR7ndpUqx9nItqsdjzXKfS5Nrn2reo1bquyn5Cj7atdjtW24zqF9HR7nuNr5cJh3DdQvE4v7XDSyTFmVMptf1rWud8H1GVHnekGfW7PcneXjPBdq+XL5NHCcXufJ8/qodYwNXBduVb83KqqVUfXtVDiuIa/jq/E9QkS0kS0lYFjdv/QcDSOsX5bZm5+7BpDSo8uqLZPJqmb8XDZTfXoNke54Zfl0Eoj1ojcWFaPUGGQzUd35T76WGRWVNBs5qFQavbwyb/vifVS/9FLjmEz2NIYuyE1a1P4PpXUzfQaHB4DhXo9+A5FuxHVKiCP1IJsV5TzkSAGRnZ6HxFgxab5MWkyLIFwtx1mtq8q0cBjRVNaZXtOAqFiuugbPh0MIsf44hno60ZMZxoFykrbYL5URZT9+MY/MoKlaABaPMqih2vFUrrVq00MIi9NpzlOPeRyRhe5UVVWOzTp/Xud4kZzH3Ni58C7HxnlfW9oSvou8LPTc1D/OBZyHWp/bRtUrE7cGvg/taU7yPDvVuA6JiGjZrO6AwUXl1nYlERs1O92OjQ6jXl17nkhYdZRsmKpEJ5HO5aDiBREchEQNLZVMI5dLI5ly/sGKDo+a+2YfdOfMFaH+QHchGbO2az5xqizSK95noOoQskIQjcH74SbmU19kuWZUhcyeDxzHiP2Y9ODZZ7lWYFZr2jJb8PkQFTCva8r+FK/ysOKdtp2WXtmPykNceSt8ji/0uViW76LVaAnnbfnLxOw30aOezmaucySuJxER0Xm1hgIGWWFPiYrC4p/OISv6lbvtFvOOpTd5x0veSZd3rXRlWwUR4r28kxrvFtVsybzTW/uOczVy+4uvxMlWj1R8BAc9CyWE7pj5zPRMegjRWHf94CUUU48eHYkPISF7LapKtA46GiHnV0GWfm/nNU2W5bJWMhdzPnJIDg4gMiKCLgzgcPlCkdeA+87t+WYez/wfnDNbHhoLJMxr2f38fNXyVmYeq1O9z4hL1XNs7ufSrYZzsfTvolWp1ue27nWxXGVi+z5UNziGMXqeg3IiIppvDQUM7gqTWblbSD1GVfShK8FaJiFTa2qRFe4ohnrEfOXWiQi6RWW6x/UDYJHeYUSHepzpPJmE831qoPIUI0FtP96/bEFQLjnoSEmSQipiGERiyEqfqi6XTNieamKr4IkAoj+ewsCg/SkvovwTHk99qTZ/LomkXF/VdWWQkGXZX6clpk46h1tD58NGlZ0IFXojVmqS1cJivk8NuJ+EYy+vlVfteCr7rEfUZF7LqYHDlaBZnJdBxwWjP2e2c1v/M+IS6kZMBCYDlYjL3M9GPqx100lWw7lYhu+i1ajW57budbHIMqn1fegOYMRnd35KEhERnQ9rKiUp0j+CuH60ZmfnINC/0CZvmXIzgogtrz3d7UrhqUJWuOUs9uAgrG63xZ2/XSbvzI+YOfDW+jsTYWdlLjqMfgyWp8tc+SXdQYv0q5YAq3/BoFj7vOORFTjxpztVJzAJhYGB8iM7zTQnq+Ui0m/edVePvNTTs6JcvFYnn00/ErHN35WUNymrT5M/AjdS+3cdQrH+cv+Kmo/ItGvkfFhEZUT+GNXwAX1MVrlaj8IU7+Wv21bKpxNdWVGuNcpz2cnjKaeL6X1IxjC6gJQ381d6M5X+KPLHz1x5HupzZj3eVAyNfEac5G91iGUy1mdVXpcH6qeTqPQ5fS17RXXSKjgXS/8uWp1qf25rXxeLKpNa34fiej9gP8/pbqYkERFdID75lKRisYi5fB4zMzOYmp5F0Qhg9+XnsyZ0Ick82QTCo+v5h4hySPaZv3bM1n26MHgNEhERXUhnxidxZnIabU0G2tra0NraimAwCL+/fvvBmmphWAmqCbxmR+C1z0wHcbWG0BomK98LaGlZBXgN0uKZ13vNViciIlpRG6yFQbYmuPKx4yPn/Uk35438JVSV9CufcNSvO2cTrTSzNcHRZ0F2Xl3Jp4URERFRTUtpYWBKEhERERHROseUJCIiIiIiWhEMGIiIiIiIyBMDBiIiIiIi8sSAgYiIiIiIPDFgICIiIiIiTwwYiIiIiIjIEwMGIiIiIiLyxICBiIiIiIg8MWAgIiIiIiJPDBiIiIiIiMgTAwYiIiIiIvLEgIGIiIiIiDwxYCAiIiIiIk8MGIiIiIiIyBMDBiIiIiIi8sSAgYiIiIiIPDFgICIiIiIiTwwYiIiIiIjIEwMGIiIiIiLyxICBiIiIiIg8MWAgIiIiIiJPDBiIiIiIiMgTAwYiIiIiIvLEgIGIiIiIiDwxYCAiIiIiIk8MGIiIaN05/o1P433vex8+/Y3jegwRES0WA4Z1Zxz/7dbjuPzWE/jaCT2KiOg8e+Sv36cq7O/760f0mPNr1/s/j2997kY8+e0fgyEDEdHS+EqlklEsFjGXz2NmZgZT07MoGgHsvjykZ6GVcw5fGzqL38/pt1V89nd24d+dOIHIfQYQakImfjF26mnezPV+rWszDr2nXY9bChmEzOBPxatfv3Eh66wsJ4/jk28wxy7GT/7uOH7zcfHi6la88LtbzJHL5MR3dPnCh7s+sxMfqF/AnirrslH7jGUrC6IL6zi+8embMfykfqvd+Llv4VPX6DeWR/4a7zu0B3d//v3YpUetJBmkfOY++epGfO7uPTh08zAwcDc+//7zsXVavapfs3ZVr98qZMvVzWpF4hr71qfQwCIrZrn3pby+Kweqf2bl51l9wK4UH6vPo/GP1SP46/d9BnLJRsuZVsaZ8UmcmZxGW5OBtrY2tLa2IhgMwu+v337AFoZ16Cd/J4MQHz7whjoV+8deweWyNeLvxvUIL1vwyTt2IXOjD/ffdxb/7TE9ej0QZRAR32J3fWYX7r3awO9/7hX8RE9SGi4js2VnXrBAtJ7ICsP7ale8yqzKxauvqFQ81PJ/LaoPy09Wdj5zn6w43Y2BK+/DZ0R0/tlvfYvBAi0r1XL1rc+JKrq4xj79jQvaenXe9+WaT4ntyc/Xkxi+eWU+x7R6+Xt6evChD30I+/btw8c+9jH8xV/8BY4dO6Yn08pqxwfiu/CCqIy/cEcrPqvHyjvQ5rjF3Yl+6+/KZevfKf/JaFG/aszO9+xU+/R2UTleL36CpnJZmeXWJIIEPVForIxki47ZeiDZz5/9vBKtace/gU+bt+8FWTH/lqg86OFzN+rxNqpyIabZbiceP/YscOWelWltuPazYnvyLusuvP/zYrufvVZPINLXhLpeZQXbJO92W9fwwu56X4NPyeU+ewWOX/B8t/O9L1ZZvls2HNAG4stmsyolKV8oYHZ2FsUSsGnzVuzZfamehc4P7/SdcpqLTEl6fwmRv9eVWHeK0olT2P+5PO7Xb71TmKqnQqnt7rTW4cNdvxPE1/5evJYpNe8vVsartB37/m7GFd+orK+y/43MU50jtUccx1078/h9W0pStRQlx7iuPC5X5WRPM6ocdzm1yrPMapSRe79t6/A+roWWVyvw9+K17RzOS3dynV/78Wd2z5bnNY+1UF73/NQr97EuPTWL1p+G0h/KKQu2ecrjTFZKQiV9yFInzcG1Hvd+zFvfjZ9zBCtEphrpMTIovnkYlQY01zU57xqU2TuVlLfyNSiuvbv3HNKfF/O917XoSAPafxQ3W+tXy+xypFI59vd87ostRWle2lK5zGRZ7cfRm82yFTPYys5e5ndjzyGPY6IVx5SkjSKXrwQLknj/n79zznztrvhKcv6hU1hc32cDvy+DBf2ulj/9e2fF+k//3pXWIzQyT5lKE7JVjMVxqGBhId7QpO/sG/jaY1YZzeJrah8CuKVasCAtosxOPFbQ6wjg7TWCIEtj5WVV7k0yGHCUiST39dYq5fj4jGNemUZ2eTlYkMS5/TvrGKsFRjI16wQ7zZPNcfz429Zf+HdXDxbqMlslzMrBccjGBqcaaQ5VKkcVMj/dHXwI930G77vAKSO0hshrzBEsSPKafB+sfvuqhczlyeGby9PLxLVXrqBL4n3dvv9PDlcq6JK8fl3pf/d9pvL5OK/7It7/ad2njcmysoIFSbz/0/mfv/s+431MtLoxYFhT5J1fmeayGXfpPun3/6Kg/v3JN3TFV95dt6fC5Ar4wbyKn5kKde/V+q1eZt6dcWtd9ToZW/P9TkCPKCHr3mYj8yiiAvsNHRS5j2VBtuDf3ehTr+4fnVWV43LF/uomvFX8U7vMGiwj4dgvdOU85McV5qvaGikL2Xog55EtCCKwuVMHTLI1Qi37mSb8uhpTxJ1W0FgWwL2OeQS9TdkPRcmVoBIPH5vWwYJeRgzmMdsCLSLxZ/+o/iN/5R7rdutS2FNE5GClidyH71apPZQrR/KuZnkZqwXjH3QFRN7R1NOsFClR0fkH1kaoLhF0HtJVXXkHXl1fMlffHHXfIbPia/YZsK6/b8G6zO6bd9FaKXuV9Kdnj9WrcFvXb2WZ8vVeTvl7FtZqzs++VMrgyaP1lpG7e7fal7srC80P2K3yrXJMtLoxYFhLQkG8XaWJtCPsSBc5V6lwPj5jdtIt31E2cKxqxbweEZy8v7GnEX22S89nu6vv3mZ5np3+SiW2qgKO6bvd5WVslf+F2PmGoLktFQCcww9GzYq9ud7lK7Mrdrsq4XU0Uhaffb8tlexEyQxsRBDx76yAZefFuEUHM1bQWKYDIuwM4C1qRGWbO8U27U6IdZuK+E1VBjqtSZi3XtrAdmHPAioOjZCpDeqxq2qw35mcb9cVrzZfyDufav4qd1pv3F9JHbnmI+WKTv3KEZEVEIuK8kes9jMR1O7XlVqr4ivTb8rXbJVWLUu5Fe4avLu8ijrX4ZXvxbXq+q181q5877UqDQi79og9czlP+2J99Oq7Eu81F8Kua9+r93d+MHDju3X5VjsmWtUYMKwLlUq2zFdXd6BtQ/Wc+lXqRBEPqxc+XGELisp38ReiXKk28LVvTJvpSOVK9/KVWaUSXsQPVuAJUpVK/fKrtI7oFg37sMyPr6W1zFZxuO+7S08heOSvy2kS5l1J213ValQHavs89+Ez7/s0ZJbEcavpg2ixjh8TVdt6HsFfWylL+s5/+Sb5ebea9oU2CgYM60IQV1gpSvdN23Lax/Hf6j4OdJUp3xU38PvfsPZ9HD9w9WEo39V/PK+Pd/480lvfb6bl3P94Ud2l//WuFn3nfhnLrNyyIvseHHc+dlb2k1jiOai0lOTxFWvd9jSlckvMwlVaR2zrFn7ydzX6mNCGdI11e1JV1p15x7K1QOVFl+8aVlKLHvnu/FuflVaBz5mdNBuqsOmnwZQDhychb5SW9+u+QyqAUGxpStZdTyJPu67Fe9WF+ySGyzls9jSld+Oa8jV6Iz6nOgBX64dznqymfaENgwHDutCOD7zfyoevpJY4O7rOV6l0myk5q+P3Fbbg7Va/gXmpQhX2u/rm8Xoc684WfKD8G4T236ZorMwaK6Mt+GS5P4IZNJjrEoO7U/Vi2NKPyuu21mtPU1qEne9pcQQ71n5baUlEZdd8ynYXUwYNlXSIcqfKXVeg3BDxmTqpEpLq2Cnmm9fZ1Kl6+tKVUN0pyulHZgdVNY+1UXuaEpEnW/qRdU2WOxzb05Qk69p3dt69MFbTvtB6x4BhvXjDDmcnV6V2P4Sd72kvd55eTeTvIZQ7G0tXtzrfS+J47eNkWtG8eRRbf49yHxCtgTJruIzkumyd0e2W0gJgmVcmkuzIXPWxuQshf5Rv/n7/+o1tZj8IIptrPvUtfOvugSq5xzfCTE2+Bp+y50bIdIkquRK73v/Zch8DVSG7u05K0jxyGeuRjbIDdaVzpkWlOvF5jdQomfY271qVHYb1dbbr/fis7SKT19cFSwNaTftCGwZ/h4HWOftvG6yx/hxEREREy4S/w0DkJvsOqPQanWJUM3VHBhVyXubtExEREbkxYKD1Tz4BaMmpO0REREQbE1OSiIiIiIjWOaYkERERERHRimDAQEREREREnhgwEBERERGRJwYMRERERETkyRYwTOLZb34Zj5/Rb4mIiIiIaMMrBwy5r38WH4z/CFP6PREREREREVOSiIiIiIjIEwMGIiIiIiLyJAKGE/ja7+/GO/7v+8Xbf8Lf/Zffx9NPnzKnEhERERHRhubLZo8aL2d+hB+mhvGpBPDHh/4TfvPaCN541W49y8q5/Nbj+hUR0er1wh279CsiIqK1aSm/9CwChqxRLBbx4v/5BK77AwMHv/uXuD68FXt2X6pnWTkMGIhoLfhu/4x+RUREtDJeu2dlb9av2YBh4uycfkVEREREtDEFAj60tzXpdytjzQYMJ8/wrh0RERERbWxNQT86NjfrdytjKQFD/TmIiIiIiGjD8p/QL4iIiIiIiNz8O/ULIiIiIiIit/kpSUX9LxERERERbXjlgKFjW1j8/z/huw+NYmqKTy8iIiIiIiJbwNDyKzfhrt95Jybv/ztksyf1WCIiIiIi2sjKj1XNFwqYnZ1FsQRs2szHqhIRERERnQ98rCoREREREa1ZDBiIiIiIiMgTAwYiIiIiIvLEgIGIiIiIiDwxYCAiIiIiIk8MGIiIiIiIyBMDBiIiIiIi8sSAgYiIiIiIPDFgICIiIiIiTwwYiIiIiIjIEwMGIiIiIiLy5Mtms0axWES+UMDs7CyKJWDT5q3Ys/tSPcvKOXlmRr9aWS0tATQHAwgGfPD7fXosEREtVqlkoCD+YMzlS5idK+qxFdu3tmJ8fFy/Wx4Fo0W/WnnThQBmSz5xfD6IQxV/Lc3xRLTOic+7rCo2Nxlo8RtoC87/flsJTUE/OjY363cr48z4JM5MTqNNHFtbWxtaW1sRDAZF3bh++8G6Dhham4Noaw0wSCAiWkEyeJiaEX9DbIHDWg0YJmcDmJwLwMc/G0QkGCKAuKi5iItaVjZwWO0Bw7pNSWpva0L7JlkI/NYnIlpJ8nt28ybxnSu+d9eqkvhzePxsE87mGSwQUYX8PpDfC/L7QX5PbFTr78jFiW1vC6K1JaBHEBHR+SC/d9di0DCVD+Lls0FRGWCkQETVye8H+T0hvy82onUXMLQ2yWBhY55MIqILTQYNLc1r64bN2Tk/QwUiqkt+T8jvi41o3R217LNAREQXzqbWtXPTZnwmgKLs1ExE1AD5fSG/NzaadRUwyLta7LNARHRhraXvYfk0JCKihdiI3xu+D3zgA4YgnyKFUqmE177uSnzow7+F67rfYs6xgpb7KUkXtTehuYlf/kREq8Fqf0pSseTHiSmmsBLRwu3cVEDAX9Lvlm7VP1ZVBAnqsapz+TxmZmYwNT2LohHA7stDepaVs9wBw7aOFrYwEBGtEqs9YJiYDeJcfmPmIxPR0rQ3ldDRUtDvlo6PVT2PGCwQEVGj5or8m0FEi7PRvj94a4WIiDakQokBAxEtzkb7/mDAQEREG5LPx8cjEdHibLTvDwYMRERERETkiQEDERERERF5YsBARERERESeGDC4qN+kMOTzuQ089so0/vjHJ9H33ZfwXzMncWqqiFdmx/FXRw7jd74/hP+c+Rs8cvpZzBXzejnmwxIRERHR+sKAYR6z13teDD+Ya8aRTVvwzPadeGLzNjw1Azw+/jIeK8zgKcOHx+Zm8b1Tv8B0qQCfz6cGIiIiIqL1hAGDZrUsyHjBbCfwoSRGFErAjHg96fPjVN7A8ZlxTBSmVZAwOTeDF2bHUURJLKP/Y0sDEREREa0jDBjKKq0DsqEgKIY3tPtw9SYDr28zsLvVQHsAKBolFUj4SiIoEP+WSiJYYHxAREREROsUAwatCANzouI/K1sUigYK4vVbOwLYf0kAn95l4KNbi9i7GRCTUSzKIEG2JFSCjKJ4P1cqinUU1evlkEl0orPTNiQyekoOyb5O9CVz+v3i5ZJ96OxLijUuJ3P/yru7UJmEON4EFru4k7kvXutTx7/oHV1jVLnWuW70POe9SOR2l/06rCOXRJ/989XZh4V8pJbjs6PWscDtEhERnW8MGLTHJ/P4h1wJf/VCCf81K4eiGv7XSQMPTRh4adbARU1iRtmwYC4Cv78SMPz0zPP4Xy/8CF988Ud4bPJFPXaxzEpuD0YwNjamh1EMI3t+K1TryhB6NkpgUEdq4LBHMCauu8SQft2oJQaHi7TkQE8GKF1JxEatz5cYRiLIZvX0FZFBwhUchGIHxbYPIhbSI4iIiFYhBgzaF45NIPlKAf9yuoCHzhTwPfmvGL5/qoB/PuvDAzMBPHlWBgsGAiJQ8Pv9qvBkR+fc7ATue+lRjLyQwddf+hkOPvt9c6WLlUsjmYpiuDeiR0ghxPpj4v9pMeLDw4gO9Zz/O+erTTSOeHQI6WrloK+7aFS/X8cyaREYxfudFfVIP/rtHzkiIiJSGDBoz00XcDzvw+miXw2nxHBS/lvw48U5nxj8mMwD25rb0BIMwt8cQEtrM7Y1tWJibgrP50/jmBhemjmDsXMn9VoXKRRGBKkF3e10pi9VSXFwp1941JzNFImVvGMs77K611/nLvW8VBorzUgPjaSFhGM4MBzFUE/9VCdHWYqdku/L21bl6C5f251jta/ubbiOz3UuHClC1vKOeZYrPUsKozsmyiExv8wyhweAYVGJ1u/LvPZXje/CQAqiXOW0SrnUvR71OTWHKsfn2qY7Ha/L3KiaVt4fxzpd5eoSDouoKFOvxc68VivrrHEe1P7Wuy56MCQ+1wNdtnVVuV6sz2D147A+P87PgPOz49pvzw/W6vDlL3+5PBAR0erEgEF7U0cLXrXJj8s2BXDppiAuaxNDq3wdwBUtfoQDoh4v/t29abuYL4TOi3biVVsuwdWbL0VroBk7Nm3DFZt34tXtu3DNlrBe62JF0Ksqt7UrPRUZpG3pS6PDwMCgrUIoKzNdA4iMWOkXoxiutoui8iJmw/Do2Oq50yr3vWcIcbHvB9XtYFlR6kIyNlo+3pHIALoaqBSFYgcwHB1CokaZyopuT2YYo3rdY91piM03LtKNuKgWOu7gqzv3cXTLMlXnwp4KM4LIQJerwjeEnkHggJouzpXY5+VMpwrH+hFPJZF2FIO4hoaiiHW7Loxa+xuK4aDaP6jzU0mtqXM9ykpyT0ZdZ+Y83Ui7CjmXzjq2GS+3DoUQOyjXqTaqppvXhVhtGhjR2xwzNzo/UNFCqgzEdeMVBKgAoEeuUO+D3GYGPbWChloi/eZxIKqPu198yueT119XMla5/nR5u78HhswLRO+XPRCWn48eZIatz4fHZ30VOXnyZHkgIqLViQGD9qnODuwLGYhtK+I3Ly7ig1sL6BFDTLzet6OEf7e9iKsu8uMNW6/Ah3d24XdD7xDjr8WNl+zF6zZfgvdsuRIfDnXhY+Hr8B9f9x691sVTuc2q0tNV5Q6iWwT9thp+qDuGaCoLq4HCvHM8agsCRKUr5qqulCvmqymfOoOEGcFU9j1zGAMYxgHbTkZ6ZbpRuoGKnDjuAzUqkqIMEqLSPHzAlvolKnojcf26IRF0i/mHbBFDLp1EKt6tKojmuThgK2MdHDoiDPs+yFQ0scK6d8MXQm5TFMNh2z4mExhyp+gIje2vW63rUVRoE0OIutbZ7ypkWaG3T5dlmsnWLoFIv60SHupGLFqrlU5sU1SoR+IiGJN34V2tVPK4UyIgsQfOVsBZ89CXotr1p8smlUw79s9efir4EVe/vXgiYWsNVT7rREREC8SAQbtkchzvfvQxfOh730fvoz/Dv22fxQdDAfT+4hlEMxnsHXtezwlcVRrHr84+h2vHf4L8C99E4KVv4VfOPoIPzj6L6+eOYWdxWs+5ROoO7hjGRIVBpXzUihrUHVGdgiAq2Sk9WlR9INO1KxWIapIY1C0Q9grSPPZtVKlkLS8RLOg7pdYdZCmXFWWg7gzb9kMdr7PC5EmUaX885bzjbRG1y5SooNUsqgZEzIhBBzAZqDq36o+Sg7n7ZhBoDSq9xhEQVNkHWwDo5Eo/afAOuKrEl/cxh3QyhbhqArFrdH+r8LwexXGIN7WvR5M9ramxVh57mo6ZKlVPpF/fhRdhaFc5pcg87mjYfWs+hLAoonqBy6J5XX9iP+w3AKT55WcFRyEz5Ux+X5zvp04REdG6xYBBm7zrKygkvgX/3z6A4NdG0fzCKQS+/TBavvgggnd+E4W7v4P8Uy+iOPEEgrnDaH7xf6Lp5a/AOPZFGNkvovn4V7Dpla+g+eV7MPvE3+i1LhOZzjAq76Inqt4ZVznP9rQROa+eZorKOoc3WbESC9S+ayxYAYw1HFz5TtjuO6tK1JYyVB4abxmJ9I+odBTbDfaKaBhLzuCI9GI4qgOYTBpD0Ri6bfsWLaeL2IZFl6V5p7yyruqpLvOowEmnZ+lWG0cfe5uF7u+Sr0cdBNmfEla3lUcFKPZUNTNVqjFmmtOIDCRtF0UjQc2yW4brz3zykk7VE+XYWFojERGRNwYM2vSDD2PmJ89g6sjzmH7uZZSmZ1H48c8x89NnMf3T55D/2RgKzx5HcToLzD6F4tQTmJ14GsXJZ1AQ/85NPoW8GAoTjyF/fIlPSapGdYSuRt8d9kwlEhWQaApJZ8K6k6jQHjho5omvfOVC7o9+WWbedXYSFeGD+s6vrWUlJG/xet5tb5SZ5iHzvtN6jKLu5Lpz+827zWXVzkMu67qrL+/yQpW5fBpPNNatK9fmHerUQnqzryDZEiIDsqRjH+0Ws7+Lux5Vy5FFBVkiKKzZ3OVkpn2NOFqjFkp1hFbM454fQJvXQtVAoqHroo6q158gWx4WEUio1hOV1uj1GF0iIqLGMGDQAqFtCGzfDGPXFhQvE687NsF/ehKz09MoGEVgLo/iqUn4/G1Ayw41GMEOoGmLGMS/gQ6U/PL1xQi0btdrXSR5t9SVfqRyzF13qk3uyk0OyUF7CoiZA59y5O2LeZLuKoSoROs+EysbNOj9tT2lJ5OQT4+pRt75NQOZcjqWunvv7gScQaJWulY1ej0D9rwVnffuzO0fdKW2mBXeyjzu8jbJlB8xQeWkx2wnzexv4Xq8ayZRp4/KCpFlIAKygaE4+j0q2o3ubyVNp/71KFNmHL8FIa73QXshuyvOYntVU5JsaVEqkLT1Y5l/3pwyiflPNDosFrDSsqodt1qnZ0tMY9eFbM7zjL+qpsuJa1v2LWr4kcquz4IMNvRLIiKixWLAoHV86t+j/QO/gs2970T7h9+F4GUiKPD74JO/vGAYKJVK4nUBaHsTipvfA9/W69Eaehuatnehaccvo3lHF5p3diN4aRStb7hFr3WR5N1KWUnW+dtyUE9O8UgDUSk25fkHgX5XCohMaRqJ6Mc5yqELyWr3K2XKkexgKXPWl6EGaz5q0zbodVopQVY/hHR3rfQRM5CRlTczJ9sWRJTXnUDYK5/Gk1jPAVc5qXWLfclU1j2IA650GL2cvbwPiP3RU8tk8CGqail3R2Jdxo6ySYQ904FWlll5jw73zr87bqm7v6I8VEAq+zmYlfB616NMmTGfOKTXp4rQVoJim6pvunW9prvnpSRVnnKkU25U53TdgVkMg+ivmZIkU6Iqnwc5mE9EKjdqyOMW113Gdty1PoOqHOpeF5Wnn3n1NZGtAlYqUdX9qksELrbr11y8wTQ1IiIiDz5RETaKxSLm8nnMzMxganoWRSOA3Zc3dj9rKU6emdGvlsf2ra361cIZM3OAHHwiRGgOwmcA5267G9P//IjY0Uk0dV6Cpr73oTX2BjFzDkZ+Ggi2I9i2U6/B/AVony8gAg2xH4EWcyStcTn1GNesqMgtIENGWOxyROvH+Pi4fuXtzjvv1K+AW26pfbOlYCzv9+rxc00oGZVf7CciapRfVBR3tef1u6VrCvrRsblZv1sZZ8YncWZyGm1NBtra2tDa2oqg/G0xf/32A7YwaL6WJvi2boZPpiK16hOm/5D4xT/+gAgEAk0onvuZ+CvzD8Dzf4Ni9isoTB6F4d8kzvQ2+Jq3mSlK/pU94XT+mKkt+jcUFmCxyxERERGtNgwYahGBggwZZGuD3+eDTwQNRv4UMPmECNNGYZxKo3jyRyKwmDVnpDVOtgpYqSDmYP6I1gJSOuSPksnlBiJMBSEiIqJ1gQGDRQQE5X/lIPsvhLbA19Yi24mATc3wb9mkWhEMbBJBQkAUXgm+kv7NBZmPJAfJWhetMbIPg34UqDUs9HGn6hd95bIMFoiIiGh9YMDgIjs4i/+DLxiA711vQP41l+Ps5Ttw7rWXIfjG3QhuvQZnmzpx2rcd55ovhxF6NxAw+05Y8QIRERER0XrBTs9ERLQi2OmZiNYrdnomIiIiIiLSGDAQEREREZEnBgxEREREROSJAQMREREREXliwEBERERERJ4YMBARERERkScGDERERERE5IkBAxEREREReWLAQEREREREnnyjo6NGqVRCvlDA3Nwcgk0t2HlJGK/fc4WeZeXwl56JiNYv/tIzEa1Xa/GXnl96+QROjZ/DS8eOorm5WQ2BQKChX3r2nT592igWiypgmJmZwVy+iKaWdrzqil16lpXDgIGIaP1iwEBE69VaDBhOnjqDM5PTMPLn0NraipaWFgSDwYYCBqYkERERERGRJwYMRERERETkiQEDERERERF5YsBARERERESeGDAQEREREZEnBgxEREREROSJAQMREREREXliwEBERERERJ4YMBARERERkScGDERERERE5IkBAxEREREReWLAQEREREREnhgwEBERERGRJwYMRERERETkiQEDERERERF5YsBARERERESeGDAQEREREZEnBgxEREREROSJAQMREREREXliwFCDYRTE/+VhlObUAD1UXuflTHpu+dKA/I+IiIiIaL1gwGCjKvxymJlG4dkjKD3z9yg9/9cwjv2VGP5avP4rNcjXalx2GKWX/g7G7AsiiMjD5/OJleiVERERERGtAwwYNBkoiOo+jOkpFJ4fw9z37ofxRALG2F+KIOEvYPziL2E8L1/Lf8V7ORz7C+Clu2CcexIoTWO6MIOJuUnkSwVzpUREREREaxwDBq1olMT/FVEcew6zD9yP/P/3v2G88hyM2RPwFXJAXv77CvxiCBTFv8WT8BVPiH9/Dt/U05ibO42jE8/jx7lHcWpmXK918TKJTnR29iEpNu3FnCeBjH6/+uSQ7OtEX62DWCHVyiaX7BPjVnuZEREREa0uDBi0QmEOOPIw/F/7Iprv+wc0F84iEMgj0GzA3yoKSgy+FnMQoQXyJb9YxicCiqJ4PYevjX0fdz75j/jKsRSePvOcudIlS2HgsEfVNpdEYki/XjYZJOoEKWtFpH8MY2P9iOj3IoJA10AEI2Ou8VWZgU6CUQURERER/M888wyOHj2qhueeew7Hjx/H3JyoPG8wuVMzePCnZ5E8HsY3tkWRCn8IJy75XRRC+4HtvwvskMPN4vVNKDZ3QnVX8Pvw0swmfPG5x/GNF36IJ089g4mps5gt5PValyYajyM6lK56NzyXTiIVjSKq31MDomGE9UsiIiKijUTW72dmZjA2NoZnn31W1f1lHNDI4H/rW9+Kt7zlLYhEInjTm96EV73qVWhtbdWr3jhemQrgX6Y78X82XY97RbDwrcs+jOzFN2N2x/8FY6cYdv1fwCX/QQwfh795NyYKAfx0YhP+R3YH7n0xh6MTx3Fu9ixKhdLy9XsOdyMWHUJi3i3/DA4PAMP9Mf3eJpdEn0q7MYd56UCZRHmaHMp30dX4HgzJVo2u5U/bMVOE9FDl1r1jun2/9N1++zQ19CXFFG8q/UjPo173DAGpAXTJZW3bd263D8knZPl1YSAFDPXocXVbXFz7aO2bOhfzl5fblOelkiJlH9ZHCw8RERGtLm1tbWhvb8cb3/hGvPnNb1b1fxkHNDIwJUmbKgVxrG03nt5yNZ4SwzMXXY3x1ggKm7vg39INX8cvi+Ftajjr34lHJzfj/5y4GP/zxa34+WQBs/kifIYMFuSTlvRKlyyMWH8cqWTaWTnOpDEUjaHbfbtcVlC7koiNyrQbOYwgMtDlDAp6oNNyxDA6jEyPrqBG+tX8cUQxrJavl7bTuJTYh3S3tU+jGM702CrtZmW7ByN6urVfVtAQQuygtaw5TbarDB+IiSmNCcUOYmwkDkSHMSrX0W8emay492T0ODmMiABsRwwH5T5GgfiIHH8QsZobkvvfhWRstLyPIxERmMidD8mAL4Vk2n72MkgPRRHrDpn7ZW1bbzM6fKDO9oiIiIjOLwYMWsBnoK00i/b8OTVsLk2hvSWPoF8EAUZRDYD4d24CD5+7GH97vBOHXtyJ8TxEoCB/q0HOZ65rWUV6MYwBVLoyiApqYgjx/vkV5oxqdrBXOCPoFbXQobRcWC83YgsEQjH0x90V2hUQH4GuowsiABBBkNgpswUjcxgDqThGKjOo/TpQ3m87cQyD7mNcJNUHRGz3oK0cI7GFr1fuvzhDB2wLRnpFUKOOL4TuWNQZ8FnBnms7ueTgvPUQERERrQYMGDT5UNWSz4eizy/+1YMonpIYX1SDXw2zwVZ8N38FHslvF0v50OyXbQo+1bJQIR/QulzMSme58pxLIykq2N3zbv/nkBWzyLv59hSXLplbk8nKqciW02wqg8rUyWb1Ompzpw05hhopQtGwqylEvLf6XuTkTlfpWxAKiwNU+11RrVLtncpUm9kHZAF9GlypXuV0J7PQzVQna+gaQEqEC1kxQ6g7hmgqCTMm8wj2xLrNOKjxVhMiIiKi84UBg4384TW/PwCfGvzwGwFRQH4ERPAQlO9lgBBoRbG1FYGONrRf1Kbm94vpcvDp/5b719tCsX7EhxIqdchsRej1TBeKDldSY8qD7S66mWbjGux392swnzzkMdjv1C9UJFx/WY9KtXufGjwUUyPbtYRkqpJtW/bjtVKdHINOZdKtOComqxrsLWOrCRERrW0nk/iT616Nf/OlBu9+EZ0nDBg0+cNts/k5TM/NYGZuFlOzU3hx6kUcnfgFnjrznBjG1L9Pnn4WE4VJNLc1YfO2dmzZ1oH2lk0IBAOqYUGGC+oXn5dVBN0qdShZzn+fLwR5U967tSCMcFTetLffs79AxD5ad/dVS0KVJ0GpO/flCv3yV6q9trtQaj2pLGq10US646qFSLVqxLsdwR5TkYiI1pYnvyQq9Ncl8KR+v6y2x/CHD/0jbv5CemXWv2Jy+JfPinL5bBKn9RhaXxgwaIVCAWenp3Dm7KQYxnH67Bn86EQGD7z4r0gdewj3iyGV/b7698WzJ2D4DbS2t2Lr9i3o3H45trdtRUtziyhRH0or0JlB5sVjYABD8X7PSrOZO9/jTMvJJCqdh2UH6oFBx1N4ckmz5aJC3w1fRs5tZpDosaXlyD4a0SH02Hfaak3oNavWK1KprrbdTNJRFg0FV9XWI4/R/j7SrVqIBpMpxO3NC0xFIqLzIoOvyrvW9sG6g/14YuUqvytGH89y3oVfQDlc+dFn8cU/+ikefVyPaJhZqf5qleVO/9PvqfPy1cflPB/C3Z/oxpV6WkPq7v8KlJlDCO/602dxx9Vfx6Mn9ShaVxgwaPliARPnzuLk+Bm8MnEGL4+/gm+M/TP+19F78aVn78U9zyTxJTH872fvw/PnXkJRdnIW/zVtasF7XvV2/PLON+Kyi3Yi2Na8Mp2f1RN3ouVKdFUybWYk7uynkAijvEikH6My7lCPTTWHrqxYb7m2qjtJq+WX77Gq0eF+YNDaZg8yw6POTtAH9ZOTrH1WT3rSKT2qUp2a309gyftXZbs9WYRVWVjBlewPUu8xp3I9IyIgsK1H7FvYcZ7MFqKUCHoqo81WEznWfj7k4Ig9iIiWQlUkPwT892fx9Yes4Yf4DLJr9E6wrFCn8UZxHF+85Av4k39yfUHL4617l1tWnn8P/7LYiq3Yxm//EbDrEv2+npM6zei6t+Fz3wPu/j1X0CDX9/InxHn5R+D3DmOnqHh//aM1/tYvSgQflud+2ddbIYOeW7/wZuyUXTxp3fGVSiWjWCxiLp9XP+YwNT2LohHA7stX/p7nyTMz+tXy2L518b8f8cBjp/Ff7xvHw89Nq0AgEJzCxVd/BU1bfgFfYA4QZaISjXS2kYwJfH4f2jdtwqeu/Ciu3vYaPHHmKJ6bzOJdu96Gt+66ypyRLgj5Gwdd2f6G+2esNNk5OxEexUGmHtEGMj4+rl95u/POO/Ur4JZbbtGvqisYLfrV8jh+rgklY7lTSFcRWVH9wNfxrq/9d7zLqxInK9i/B9zxUP/C7mhfMDmcPhnCNn08p0/mxGvb96o8ni+F8cU/jWGbHjWfDBi+gF32cjkv5SCDnbfh+EefxYev1qME5zFk8OTjEVxpm96QNXce1z6/z8Cu9uX5oV6pKehHx+Zm/W5lnBmfxJnJabQ1Geo3GeTvrgWDQfj99dsP2MKgXb6tFZduDWBru18UpAgEWsSJa21Be1MrWgMtaAu2oCXQjBZ/s3rfKl5vCrTi4sAWXLJpBy5tD+G6S9+KD3b+GvZsuUKvlS4M+cN2rvSfCymTQI9n3xMiopXx5Df/I9Kf+IR3sGBXvgsuh/mpLVbKjDU47+yb6S5mOk1lnmqpN2Wygiu3o/7Vy6h0mTrrOJnGnR+oTP/tO9Ll1gTVt+D3/hz43n/Eb5fX56K29yHcjW/jc2o9rmOtUw5m/wXv6U7OY/mTf6qW75vDo3e8rbLOz2axq2awoFOLyvO7WlM899/cF8d5s5e9GOa11jg4j8W53VrTaL1gwKBddnEz/u0vb8Et0R345K+H8PvvvQS/+6br8bGrfhM3X/Vv8bErP2gbPlB+/Vt7bsSrOsLYFGzFjtZt6vWWlna9VjqvctajT91pTxeItT89GQxbKVZEROdFDidEZfvmSCNfhH+OW+8AbrHSld4p3tsq27KS/NsP/Bt8sZzS9I94/R+9bV4F8+7f+0PgVnOeL/7Re8X7ehVqsZ1Mt7nOr/0Vur/wIVHhNO/AV12HrOCqFhNrP2TOvAgOdAVV9i34+n//T8A7/8rc12rpN1f3i+X+ETfjvfiMWo/9jnz9crgV/1jetuzHcKtn5VhWot+Gz11dmf8WfEGlJFWY8/zLDT8sz6OOx7OfgQwWPoSn/sg2/w16klJ7/92eFJPu0OuR5Y8/+kPPNK0nv+Q8lsp2F3oMtFYxYNA62gKIXnMR/sOvXoz+927H773nUnz0muvx0Stj+O3XfxC/LYOEq0SQIIbf1sHCR18XQ8+r34tLN4UQ9Af1mlbiKUnUENujT1dF6k95fxgsENH5lsXx7723wTx7UXm+1UrhCeFdHxWVbuspPSeTOPwF+3Qpgg+Linn6gcrdfan7j/6k3Jqx7dc+ISrlP8WJmv0E/hPusCr122Po/YT49xP/WE7Xca5DVEy/9OeObUhXflRU/r+3XB1t65WDbX8FtX9e2378sAgO3PP/iajE6zeSnAd/hVt+rfIH4srfkIFT9Scknf6nL+BuUT5/aJ//1+znpcb+V3HlR23B0vZuvOud38bxl/X7KrovqfxyUXm7CzwGWrsYMNgE/D60NPnQ1uxDq/i3JdCkUo+8BpmiFPQH9NJERESrSe0KYEWNjqovZ5GuNl1UHru/J4IS/VZ6/aXuOyONbr/CXil1kgFQtW2EsatORbdx9crhz3GrlXajBjO1qdq2T7/0U+CdYt/0+2rUPFb6lDV84D+K7VQLtHJ49IFv1ygfaaEdju2pRGaHbC9XRkSA+EcydcrZarSwY6C1jAEDERHRuiMr0sBTL9XKS29QnYrv+dNoi8lK+U+VFB7bYO/A7HB12Hb334OVPuUYvDupzw+YFumk7OtgTyWSKUx6WjUqlUunYcmgwJ5ytMBjoLWJAQMREdG6Y6akpP/o8NJSQ1RLQpW0G3nH/bwGEmZLwr9k3AHQQlKvlkCWwwLumm+79M1V0oHMVhKLmsfVSuMthJ0iMLk7szx9A05nvo60K72pEdt+7b+LYED+sNwXVH+HhR0DrWUMGIiIiNajq/txxydkGo37Nwdkf4AGn2Sj+hZ8G5+7wz5/Bl/9vT/HzR+158+vNCsAcnbMffJL8kfOXE+CaqgCu8A0pqrlUKMcr+7GzfhzHLZ1DFf7ql8rV/dW6Zgsytajw7DZN+BDjidHPflPDZ5HF3dAc/qf/rBGSpLrOE9m8ZR+udBjoLWLAQMREdE6ZT456M36EaLW8DYcjzRe2ZfrUE++KS9v/hCcZyrOSpFpMa5jUU8tsj8NyarAyumeldYIfk09gUmuo96TnCqu/Kj8wTt7OdQqR/lDaebTpKx9fTTiTvsRQdCfyrv18ulQ1jq/gF2/UeXpTpIIWv7wa3+Fp9R+m8OtLzeQ9lRNOZg013MnPlEjJSmEnfbjdvy2xwKPgdasqj/cVjAC6NxgP9xGRETLiz/cRkTr1Vr84bbxibM4PTHFH24jIiKiFaJ+6Mud3nQhmD9eVvOH4YhoWTFgICIiovrUk3JWw9NvZLrPBUiJItrAGDAQEREREZEnBgxEREREROSJAQMREREREXliwEBERERERJ4YMBARERERkScGDERERERE5IkBAxEREREReWLAQEREREREnhgwEBERERGRJwYMRERERETkiQEDERERERF5YsBARERERESeGDAQEREREZEnBgxEREREROSJAQMREREREXliwEBERERERJ4YMBARERERkScGDERERERE5IkBAxEREREReWLAQEREREREnhgwEBERERGRJwYMRERERETkiQEDERERERF58pVKJaNYLGIun8fMzAympmdRMALovDykZ1k5J8/M6FfLY/vWVv1q4SbvfDWM2TMwink9BjAM+X/ifyX9wkHEWj790sYXaIZ/03Z03PK0HkNEtDGNj4/rV97uvPNO/Qq45ZZb9KvqCkaLfrU8jp9rQsmo8kVORFSH32dgV3ulzrhUTUE/OjY363crY3ziLE5PTKGtyUBbWxtaW1sRDAbh99dvP2ALg6aChYIIYEqF8uAzxOArIiALdPN2BDt2moN4HWhtEQVcFBdMwTH4MANf/oxeKxERERHR2saAQTMKs7IpQQxFc1BBQx6+1osR+KV3oynycTS/5RNqkK/94XfDaNkhFsmLQcyrl/OVSua6iIiIiIjWAQYMtRgGfJsvQfBV70Xzm0XAYBsCv/ReGK1hEVe4U5WIiIiIiNYPBgw1iYChuQP+9p3wb94FX9vFavC374LRcgkKxjbkp/0wSj6zv8MyyiQ60dnpHvqQzOkZ7HJJ9DUy31qijimBjH67sjJIyHJLnJ+tzZdDsq8TF2LzuWTf+rheiIiIaMUwYFiCUtGH2bMBzMmgoahHLqPo8CjGxsYqw0gEA12d6LPX7jIJdHYlERt1zpfN6umrgqyQr+ZKaQT9stz6I/r9xhGKHRTXzEHEVv4ZB0RERLRGMWCoyac6Q5emXxHDaRTPnTSHKflajDt3WrUu5KdE0DATQLGwwk/biPRjbHQYGBgsV74z6SEg3u+s8In5NmDdl4iIiIhWAAOGWmT9f24SxuTLyL/4KM6mv6SGuWMZFMdfFkHEhJpJBgoyNakw40exuMJBQyiG/ngKybQZMYTDURE1ZFH75r1OubGGvqRtftc0VxqQSo1y5cqoNJbyOHP5RMZMq7HWU5mcEO97MISUah1xr7/MkVbVh6SrhURtU+x3RqXQVFpZnKlbtlYMuV3Hcer9sx9LeR5zmqPlRnCnhS1fypCzrPrcB6vKTJST+lfMY23Yel9eTu/vgo7VxdqWfiuZaUpVtkNEREQbEgMGN9kZodwhQVT+my9CceYcZp/9Ec7+69+rYfboD2DMnoW/dbOYRcwjZi/mRdAgAgYZNJRWID3JTgYJKZ1zFIr1I54aQJdnvr+s0PcgY0tvGonpSaqS3gOMVNKZRocz6PFcl7ehnkHggLWOqHiv1yFbRcZGEEcUwyptqh/zGj/kfnQNIFLejwNAYkCEGC7iOBM4oOY5qJpUMkhjRC8jtysbX3SlONItyiUJHVcJWWTlCm3BVS4r9jASxvxsHLPC3WNbt2zZyfQsR9Ag192FgUhl3QfEUQ3MO9gh9KS7zXl0c1EmLU9VZX/KLU1LOlYnGSR1JWMYtbYjzl1koItBAxER0QbGgEGrdFrWLQTyn2ALApd1o4RNmHluFIXjT6lh7vmfwNfUhpZXvx0INOugwYfCnB+zUwEROATMdaykcmXQzL8fiYsKprwj7LqLnEsmMBQf0RVsUyQWUxXHzGFRKRfT7OlLodgBDEeHkF5gxTg6fKCcFqWCGFGZzzZYx5y/HyHEDgyLEMMtjn5n7hX6bTsf6o4hmhKVZfUujHC00hIja9tD8bitYp1DOplCvHte+CJ3SFTg4xhxFgwOyEBooQXjVmXdZpnrN2UiwOp17luk3xZshboRE8dnxo1LOFY7EbglhsR2D5jXh0mU8UgcqWTacV0RERHRxsGAQZM/waAEW+HbtAO+LbsRvOKd8O24BoWz5zCXfVTPAMy9eASluXNouvyNaH3NdQhu74R/83YVYMifZJgTQcOKc90tjvTLu8GjGIZsbbBSc8yKYjQcVvM45SBvOs+fFkJY1Cszjdb2tUjYvjeSVZmtx2s/qoiKirF+WWZPZeqyt0qE0B2rtMTIvh7x7n50x639knfh46hWh1Z346tsK2QWTNWKc6NpPF7rni+CeUUqtlxJZeqytUos/lgdxMypatsV56YSiBEREdFGw4DBYgC+QDMCV/wKmt92K9re/Wdo6f4Mml71HjRf8RY0X3a1mEEUlxiaLnk9Wn7pLWh97bvQ8d4/wNYP/L/i3/8HrXveAZ8IOEqlcnPFCqgVBIQQOyhbG1IYOFy5Ez6/Ml9Ra9r5tJj9UJV0+xOiRp2tEqrFYSiNjExdGjIrzDKdS7USyLvwtSruDaTv2JlPG7LSeKyUKQ8LXLeiAqMuJGNWapkIDm0Hu6RjtWt0PiIiItowGDCUiUq+DBi2vx5Nr44iuOd9CITfjsC2TgRDr0Fw1+tEaYniEkMwtMccd/EvoeXV3Wi76r1i+DU0iXl8wWa1qhWjU1qcqTlOqiO0YrYWVE+j8Zpm3vG3KvCVdVVkVYL8cvHYD3W3uxadZjNS45GgoTAiMjUqk0Um3q3SeVTFWr4XBxmNdVetuKuWBFX5dmq0H0At1det+xzUkEsnVdqWZyCyyGN1UC0J9r4QmjwXDCSIiIg2LAYMZQZ8/qD6oTb1A23Nm0Xlv021OvhbNsO/aWu5hcHftkV1ePYFmuBvahXT2xHYtE2MuwiGP2DLb1pe6o56TwbDo5Vc9kzC/fsGGRweqOSrR3qHER3qcXTWzSTNfg7VpuWSgxjAMKz0ebOCm3A8fahnSL9eEGeKkv3pS5HuuHMb4hgSdTfiDjRySA66O0pHVFrOQM+AqgwrMvdfHKEcFev2qEJHelU/jh5nwUCsfl6/ggWTHZQxhITtpGUS8ilStbkDDXWeHAfb+LFWe/KVop/AVe44rpjnIt5v79dAREREGwkDBjf5C2yloqjzOwf16CPrCUpiHvd0o1RSg6339JKlBrocefFdWfnEIecddVk3NB9Xag3mU4/KfWpFJfCgfsKPNU9PVt8lrzJNPSHnoK1yGOk3U5ysbaS71VOQFiaCXvXkJLmOKk9gkk9S0j9KZ+5HGt2u9KJqIv0jiIuAx1xmEOifv4wKRsTYSoXZDDQQjcErXpDzxA6OYjhjrVsMKvVpOX7gTHZSN588ZK073e1ML6pKnQfdsV0Mg+ift8zijtVJ9oUZich+MPq43dcTERERbTi+UqlkFItFzOXzmJmZwdT0LApGAJ2XL7lmVNfJMzP61fLYvrVVv1q403+6CYHmFgRe+0E07f338F18paj8l9QDkOZeeAxTj3wd5374JTXvprd+GO1v+RCaL3+jiA8MMY8P+dyzYvo9mHo0CZ+RxxV3nFTzEhFtVOPj4/qVtzvvvFO/Am655Rb9qrqC0aJfLY/j55pQMvST8YiIFsDvM7CrPa/fLV1T0I+Ozc363coYnziL0xNTaGsy0NbWhtbWVgSDQfhlyn0dDBi003/aDn/AANovh7F5D4q+nebvKYhRxbOvoHjqeRRO/ULNG9gWRnD7qxDYvEO9F8WI0tRpFF45isKZF+EPBkTA8IqeRkS0MTFgIKL1aqMFDExJsjNKMCazKL34ryg8+03MPnU/pp+4H3NjP0Lh9DE9kwggRFAgx00fSenhfsw+K5Y5nVXrICIiIiJaLxgwWPxNqkOzD0VRKDMIBiYQMCaB/DkYhVndN0HeiZI/0maoccasmDZ71hzUPCJYkDlMAbEuIiIiIqJ1gAGD5mvdav5qswgc5NOPgi1BtHT40bQpIEYF4QsGXIMYJ8c3ifnlIN+L8f6mZgQ2bdFrJSIiIiJa29iHgYiIVgT7MBDResU+DERERERERBoDBiIiIiIi8sSAgYiIiIiIPDFgICIiIiIiTwwYiIiIiIjIEwMGIiIiIiLyxICBiIiIiIg8MWAgIiIiIiJPDBiIiIiIiMgTAwYiIiIiIvLEgIGIiIiIiDwxYCAiIiIiIk8MGIiIiIiIyBMDBiIiIiIi8sSAgYiIiIiIPDFgICIiIiIiTwwYiIiIiIjIEwMGIiIiIiLyxICBiIiIiIg8MWAgIiIiIiJPDBiIiIiIiMgTAwYiIiIiIvLEgIGIiIiIiDwxYCAiog3JJ/4jIlqMjfb9wYCBiIg2pKC/pF8RES3MRvv+YMBAREQbUrPf0K+IiBZmo31/MGAgIqINqaWpqF8RES3MRvv+YMBAREQbUpP4CxhgNwYiWiD5vSG/PzYSBgxERLRh7Wifg2EwNYmIGrdTfG9sNAwYXOQfDvm3o1gy8Ngr0/jjH59E33dfwn/NnMSpqSJemR3HXx05jN/5/hD+c+Zv8MjpZzFXzOvl+EeHiGgtkX8Et7aJ725+fRNRPeJ7YmvrxkxlZMAwj9k+nRfDD+aacWTTFjyzfSee2LwNT80Aj4+/jMcKM3jK8OGxuVl879QvMF0qwOfzqYGIiNaWTcGCCBr4xCQiqsVQ3xNtQQYMG5rVsiDjBfNGkw8lMaIg/obMiNeTPj9O5Q0cnxnHRGFaBQmTczN4YXYcRZTEMvo/tjQQEa05bSJo2LV5DgE+apWIXOT3wqWb8+p7YqNiwFBWaR2QDQVBMbyh3YerNxl4fZuB3a0G2gNA0SipQMJXEkGB+LdUEsEC4wMiojVP/kHcuUkEDmJobymqSoJP30Iioo1Dfu7l519+D8jvA/m9sNH5RIXXKBaLmMvnMTMzg6npWRSMADovD+lZVs7JMzP61fLYvrVVv1q4gqj1Fw3zT4NsIbDSi16eKWG8WFI94ncGgW8f/zH+8fhP8ey5V9Dhb8U7tr8a/+l1v44tTW0qmJAC4s9O0L/0WCyT6ETPkH4jxUcw1h8RL3JI9nUhGRvFwdjSzlMu2YeuZAyjB2NYvjNu7l+2fwxqdxcqk0BnDzAy1o/FLO5k7stAKl51fer4s/26XNc5Va5DiA7XuG70PPGRRZ67xZLbTYSX+TqsI5dEX9cAUvotEMXw6EE0+pFajs+OWscAFrTdtWR8fFy/8nbnnXfqV8Att9yiX1VXMFr0KyKi9aUp6EfH5mb9bmWMT5zF6YkptDUZaGtrQ2trK4LBIPwN1FnZwqA9PpnHP+RK+KsXSvivWTkU1fC/Thp4aMLAS7MGLmoSM8qGBXMRUcCVVomfnnke/+uFH+GLL/4Ij02+qMculqzkimABIkAYG9PDKIaRFVNocYbQk8jo1xtbauAwqpeEuO4S9gi1Eea1er6LVla0O5eyURmgdCURG7U+X2IYiSCb1dNXRAaJzj4kbR/iUOyg2Pb6DBaIiGj9YMCgfeHYBJKvFPAvpwt46EwB35P/iuH7pwr457M+PDATwJNnZbAgm6l8KhqThSdbInKzE7jvpUcx8kIGX3/pZzj47PfNlS5WLo1kKorhXvst3hBi/efx7us6Ex8eRnSo57xXbFedaBzx6BDS1cpBX3fRqH6/jmXSIjCK9zsr6pH+89uqQkREtEYwYNCemy7geN6H00W/Gk6J4aT8t+DHi3M+MfgxmQe2NbehRTbfNAfQ0tqMbU2tmJibwvP50zgmhpdmzmDs3Em91kUKhRFBakF3O2X6UmenNTjvYioy/aI8XQweNWd151ZMX7mKtbzL6l5/nbvU8m6wWKavfFDm/OVj6UvWb3kJx3BgOIqhnoTH3fUKR1mKnZLvy9tW5eguX9udY7Wv7m24js91LirHJVjLO+apv8+NC6M7JsohMb/MModlboyoROv3ZV77q8bLdC+IcpXTKuVS93rU59Qcqhyfa5uV69Usyy5zo2paeX8c63SVq0s4LKKiTL0WO/NarayzxnlQ+1vvuujBkPhcD3TZ1lXlerE+g9WPw/r8OD8Dzs+Oa789P1hERESNYcCgvamjBa/a5MdlmwK4dFMQl7WJoVW+DuCKFj/CAVGPF//u3rRdzBdC50U78aotl+DqzZeiNdCMHZu24YrNO/Hq9l24ZktYr3WxIuhVldvalZ6KDNK29KXRYWBg0FYhlJWZrgFERqz0i1EMV9tFUXkx86nPc/56LXLfdU69mXcvK0pm/w3reEciA+hqoFIUih3AcHQIiRplqvqNZIYxqtc91p129iOpJ9KNuKgWOu7gqzv3cXTLMlXnwp4KM4LIQJerwjeEnkHggJouzpXY5+VMpwrH+hFPJZF2FIO4hoaiiHW7Loxa+xuK4aDaP9m9Rk6zUmvqXI+yktyTUdeZOU830q5CzqWzjm3Gy61DIcQOynWqjarpVn+MTFr2e9HLmBudH6hoIVUG4rrxCgJUAKA60uh9kNvMoKdW0FBLpN88DtVPQq6vev8cef2pfhHWcejydn8PDJkXiN4veyAsPx89yAxbnw+PzzoREdECMGDQPtXZgX0hA7FtRfzmxUV8cGsBPWKIidf7dpTw77YXcdVFfrxh6xX48M4u/G7oHWL8tbjxkr143eZL8J4tV+LDoS58LHwd/uPr3qPXungqt1lVerqq3EF0i6DfVsMPdccQTWVhNVCYd45HbUGAqHTFXNWVcsV8NeVTZ5AwI5jKvmcOYwDDOGDbyUivTDdKN1CRE8d9oEZFUpRBQlSahw/YUr9ERW8krl83JIJuMf+QLWLIpZNIxbtVBdE8FwdsZayDQ0eEYd8HmYomVlj3bvhCyG2KYjhs28dkAkPuFB2hsf11q3U9igptQna8dq6z31XIskJvny7LNJOtXQKRflslPNSNWLRWK53YpqhQj8RFMCbvwrtaqeRxp0RAYg+crYCz5qEvRbXrT5dNKpl27J+9/FTwI65+e/FEwtYaqnzWiYiIFogBg3bJ5Dje/ehj+ND3vo/eR3+Gf9s+iw+GAuj9xTOIZjLYO/a8nhO4qjSOX519DteO/wT5F76JwEvfwq+cfQQfnH0W188dw87itJ5zidQd3DGMiQqDSvmoFTWoO6I6BcHx5Bd559hegagmiUHdAmGvIM1j30aVStbyEsGCvlNqf6JPLivKQN0Ztu2HOl5nhcmTKNP+eMp5x9siapcpUUGrWVQNiJgRgw5gMlB1btUfJQdz980g0BpUeo0jIKiyD7YA0MmVftLgHXBViS/vYw7pZApx1QRi1+j+VuF5PYrjEG9qX48me1pTY6089jQdM1Wqnki/vgsvwtCuckqRedzRsPvWfAhhUUT1ApdF87r+xH7YbwBI88vPCo5CZsqZ/L5Y0c8nERFtJAwYtMm7voJC4lvw/+0DCH5tFM0vnELg2w+j5YsPInjnN1G4+zvIP/UiihNPIJg7jOYX/yeaXv4KjGNfhJH9IpqPfwWbXvkKml++B7NP/I1e6zKR6Qyj8i56ouqdcZXzbE8bkfPqaaaorHN4kxUrsUDtu8aCFcBYw3l4BKb7zqoStaUMlYfGW0Yi/SMqHcV2g70iGsaSMzgivRiO6gAmk8ZQNIZu277Jx5o6910Miy5L8055ZV0NPopWBU46PUu32jj62NssdH+XfD3qIMj+lLC6rTwqQLGnqpmpUo0x05xGZCBpuygaCWqW3TJcf+aTl3SqnijHxtIaiYiIvDFg0KYffBgzP3kGU0eex/RzL6Mkf4/ixz/HzE+fxfRPn0P+Z2MoPHscxeksMPsUilNPYHbiaRQnn0FB/Ds3+RTyYihMPIb88SU+Jaka1RG6Gn132DOVSFRAoikknQnrTqJCe+CgmSe+8pULuT/6ZZl519lJVIQP6ju/tpaVkLzF63m3vVFmmofM+07rMYq6k+vO7TfvNpdVOw+5rOuuvrzLC1Xm8mk80Vi3rlybd6hTC+nNvoJkS4gMyJKOfbRbzP4u7npULUcWFWSJoLBmc5eTmfY1sqTfJVEdoRXzuOcH0Oa1UDWQaOi6qKPq9SfIlodFBBKq9USlNXo9RpeIiKgxDBi0QGgbAts3w9i1BcXLxOuOTfCfnsTs9DQKRhGYy6N4ahI+fxvQskMNRrADaNoiBvFvoAMlv3x9MQKt2/VaF0neLXWlH6kcc9edapO7cpNDctCeAmLmwKcceftinqS7CiEq0brPxMoGDXp/bU/pySTk02OqkXd+zUCmnI6l7t67OwFnkKiVrlWNXs+APW9F5707c/sHXaktZoW3Mo+7vE0y5UdMUDnpMdtJM/tbuB7vmknU6aOyQmQZiIBsYCiOfo+KdqP7W0nTqX89ypQZx29BiOt90F7I7oqz2F7VlCRbWpQKJG39WOafN6dMYv4TjQ6LBay0rGrHrdbp2RLT2HUhm/M846+q6XLi2pZ9ixp+pLLrsyCDDf2SiIhosRgwaB2f+vdo/8CvYHPvO9H+4XcheJkICvw+9fPg8pefS6WSeF0A2t6E4ub3wLf1erSG3oam7V1o2vHLaN7Rhead3QheGkXrG2r/Wmld8m6lrCTr/G051PpFWZViU55/EOh3pYDIlKaRiH6coxy6kKx2v1KmHMkOljJnfRlqsOajNm2DXqeVEmT1Q0h310ofMQMZWXkzc7JtQUR53QmEvfJpPIn1HHCVk1q32JdMZd2DOOBKh9HL2cv7gNgfPbVMBh+iqpZydyTWZewom0TYMx1oZZmV9+hw7/y745a6+yvKQwWksp+DWQmvdz3KlBnziUN6faoIbSUotqn6plvXa7p7XkpS5SlHOuVGdU7XHZjFMIj+milJMiWq8nmQg/lEpHKjhjxucd1lbMdd+1edG7kuKk8/8+prIlsFrFSiqvtVlwhcbNfv8v1iOhERbWQ+URE2isUi5vJ5zMzMYEqm4hgBdF7e2P2spTh5Zka/Wh7bt7bqVwtnzMwBcvCJEKE5CJ8BnLvtbkz/8yNiRyfR1HkJmvreh9bYG8TMORj5aSDYjmDbTr0G8xegfb6ACDTEfgRazJG0xuXUY1yzoiK3gAwZYbHLEa0f4+Pj+pW3O++8U78Cbrml9s2WgsHvVSJan5qCfnRsbtbvVsb4xFmcnphCW5OBtrY2tLa2Iih/W8xfv/2ALQyar6UJvq2b4ZOpSK36hBk+9Y9f/OMPiEAg0ITiuZ8Bx/8BeP5vUMx+BYXJozD8m8SZ3gZf8zYzRcm/sieczh8ztUX/hsICLHY5IiIiotWGAUMtIlCQIYNsbfD7fPCJoMHInwImnwDOjMI4lUbx5I9EYDFrzkhrnGwVsFJBzMH8Ea0FpHTIHyWTyw1EmApCRERE6wIDBosICMr/ykH2Xwhtga+tRbYTAZua4d+ySbUiGNgkgoSAKLwSfCX9mwsyH0kOkrUuWmNkHwb9KFBrWOjjTtUv+splGSwQERHR+sCAwUV2cBb/B18wAN+73oD8ay7H2ct34NxrL0PwjbsR3HoNzjZ14rRvO841Xw4j9G4gYPadsOIFIiIiIqL1gp2eiYhoRbDTMxFRY9jpmYiIiIiI1iwGDERERERE5IkBAxEREREReWLAQEREREREnhgwEBERERGRJwYMRERERETkiQEDERERERF5YsBARERERESeGDAQEREREZEnBgxEREREROSJAQMREREREXliwEBERERERJ4YMBAR0QWzffv28kBERKuTr1QqGcViEXP5PGZmZjA1PYuCEUDn5SE9y8o5eWZGv1oe27e26ldERHShjY+P61fLo2C06FdEROtLU9CPjs3N+t3KGJ84i9MTU2hrMtDW1obW1lYEg0H4/fXbD9jCQEREREREnhgwEBERERGRJwYMRERERETkiQEDERERERF5YsBARERERESeGDAQEREREZEnBgxEREREROSJAQMREREREXliwEBERERERJ4YMBARERERkScGDERERERE5IkBAxEREREReWLAQEREREREnhgwEBERERGRJwYMRERERETkiQFDFXOFIl4eP4cHnnge/zv9JA6PPo2Hnn4BJyamMDVXwOTMHKZm8yiUSnoJIiIiIqL1yVcqlYxisYi5fB4zMzOYmp5FwQig8/KQnmXlnDwzo18tj+1bW/WrxXvh9CQyvziB1BNZvDI5jSkRHPh9QFtzEKGL2nHDVVeg+zWXiNebYBgGDLGM3ydmICIih/Hxcf1qeRSMFv2KiGh9aQr60bG5Wb9bGeMTZ3F6YgptTQba2trQ2tqKYDAIv79++wFbGGwmpufwo+dO4OuP/gLPnRjH7u0X4brXXYZ3vOYyvDq0FaenZvH1x4/hX55+SQQWZ+ETgQJDBSIiIiJazxgw2Mg0pMyxV/DMK2fx1s6d+EjXa/Ef3vVG/Ifr34B/3/16vOeqK3Di7Cz+WQQMP3j2OJ49cQavnJ3B1FweJUO2NRARERERrS8MGGyOT0zh1LkZ7OzYhJve9npcfdl2bN3UIoZWXCVef+SXX4cbXrMTx8ancXf6adz5wE9x/2Nj+PnxMzgtlpN9H5Y9bsgk0NnZ6Rz6ksjpyevavGNPIKMnKbWmy2ke5ZRJiHkTjjU5yOl9SeeSuWSfWH8fXKOXQQ7JPvsxyKHx7ahjcZdLo6pcWzWKxYO5/+XyyiXRJ9bjLj8iIiJauxgw2LS3NKE16IdRLKCo+yfIfgqlUkkNTQE/et76Glx7eQfyc3P412dP4G+++yg+85Xv4bP/+K9I/uw5vHJ22lzZMlCVwR5gZGwMY+VhFMPIiv9WswwSS6xcqwq669hHh4FsuV5ae/qyEhXrrgFgePQgYivUtSc+UjmOsZEIBroaK79Iv1ymHxH9vlHmtZURx2TbrijATM8SK/uhGA6KdR1cqYIiIiKi844BgyZTikQ8gGBTM2aNAJ45cUY9BUm2GPh8ftUhJOD3qdaHj3S9Drf++lvwmRuvxR+8763oecsetY5vPvoLfGX05zgzNaveL4WsEPdkhjE6rzIYQuzgwiuIa0sO6WQK0eFex3GGYv26wl5v+jKSd8xVxXrlgoV5Iv0YiaeQTK9E9COIAKhnKC6CLdcxycq+jLoGBlegJYWIiIjWKgYM2ky+iMmZPKbEv75AQD35SP2nnoBUyTOSrQyvu2Qb3vm6y/Deq67Ae6/ejX/zplfjxms60Rz041+PvoQfPfuynnuxMjg8kEK8PybCgwa4UkvsaSXqTrxMzbHP407V0Wkk1nTHHWa1XAIZa3lr5a5tlpdR43swhBQGuuQ0W7pMre04hBAWkUAq69WOUm/6cskg0TWAyEiVYMHrWNT4+a0D1dKc6ikfn1dZC+Xza77T6UEZneZUvZUikx6aF2yViaChXwQrA4ft51mcQ8fx1kqBkq1LlWuwoetP77f3dCIiIrqQGDBo03N5HDs1ifFz09jWGkTn9g7VoiCDBTNocGoJBrC5tUk9bvXybZvxayJ4eHN4B87NzOG7Tx7Tcy1SLiuqXXF0V63RuciKmD01R6WVuCqKqQF0pbt16skI4uL9oDWDrAh2JRErp6aMIDLQ5cplH0KPtXy/uVOZtHOb5bvSkX5zG4jqdBfdGtLQdioivcOIDvV4Vh7rTV+6rKjE9iAzPAp9yBW1jiXUjVjU3TqQQXooilh3o00UOWTFuqLhsHrnWdYeUgMJ4ICcv1qriLnuSNh7XyLdcbHRrK1cxfkflKuU6xzFcFS89zpx1dS6/sRWkn1dSMZG9fQxjETE/AtZPxEREa0oBgya7Oz8yLFXMDM9jTfubMfey7ejWQQF1YIFO9nHoVgyVP+H1+7aiiu2tePHzy2xhSGbRSoahlld1Bx3ma2AQFS2EkOIj9hSlPQdYmeFNY6Rcq03gt7haPnudeawTM4/YKtYmtOH0vYKm6j89zprzZF++zbNSnKtG/6NbcdG5cLL/hqi8iiP2V2BrDddkhXVcplVhp4hPb2G1EAPBlJx9M+vcdc5lhC6Y6J8k+lKhVvU+IeiMTQaL+SSg45tL7SsEa+VmpVFNhWFjkUaJM7/Aau1K4RYvzugqMf7+hOFKc7gMA7YdtgMBtM1WjGIiIjofGLAoP3T48/jaG4Sr7t0O957dacaJ4OBRvj9ZupSa1NABQ7nZvN6yhKkXB2b1Z17fYdWjzIrf8BQz/wKsSNdxx18SKrCZ95tTg10OZbvGhArdVQII5h/Q9qeRtIlKrh6dFWNbsdN9tfQxyxbE+alwtSZHpV9QMy71vZhpFKAnqLDo2K+IfRUSZ+pdyyh7hiiqSTMmE0HdXXSy+znsCsZc/VdWUhZy9NdLxqoE3DMU+X8u6/PWjyvP3FkZmE6A7uuAbGHmZXpwE5EREQLxoBBk2lEhUIer9m5BZ2hLWpcIwGDDBRkfwfZ0fnnJ8Zx7PQ5/NKODj11kSLdIihovMLkeMKONczLo/EmK8fzlj9Yo4Kr8tntaSQyTUVPq2HB2ymLoF+nwiSq5uLUm744kX7dglGl9aLmsehWHlUpz6WRTNVPL3OcQ3uZLLKsvUVgZhx5l5Pq4xDrbuC8LJOqgd157GRORERENTFg0NqamzBXArKiwv/US6fMVgJbOlK14GEmX8DRE2eQ/NkYvviDJ/EvT7+guke/d+9uc4ZFk5U6W8dTT2GEReWxVuWvtsV1Hs6lk0jFRxbw6Mzl6KRsrsNbvemLIVswzNaLSkfjxo5F9gOQKUpmWXWLM7o4Cy/r+uS+pQYOV0/5EQFKYkH9LZYmZBZm460VREREdN4xYNDefWUYu7ZsVq0E9z0ypp50lD11FlNzBZRKMgxwBg9ynOz38J0njuEffvQ0/umJLGYKRVxz+Xb86lVX6DkXL9Kv02xqduo188lTrk6wuWSiZqdYO6vzsOMmeibh2RlZUpU8W465mXOv35Q5014Wth2ZguNKL3JUZOtNX04R9KuOxl3loKGhY5GtREMJDCZTiDfUe726xsp6gdRjW4fQ407hkq0Z6gcn7P0zVlikt0on6gwS1S8MIiIiugAYMGgfe8defOztr8eO9hZ8WwQBf3zvD/G/f/gknn75tGptKBolNZ/8ATcZMMyK4ED+VsPd//oETkxO4d2vuwz/96+9Gb/37jfiVTqlaWlkmo1+Yow9v7tTPrnHVqETlT+zPluZpyvb3XiFT3YeHok7+0EkwnD1cXYqVzjN+QfR70qT0Z2A1Tp1pXRB25F38SvrV4N6KpGVplJv+jIT+35AdtS1goaGjsVsJUphuHZZ1lO3rBdH/eDbCKqU4fn+0bVKK055P8Q1E15SoREREdFy8okKsFEsFjGXz2NmZgZT07MoGAF0Xr7ylYaTZ2b0q+WxfWurfrU403MF9UvNT4kgIfXY88i8cAqbmwJ4+55deM9VV+Dazl16TuCRYzl842fP4euP/gL/+TfeqqZd3N6KpqBf9Wkgkr+9kAiP8lePacMaHx/Xr5ZHwWjRr4iI1hdZf+zY3KzfrYzxibM4PTGFtiYDbW1taG1tRTAYVD9OXA9bGGzkU44u2dKuKv83/8pV+Ph1V2FPqAOPvHAG//17T+Ivv/1T/PT5HF44fRajYyfwsxdO4u2v3oU3XbHDDBYCDBZIy8hfUz5/fQGIiIiIVgoDBpeg34etm1pw1WUXqx9j+9BbX4N3vvYSdLQ24cfPHceXf/gU/v5fn8RDz7yEgIjIbnxjJ3ZctEkFC7D9IjRtUOqpRp3o7MlgeKVSpIiIiIjOI6YkeZD9FKwfbctNTuGJF0/hwadfwlMvncT4XBEXtQQRCW/HJ371Gmxqks055m8xEBGRiSlJRESNWe0pSQwYPJREwJAvllSjgYwDrGDgsRdO4smXz+Di9hbsvXQbrrj4IjWeiIicGDAQETWGAUMNqzlgICKipWHAQETUGHZ6JiIiIiKiNYsBAxEREREReWLAQEREREREnhgwEBERERGRJwYMRERERETkiQEDERERERF5YsBARERERESeGDAQEREREZEnBgxEREREROSJAQMREREREXliwEBERERERJ4YMBARERERkScGDERERERE5IkBAxEREREReWLAQEREREREnhgwEBERERGRJwYMRERERETkiQEDERERERF5YsBARERERESeGDAQEREREZEnBgxEREREROSJAQMREREREXliwEBERERERJ4YMBARERERkScGDERERERE5IkBAxEREREReWLAQEREREREnhgwEBERERGRJwYMRERERETkiQGDy9yzT+PcA0lMPfgtGNNTeqxQKoiJE+ZQyuuRQiGP6X/9DqYe+Dryzz6lRxIRERERrQ8MGOwMA/mfP45z9/8fTH//ARizM3qC4A8CzR3m4G/SI8UihQJm0t/FuW9/DXPPPCFWYegpRERERERrHwMGm+KZUyg8fxTFpx/DnAgcCidPwMjP6alVFAsonj6pAoXCU4+h+Aux7KmcnkhEREREtPYxYLApvvALGC+/AP/UWeDMSRReeN5MS5KtBvaWA/2+NDODQnZMzes/NyGWPYbisef0TEREREREax8DBosIAGafPoKSCBKafEBzIY/CU4+gNHFGzzCfcXYCc489jKbZGbVM6eUsZp961BlcLFIm0YnOTteQyNimJWC+yyHZ14m+5AVo2cgl0af3Te/a2pNJoLMvKUpx7at6zXT2oeqlYTt3NedbJXLJvvL172Re/85jloP1+XCR57uR+S6Yasez2vaRiIg2GgYMWmnyNPLPPI7pl45htmTAKJYw+/hPVZqS4hMRgUW/Lk6Mi3kyKM3NYk4sM/1CFnNPPS7GewcZCxEdHsXY2Fhl6I+o8ZF++b4f5rsLJYNE1wAiI+a+6V1bArOidH4DD7HNxBDi/TGE9JhFWUVBx7xrZiSCgS5XQCn3tyuJ2KhzvmxWTz8PvAOAajI4PAAM93pfZHF9HVrD6HAGPaKybd+E2mYPMOKYD8ietxPX+DVuPx51LOskqCUiorWJAYM280gGxotZ+GZmUIQPc4UC8s8fxdmRL+HM3/wFxv/HX4p/9aBe/wXO/uPfqycjzc3NoSCWwfQ08IIIOH72E73W9S6KcFi/XItyaSRTcXRf2MhrZUX6MSZrxQOD5RaETHpI1Ej7EbNHSWK+pQd9KySTxlA0hu4FRHWh2EERBMUx1FNpiUsnUyKg6nUE2qGYqxxWoVB3DNFUEmlGDEREdIEwYNCMIw8hcPZl+P1FGKLyXywZKE5OIP/TNOb++RuY+87XkRf/ykG+VuN+/JCYZxzFYkktE/AVEJzOofT4v+i1rgx1p7TWHUdXuokzXcmV8rCYO5dq/T0YQkrdvbanTDjTYlypFK50kPJ+qfV1YSAFUcGT08z0mKrH6bibbx5LXzKjj8mWVuPaVrW7url0Eql4d6UCWWsZj2nqeHtEBTw1gC45TU9Q410bdd5VzyCh1uM8HyuSWhaKoT+eQlLXOMPhqNh8ts55N/evfMyO8+Ca5jrPtY/dPN4u82Sr5esdswxworHuhbcCRXoxHB1CWu1KCGFxolP1mlHcqVr243BPq1ImzsO2tSh4XOONiyBcLgDXZ7hKypIq7/J0934REREtDAMGLZAdRUvgNFraDQSbDcBXElGECAQmzsCQT0t65bgYXlYD5Gs5bvyMmgcoIdBUQvNmA83Nkwi+eAFbGGTFxJFuMoLIQJetgisqLZGRcrrDSMwcvyCiAnpQrDeOKIbVdsz0KFlR7EFl3e5Uikzalg5iv+ut1jcqKndWKsbBBd31TQ0kgAO25WTl3p56IraV6XFX0FxpLrLcejL6eMxlyo0nNdan0sNG4jIXCKNy2gJv0w/1DOp9l4N5rlYiaJBBglVZlnfV4yrAmV/RNMnKbw8ytvSm8nWiKr6qMMrTzPQfr3W5hRA7KJdRJ1stf7DWyRbbSwzF0b+oZgAzSMjonKNI7zCiMkhxB6EW9dmppNmNyWvSugjkNeBK4xqJiDL0Wpfboq9xERwMqgu1Etjm0sjGbOcmPoQeW0Qgg4WugYjjel3LDYFERHThMWDQmiaeQUvbJDbvKmHzjiKaWg3Vd1mmGuXFv7Pi38oAMc4nppnxQrAFYhmx3K4iWjefQ/PZZ9U6lyolKo8LvUuYUbXgA7bKSAS9opYyZN5mVaK2PKJIbIn5+xZdsRuxVZjNimkllSLSb+t3EepGLJpanrx5R3qNqGDJfgkj9m0577ArVdNcbHdxxTIxtYIG17dI0SrnKpVMN1YJXahyq0IE/VZFU15brkpvLpnAkKjM2yvy1nUir6+UmGaPi0KxA7Y7+ctrXivQIpRbFaxKO5ytQRbzszNqOzYR3KiLwLwGnOdKXs8iaF6hVCGzFUIOIsAXe3zAvmF5/dnPTbcIWMvnVgfCo87r1byWiYiIFocBg6WpHYYviEDQQFtHCVsvM9C+zYDPX0KpJKIC1yDH+XwGNol5tl5WwqYthlhWrEeswxDrWg7uDqz1b17nkBV1IHegodI/dIVCVi7M6fXuCFdLsahBVMpS0BXQ8mCmLVWCAnsqhZmesRzsAZDYEWTLaR+VQWUN2aKTeWkuKoAx9995h7+x9S1WpJJnooTkLXEPVVO0FiISdgSHZud5qwJttcDoXP+qnVPM62v+NOed/OVj7kt8iZ1MnPtrtnDI1py4SomyPgcZyK4d7vNhMq+B+dPCCC9X0Ovi6MR9ABh0pzDZU+TkxWiRgbAIFaoeBhER0SIxYNB8u98I/+YtokT8IkgIINgsWw0MXLTdQHObfFKqIYIEc5Cvm9sMbN4uWyMMNLXIwEIUpVx2U7ta14U070k5cjioWxJkJ1jx3nqKjPsu69LEK2kQtkEFOiqVpQvJciqFmZ6xUtxPzVFDOeKSlUN3mkulIinTgtw55rXXt9rVCgLM4x6JpzBwuHItVK84m2pNW1ayU7oIZ2o8HKmOWkGAbGWR1+AQEuUTXasT/wXs4O9q0TL7zdhS5GRKnF1UBDL6JRER0XJgwKD5rv03wK49QHOrqPyL936fSjVq22Kg/WLZ6gAEAj41tF3kU+M2bRXBQquYNyCDDLESsayxYzfwlvebKz3vGuzYKainyKi7rAlXbr/FTFtpuE4salNRUUHzuslsppY401zqqXa3PSdvcdck7/qKSlWNu91myo1Xmot53KqLhapA119fNapjsUtW3qauQx2fqyXAos6ZFfgtROYwBlK1+wFU9te8huwpbBVe08yWB6tivthjd1MpQovp7Kyp8xytFXCYx2MyWwuqp5l5TZMtD1YgYV4nTmbLxPKSQZDsO2RLObKTn0M+UYmIiJYZAwbNt/fdMF77DvgueQ18be1ihA+GIQKEJqC1wwwaWkWAIIdN8vVFhppm/UabXEYuC7EO/9XvNkdeAFbHTkfDQSah38tcbFtKSy4rqh/LRN8FHRi0p8xUtqcq/0Pp8vZyycGqKUmOirmq/AygfOM7l8Rg3TymEGL9Mu2q8hhRSVYezfceaS7lMjJVKrj11qelROVQv5TM47XNI9ZvzxyxVB77Kajjs3XEXgYqjUl15q5UMDOJah3AK2VS7RrKJM3zWG2aOpe2loBGj91Kk6vOrBjHFvIsVRt5F151/C0HWDIdzpWGp/rdWNuodp7FMkm5RPVrIJPoEYGn1X9GB1O2z5earl/bLTh1S5WftZ/u4CWDhL1wq30OxXGqw5DzdtrSDMV67amJ1Z5uRUREJDFgsHTsgO+dvwW8fR9w+Rvgb2mGP+CHIYrI7/epQGHrNSU1tIqAQY6T02QqUkDMi8uugiGW9b37d9S6LhhRYTionj+v85tV2lFYV+ZEpcbq8CkH9dSXhT2RqJZIv61DqRq6kO2upEKVO9mKYRD9rpQkq1JmSwcSx3JAdti2jkU+UMidflGN2JZqIVCPfDWHrmy3eZxeaS4iOMnYykw97clqXqm1PjXdfHynI8VLHa/12FkxpLvNJwO5xEe6kdbr7FRP6Fna+ZjXfyUrU9Cc65R3xO3HIvuayKcelVuT5DWkngRVmacnq1s9qkzrSsYwam/5aODYK09q8nisqszFd/9WRA3uPiaJsEx9s9+FlxV6Vx8b9/Uv9tv6oTtzni5xrejknnnTXNeIYHaCrlz/6W532l2Va9yD43hUwGftp1jHAXUx6ulpdLs+E7JvinqCk7W8OE7rMIiIiBbDVyqVjGKxiLl8HjMzM5iankXBCKDz8gb/Ui/ByTMz+tXy2L61Vb9apFIJxtwUfLkxlH40Aox+Db7ZSZQ2i+DgYh98O8R0+cTV0+L1K+LfswaMQAt8XR+A75dFpeuy10N1eFD5SbQaybuosjK5kNSolWE+utRRUSdNtgaIYFNUfFk2a9v4+Lh+tTwKRot+RUS0vjQF/ejY3KzfrYzxibM4PTGFtiYDbW1taG1tRTAYhF/2w62DNVs72Wm5dTOMXXvgf8c++N77+8Cb3gz/qzbBv9Mw+yrIQTYgdIrA4Jq98P26mOdXfssMFlpkKhOLdPVaWpoLnSeyFWi9/wI3ERHRGsIWBi+lIowzx4HjaeCVB0VY9jMYky+rSb7Nu4CtbxYblH0ergO27ITq0EDUMLYw0PrHFgYiosas9hYGBgxeVO6RD8ifhXH8hzCyD8B/UgQPYnRpexd8V/w6fLu6xBm+qDIvERGVMWAgImoMU5LWGBE9wcjPwSjkVSsDmjbDF74B/jd+EsbuD8Po/DD8b+gX495jBgvyh9yKBXMZsSwRERER0XrCgMHFFwjA19SsBvgDeqzQfhl8MlAQAy7q1CMFGZUFm8xlxLJEREREROsJAwYiIiIiIvLEgIGIiIiIiDwxYCAiIiIiIk8MGIiIiIiIyBMDBiIiIiIi8sSAgYiIiIiIPDFgICIiIiIiTwwYiIiIiIjIEwMGIiIiIiLyxICBiIiIiIg8MWAgIiIiIiJPDBiIiIiIiMgTAwYiIiIiIvLEgIGIiIiIiDwxYCAiIiIiIk8MGIiIiIiIyBMDBiIiIiIi8sSAgYiIiIiIPDFgICIiIiIiTwwYiIiIiIjIEwMGIiIiIiLyxICBiIiIiIg8MWAgIiIiIiJPDBiIiIiIiMgTAwYiIiIiIvLEgIGIiIiIiDwxYCAiIiIiIk8MGIiIiIiIyBMDBiIiIiIi8sSAwWXu2adx7oEkph78FozpKT1WKBXExAlzKOX1SKGQx/S/fgdTD3wd+Wef0iOJiIiIiNYHBgx2hoH8zx/Hufv/D6a//wCM2Rk9QfAHgeYOc/A36ZFikUIBM+nv4ty3v4a5Z54QqzD0FCIiIiKitY8Bg03xzCkUnj+K4tOPYU4EDoWTJ2Dk5/TUKooFFE+fVIFC4anHUPyFWPZUTk8kIiIiIlr7GDDYFF/4BYyXX4B/6ixw5iQKLzxvpiXJVgN7y4F+X5qZQSE7pub1n5sQyx5D8dhzeiYiIiIiorWPAYNFBACzTx9BSQQJTT6guZBH4alHUJo4o2eYzzg7gbnHHkbT7IxapvRyFrNPPeoMLhYpk+hEZ6drSGRs0xIw3+WQ7OtEX/ICtGzkkujT+6Z3be3JJNDZlxSluLrJc35BzvF5ZV7L86778rXuIs9dI/OtErlkX/kz7LTA4yYiIjrPGDBopcnTyD/zOKZfOobZkgGjWMLs4z9VaUqKT0QEFv26ODEu5smgNDeLObHM9AtZzD31uBjvHWQsRHR4FGNjY5WhP6LGR/rl+36Y7y6UDBJdA4iMmPumd20JzErT+Q08xDYTQ4j3xxDSYzasVRQ4xfU1ZQ2jwxn0iAq0/dpQle8eYMQxH5A9bwew0Os1g8MDwHCv9welkeMmIiK6EBgwaDOPZGC8mIVvZgZF+DBXKCD//FGcHfkSzvzNX2D8f/yl+FcP6vVf4Ow//r16MtLc3BwKYhlMTwMviIDjZz/Ra13vogiH9cu1KJdGMhVH94WNvKiOUOwgxkbiGOqptKqlkykRUPc6guZQrB+x1Rr5ZdIYisbQvYD9m3/cREREFwYDBs048hACZ1+G31+EISr/xZKB4uQE8j9NY+6fv4G573wdefGvHORrNe7HD4l5xlEsltQyAV8BwekcSo//i17rylB3V2vdDbalCsnBmcriSn9YzF1ltf4eDCGFgS65nkqFxplK5arouFJIyvul1teFgRRE5UhO64OcVPU4HXfCzWPpS2b0MZnLKa5tVbtLm0snkYp360rn4tel9tNjunua81xkkFDzm/96luMCbjE7t2c7BsHr3KjxPUNAagBd5e1Z+2bOY3LdVVflItbjuN6c21w2kV4MR4eQVtsOISxOWiqbVZM8uT4HjnJ0T3NcZ3WO3eN6rSWTHkI01r3wlizHcUvWtaIHx066pi3ms01ERFQFAwYtkB1FS+A0WtoNBJsNwFcSUYQIBCbOwJBPS3rluBheVgPkazlu/IyaBygh0FRC82YDzc2TCL54AVsYZGWmK4nYqJXaMILIQFe58pNJiIpOZKSc9jASM8cvSCiGg2K9cUQxrLZjpkfJimcPKutWKRW2SksmbUshkfkjA4NmRUutb1RUjKy0jIMLulOcGkgAB2zLyYqsPV1FbCvT467UVU8RWei6ZAW9ayDimG41usjy6ErGMGpN0+fC3RdhqCeNbjXdVo6Z4cpy3WnI+nxdYl8d+2I7ubXOjUpxG4nLHDhzmwvKLxtCz6AsMmubERFErkTQYAYJGZ1zFOkdRnSox7tSrD4HlZS5MXl9VU4MOh2fEfE5iIhgqdEK9kKvV7EviaE4+hfV/GE/bhm09CBTTlW0HZMKFuzTFvnZJiIiqoIBg9Y08Qxa2iaxeVcJm3cU0dRqqL7LMtUoL/6dFf9WBohxPjHNjBeCLRDLiOV2FdG6+Ryazz6r1rlUKVG5LN8tFIPzjmd1GVULPmCrwETQK2o2Q5VblIja8ogisWXK39eVohFbZVOmiMRTSaR1LSzSb+t3EepGLJpCvZvEDYnbU1FEpUr2SxixbyuG/ngKSWtHJK8UkQWtSwcdo87pMflGlYcIqA7YyzeCflExTyXTjoqpI7Wm2nKRfsj6fEOi4XLAIk6ueSwNnJvFc++rvCPuKutlVG5VsCrtsLeKVJifg1Fb35oQYuaJUec06viMyCIWAfCylMd8zpasxbG3pkTC1o5bxyRPcQJD8REctB3Usn22iYhow2PAYGlqh+ELIhA00NZRwtbLDLRvM+Dzl1AqiajANchxPp+BTWKerZeVsGmLIZYV6xHrMMS6loO703P9G785ZEW9yR1odMnciUxWVVIj3aLCqqa70oXmqZaWUYOo0KTk3Wbbdjt12lKlrmOmdZjTzJSO5WAPgMSOIFtOFakMKuPGVunyShFZ0Lpk0CGqgeX6m50qjyrTxPqjKbFe/VaqVAAFr+XsRABQNZ0m0i0qvWYF2nHe1DrrnZvFcu+reUfcS9U0swVwnh9RYT4oPxuisi9bG8rXdAbi9DrLtcw8p/OniUBruQJYB7O/RXyJHWXM4w6hOyaCf3k9OspQ9+lwlA0REdHyYcCg+Xa/Ef7NW0SJ+EWQEECwWbYaGLhou4HmNvmkVEMECeYgXze3Gdi8XbZGGGhqkYGFKEq57KZ2ta4Lad7TleRwUN9tjPSr99YTWBaSH19fvJIOYxtUoKMquV1IxmzpFFFzqZXgfuKMGsoRl6xQNp4iUnNd9jv6brWm1VJvOXV33bYv1rkVlfd++V6lTcmgwB4U1jg3a0KtIEAet7yehpAo50LV6pB/Hjvry471GEaNhyPV4Txu1RFanDeVQiU+v/b0tuplQ0REtHQMGDTftf8G2LUHaG4VlX/x3u9TqUZtWwy0XyxbHYBAwKeGtot8atymrSJYaBXzBmSQIVYiljV27Abe8n5zpeddg51BBbPiIe/MJjzyzc3KZ8MVSlEDi4rKjddjLc20DGfKRD2hKreqc7IJpSZ5p1hUs2o8X9NM32gkRaTOuuQxe6WxeE2Td/trBQRVlzNbjhqmA4qRuK5A1zk31ZnH7mTena/N3Fevyqu67soBTuPUOYvWqnjbWzbkvnulRXlNk8dmBRKLPfb5VGrUYjo7a17HrfqdqH5Ah8WZNY/dnnZIRES0nBgwaL6974bx2nfAd8lr4GtrFyN8MAwRIDQBrR1m0NAqAgQ5bJKvLzLUNOs32uQyclmIdfivfrc58gKwOoM6Gg4yCf1e5m/bUhlyWVHZWCY6t39g0JkqYW1PVf6H0uXt5ZKDVVOSHJVzVXkewOHKQhism8cUQqxfpl3pDtWarHiZ7xeSIlJnXdWOWexjUu5v1fLIINFT53cfdN+OgfJBy1VWLyu3yjFKtiCjzrkpc6RK6UqobZ5MQqYxuQ2hx3axqX1d0h31+VTncdmZuxxoyNQ2V0qd6qcRFXVzOUe18yaWMU9M1XOqjq3cf6XRYxfja0ZhsnXA2qeFm3/c4vqxf7BVqpmp2uc+k9T7Lzt5u5+KVZ5xgamHRES0ITFgsHTsgO+dvwW8fR9w+Rvgb2mGP+CHIYrI7/epQGHrNSU1tIqAQY6T02QqUkDMi8uugiGW9b37d9S6Lhh5d1k9u12mpOghEdYVOFERsjqJykE9KWZhTySqJdJv64Sqhi5ku3VlR3XcreTRD6LflZJkVeRk/wr9lB1xLAdkh23rWOTTeBrp/Su2pW6+qke+mkNXVlTE5Y4sNEWk1rrU5Ep6iJouylQUcvVp5uOW6rTaiHI4KMoxI3PyzeUGcaChTs8hsd3KfprpX1aLTs1zI+nHd9rT1MyOwJVl0t3V0sjiGOlO63W6K7iL4+4zkgjLNDZbx3Kx9nDE1SfDfS3L1Dv1xCZrHlEelRPjmqafIGU7MfWPvcr16ib7uDg60ddW/7jDCNuuC/Ny0tPl576cimYOPdnwks4DERGRxVcqlYxisYi5fB4zMzOYmp5FwQig8/KV/1Nz8syMfrU8tm9t1a8WqVSCMTcFX24MpR+NAKNfg292EqXNIji42AffDjFdPnH1tHj9ivj3rAEj0AJf1wfg+2Xx1/uy10N1eFD5SbQaybursiK2kNQo8lB+5Ky9Uksm2QoigjIRNK6dfiLLb3x8XL9aHgWjRb8iIlpfmoJ+dGxu1u9WxvjEWZyemEJbk4G2tja0trYiGAzCL/vh1sGarZ3stNy6GcauPfC/Yx987/194E1vhv9Vm+DfaZh9FeQgGxA6RWBwzV74fl3M8yu/ZQYLLTKViUW6ei0tRYSoYbIli78iTkRE6wRbGLyUijDOHAeOp4FXHhRh2c9gTL6sJvk27wK2vllsUPZ5uA7YshOqQwPRRsIWBqqDLQxERI1Z7S0MDBi8qNwjH5A/C+P4D2FkH4D/pAgexOjS9i74rvh1+HZ1iTN8UWVeIiIqY8BARNQYpiStMSJ6gpGfg1HIq1YGNG2GL3wD/G/8JIzdH4bR+WH439Avxr3HDBbkD7kVC+YyYlkiIiIiovWEAYOLLxCAr6lZDfAH9Fih/TL4ZKAgBlzUqUcKMioLNpnLiGWJiIiIiNYTBgxEREREROSJAQMREREREXliwEBERERERJ4YMBARERERkScGDERERERE5IkBAxEREREReWLAQEREREREnqoGDPzNYiIiIiKi9cMwDP1q4djCQEREREREnhgwEBERERGRJwYMRERERETkiQEDERERERF5YsBARERERESeGDAQEREREZEnBgxEREREROSJAQMREREREXliwEBERERERJ4YMBARERERkScGDERERERE5IkBAxEREREReWLAQEREREREnhgwEBERERGRJwYMRERERETkiQEDERERERF5YsBARERERESeGDAQEREREZEnBgxEREREROSJAQMREREREXliwEBERERERJ58pVLJKBaLmMvnMTMzg6npWRSNAHZfHtKzrJyTZ2b0q+WxfWurfrVwJcPAmXNnceSl5/HYC88jeyqHfLEAiPGGni7KCn6fDwG/GWfJ8VJTIICdW7bhqkt/CXtCl2D75g5s3dSupxIRbUzj4+P61fIoGC36FRHR+tIU9KNjc7N+tzLOjE/izOQ02poMtLW1obW1FcFgEH5dr62FLQza+NQ5/OQXP8fPXhhD7twECiKIkgoiSDBEsNAcCKK9pVUFC3JcoVRUAYQkg4nxmWn8/MSLePr4C2p+IiIiIqL1gAGD9mj2OTydewnHJ85genZGBAEiKBBBw7b2zbjy0ivw1s7X4I3hV+ENl3fi8m3b0dHWjpYmEQmK2GCuUFDLHJ88g6dF0PCoCDqIiIiIiNYDBgzaI9kxnDo3iYKo/MsULdl60BpsQuf2XXh16BJcsmUbQhd1iKChUwQNu7EndCnC23bgkq0Xq/kMMX++kMeZ6XMq+CAiIiIiWg8YMGgvnTmJqakpFSyYKUcl7Nl5KV53yeV45ewEUo89jB+P/VylJL121+V48y+9Gr/86tcjenUErxbzBf0BFPIFzMzOinWd0mtdBpkEOjs7HUMiY07KJfvQ2ZdEzny7zHJI9jm3a9929el9SFo7U2W/y8OK7TMRERERLTcGDFqhKIIEo6RSkbZtasd7rnozom94C16ZnFAtD6+/JCyCg7fg2dzL+M6Rn+Kbj4zi248/jFERRLyl8zUIX7xDdRrJFwpiMPs/LFUmISrXPcDI2BjGrGF0GMguV3XbrPRXggAtl0RfZxeSsdHKduUwEkfGte34iH16BANdOmiI9DuWQ3RYlJV+fzCGle9ST0RERETLgQGDTVEEDaHNW3DVpVeo9KOJmWmcm5tBR+smdLRtwpMvZXFudgbb2i/C1Zd3qr4NU2L61NwsLhbjOlrbUCwtT7AgWw96MrKS3Y+IHqeEYuiPrWR1O4NE1wAiIhA46N6OCALmjbMT00fiKSTTbD8gIiIiWi8YMGjy4al+v08EClvUY1GfPfESXpkcVx2fW5ua0NbcAp9P1Nc7tqK1uVm1RMj5L9+6A1va2rGppQUBf0A/IWmpT0nK4PBACvH+Bu/E29N/3Ok+rtSgPitnSLciiM1gqEdOM1sGcskEhqLD6HVEKQuTymb1KyIiIiJa6xgwaLKiL/shtLe2qtSiJ18+htlCXv3uAiAHoDnYpF7Jfg6yc7P83YZ2EUjIoVk9x9acb8lyWREyxNHdSKU9NYCudLdO/xlBXLwfLHckEPFC2pbSJNOZBgbNlKFQDAfHRjEctdKKDkI2HmSzKURj3YtMGcohmwGi4bB+T0RERERrHQMGTf6WgmobEP9nlAwRGPjVa9myEAwEcPrcJH703FP45qM/VvO9JnQptra14ydjP8dPn38WTf4gtrRuKq9rSbJZpKJhNFbtjmOk34osIugVEUAqmS63MkT6bSlNoW7Eoim5eg9mhT8StocLrs7N8zo8VOSSgxhIxVc4ZYqIiIiIzicGDJpsSZjN53Hq7KT6Uba37t6Dx7JjkL/2vKP9IlzU2qY6NLcEmzA9N6uenCQDg2tf9To88eIxFEslbN20Ga1NZrrSkqWyaCixp25gYa/wmylI9Tg7NocQO2i2UIzK5ggXM53JHLqSsfl9LoiIiIhoTWPAoMmAQSYUTc5MYSY/izde8Sr1mwszIogYO3kCsyJYuOGqN+Mtu1+jOj3L4EEGDk2BgAgwCuV1SD7976KFw4gis/SHIc172pGZguQthO5YdEF9EBxPSeLTj4iIiIjWHQYMNjKRSLYUzBWKmCsWMFPIq5aFzWKQv7/QFAiqvg4yMFDzGiWVriR/l0GOOzs7g4JYzu9bYrHKJyHFUxg47J3+04hcOolUfKT2k41cQt0xRIcSld9TICIiIqINjQGDRbYwiEGmGclWhTNT5/DC6ZMqQJC/5CyflvTS+CnVEXo6P6dSlWRgIJ+Q1LljFyZnplWakvzBtyW3MAiR/hHEh3rmP/Uol0Siwdp8KBwBhtKwwg6zj4F+Y+NIQRLBygHZN7qryu8zEBEREdGGw4BBM5+S5MfE9BRyk2dUy8KmlmY88sIYfvjsUyJ4eAUtTU140xWvwpwIGk6fO6uemrSzY6ta5siLz+P4+GkEdSvE0kXQPzaGkcgAuqwOx3LoyqK70RaD/397dwIfV1XwffyfZZJMm6VZuiQpRCgpS1OWUqCvQBUoFqjg4+MCjygPFcFHEXhoVSgooiLCq62g4oIKKC6oKK8o2GqhGFQCdoMGgRZoQ9skbZM06aRNZpLMvPfcuZNMSm6aSWcyk+T3/Xyuc+bOdnNmqOd/zzn32Osi3K33O6+9VZ86aEjSZF38qZv0l+tOsx7vW6V58sX321dU2hA1P8Fsp113StQEawAAAIwHacFgMGQuExro6lJnZ6cOdPjVE8pQRXniR6M3t3Y6pfgonpTjlGJ3y6MP2sOMzITnLKvRX1E8VadUzLB7HMz9idk59qJsT7/yolra92lm6XS9w3rOll312rRjm/26yBwG4xuXfsIpAcD41NbW5pTiozuU7ZQAYGzxZKYrPzfLuZcYrW0+tfo65PWE5PV6lZOTo0x7WYBD9x/Qw+AoySvQhByv3UNg5jHUNe/Sc6+/ohffelOvNmzXtqZd6rKClVnd+Z2Vs1Q0Md96zm77MTNcKXoQkpnvAAAAAIwFtGwdJ5QdaYWAPCvheZSWkW7PVdjesscOCq817tBL27dq41tvqLl9n1r2+6z9jdq8a6cOBPx2QIhOZ0NJagAAAMBoQMvWMXPadB1VPEXFuXnyZuXYPQ1m8rKZr+DrOGBPeK7dWWcPP1pf97pea9hhhwcTFsySb2begnm+2TIO9ypJAAAAQIqgZeswvQvzZhynOUfO0JTcfHsCtGn8m94Cc+lUcz8YDGq/v9MemmT2Z2V4eq+IZIKDeZ5Z2M2sDg0AAACMBUx6BgAkBJOeAWBomPQMAAAAYNQiMAAAAABwRWAAAAAA4IrAAAAAAMAVgQEAAACAKwIDAAAAAFcEBgAAAACuCAwAAAAAXBEYAAAAALgiMAAAAABwRWAAAAAA4IrAAAAAAMAVgQEAAACAKwIDAAAAAFcEBgAAAACuxlRgCAZDTgkAAABAPIypwNDdE3RKAAAAAOJhTAWGQBeBAQAAAIinMRUY/IEehiUBQJLx7zAAjC1jbtLzgc4upwQASIYDnd1OCQAwFoy5wOAPhNTp73HuAQBGkvn31/T2AgDGjjEXGKSQ9nd2ERoAYISZf3f3d9DLCwBjzRgMDJaQ7NDQfiDAWFoASDDz72z7gS7CAgCMUWMzMBhWTvAHgmr1+e3/IwswIRoA4sb8exro6rH/fd27z88wJAAYw9KC1r/6PT091j/8Xers7NSBDr96QhmqKJ/sPCVxmls7nRIAAAAwPnky05Wfm+XcS4zWNp9afR3yekLyer3KyclRZmam0tMP3X8wdnsYAAAAABw2AgMAAAAAVwQGAAAAAK4IDAAAAABcERgAAAAAuCIwAAAAAHBFYAAAAADgisAAAAAAwBWBAQAAAIArAgMAAAAAVwQGAAAAAK4IDAAAAABcERgAAAAAuCIwAAAAAHBFYAAAAADgisAAAAAAwBWBAQAAAIArAgMAAAAAVwQGAAAAAK7SgsFgqKenR4GuLnV2dupAh189oQxVlE92npI4za2dTik+GtqznBIAAACQOKW5Aad0+DyZ6crPTWw7trXNp1Zfh7yekLxer3JycpSZman09EP3H9DDAAAAAMDVmOphAAAAAEYbehgAAAAAjFoEBgAAAACuCAwAAAAAXBEYAAAAALgiMAAAAABwRWAAAAAA4IrAAAAAAMAVgQEAAACAKwIDAAAAAFcEBgAAAACuCAwAAAAAXKUFg8FQT0+PAl1d6uzs1IEOv3pCGaoon+w8JXGaWzudUnLtbWlWYVGxcw8AAACj0YZtnXp+8wFtqutU7fZObdvd5TwydLk56TpherZmH5mjqoocnTc7VwUTEnuO3ZOZrvzcLOdeYrS2+dTq65DXE5LX61VOTo4yMzOVnn7ov23cBoYu6+9tb/epsLBI96y4W2/VbdV7L/lPvfucBUOqOAAAAKSG/f6gvvybXfr1P/Y5e+JnakGmViwu1VnHTXD2xF+qB4Zx2TI2YeGeFXepsaHevp+bm6tduxr1kx99T1+5fZna2lrt/QAAAEht697s0MKvbktIWDB2tXXr8nu2W4Fkt/zdIWfv+DLuAoMJC/euuFsbN6xz9kifuOZaLf3cLZp+xJHasvk1fekLn9eePbudR8e4l+7XqScfpwdfcu4fjni+F1Ib3zUAIAW8uiOgS5dv1/am2IceGZWl2Xr81hlqf+Skt21v/bhKn1xY4jxTeuDpvfrUD3c698aXcRUYImFhw4a1zp4+c049XV+54xs6/vhZdlhY8Y07FQrFJ0U2rbzWblz1bddqVZN5ZI9W3Xiclq7cYz9vIOHXRp6fACdeo3Wrl6t27UZnx2GI6b3Cf/upJ9+vTc6exNqoBxPcwLW/qxufUKK+KlvTE1pq/R2D/WaGL4Y6iufvBgCAYQh0h3TDgzvV1TO89tqiufn6250zde7sXGdPf0W5GVq+uFyPfPYo5XnDTeanNu3X91a22OXxZNwEBjNP4zv3fnPAsGDmbhjZ2dm6YclNys8v0FtvbVP135629w9fuFG8cNVFWrXxVa2LbD87SfXh0VCHVHLBfdZr7lNUwI0zq5G4YKlUVu7cPxxDf6+mlberfrFVF6vL9VDcG9nheh8NZ7/tkPHAUBvdVv1+TVpm/YaurD/7MP++w62jeP5uAACI3fI/NunVnQHnXmyOmpqlB66rUL4TBAbzXitY3HPVdOee9M3H96ilPejcGx/GZGAIBAJ65d+1/bZ7v/V/tW7t884z+jNzF154/p92OS8vXx++7KN2+Xe//ZWCweH/IDY9cLZumf2I1n1rkfq190+8RotPdMpJd7IWWw3Q5RfEY5L7UN9rjxrKbg/XQckiLb/19PBuDM5q3M91fkuzP/6qLi5LRC/DUMXzdwMAQGyCIemBp/Y692L37auP0MTsoTeDLz2rUB/4P5Psco/VNHzk7+NrvuuYDAxm0vIdX/lCv80tLBhmqNJ931mh+p077Pvz33WucnPz1NzcpG3b3rT3xazpCT307fN05yUnOzsGt+mBviFL/Yab2GPFo4ftRIbyRLZDDOlxxppHtn5nlAd7bCDOcJje1/SeGY/xmJpe0ENXnN33/Md39gWqyN8bfWz25/T/DNdjtY/RCmprpO9eYZ578HCuQd7H9e8zIsN1hnAc0cfu2nsSfp+FNz9l/at1mf3c8Pce3r905Ubnc6KP/wVdGXlfa/tjfaSxHnnNHvffUbTDqSMj1t8NAABx9sqOTntI0nDMrvDqnKqBhyEN5jOL+k6S/fa5Nqc0PoybIUmH0t3drSeffNwuZ2RkaOaxx9vlN17fbN/GrH6nnjnnIp06hKFEz9x8ttbOjQxXWmLdv919zoLV2K5f+Gzv8KaHrl+hK92GtJiG4RUv6s7VznuvXq4y5yG70XeF9JDzPvZ49CsGmSth3mvBUlX9zHn+xmd1Z+TNYjkmS9PanXpP5Jg2PqLPWA3m/o1O6/VrTw8/bh3Xu+0G9dnhIUzWvlV3nWc1dF1CiemxMMd2jvUftn2s/YdzffeK26VbB36fQx/X4K+3rVmqhZFjN+9h3f/6gA33yVr4rfB76PpH7OdHn61/5uYfOZ/jHP8Qvq8h/44Oo45i/t0AAJAAz20+4JRid3rl8C6Petoxfa97c9fwhkKNVgSGKGboUkRZeXhsdmNDg30bq6b6F60IW95/KJIbq8HYO0TpxPdbDbmn9Je1LmeHrcbe4qiG5ey5S6RNOweZA3CSyiIHYb12of05e7TqwRVWY/EazbYfsFiPXXm9++duenypdNezUUOprAbvBU7vSYzHVHLBNVEN1JM193qptj76c5fooY/3vfeV1uPRdVRywdX6jF5U/TAaqe++6/bezw6/zwqtdULBoY9roNcffBxRx269x8VWg/uZVS/EPkfj+qujjmWI39cAv6OhzpWJ5l5Hsf9uAABIhI1bh7+W1+mVE50ShorAEC3qqkiZGZn2rZksPWyDNuT7vDvWiaPRQ0KuWOHsHEDJ6XrPOSvsYSz9h6fsVH3vcJS+7cpvS8/UD3S5sI1aaz1WVdYXCt5mqMfkiB46Yz73UGKuIxeD/g2WQx3X219/UKP8nHKVOsXD0f/vHdr3NVAdHRx4hsK9jmL93QAAkHqyPWlOCUNFYIhy7HEnOCX1rsNQWFRk38aqpOwkac1ODa9/wp3doI0eEvKzJc4jAwkPezFDY6puNnMG+g8dCQ9HOWjrPTt+sPNU1jueqb/Yjik8F+BKhYfhmO0h04OQdKl6XH1i+74SJ1WOAwAwfp0wPccpxe6lug6nhKEiMDjM0tgXLXqfXTZXRvq3MzzpmGNm2rcxs4eErNBDbhNPh8Wc6T9Pd66OGhIyJOEr2qy6S7rlcTO3oFxl58Ry9tk8323YSYzH9NIL+u45y7Uq1RqYqXpctli/r0RJleMAAIx3J0zPdkqxe2nb8ALDv14f/ryJ0W5MBoaCgkn6wm139NtOnXuG8+jbeTweXXvdEnulZ6Pmn3/X3pZm+32iex1iM1kLb10umTP7B08Afun+YV5Z5uCG+0Y9ONjwn4M+p6H+KadkHdvit0+KbVp5v8vk1YGev0erVkbCRwzHVFaud695Uusi72Md41CGJA1HTA3bETyutznk0LVYv6+hi63xn7jjAAAgFiccMfzA8Lfadr2wJfbG/4//2uyUpP9dVOyUxocxGRiysrJ0/AlV/bYbbvy8a2i46upP6/Qz3mmX9+1r0y9+8ZBdPn/hRXbPw7CVOFej2RS+bGbv9mC5Lu6dPByLqBBiv9cLmjvY8B+rEVwbNd7cHm4TOYN+4jXhHocFfY8vrD89aqLtQczKvj87Ker5Z+svVliI+ZisOlkW/blrT0/A0J9Iw/btw7BcjchxvZ09qdhcWcn6TNfLoBqxfl+HNIw6MuJ+HAAAxG5KQaY+MC/fuRcbszL0x79Tp/3+oa+19eg/W/WLv/Wt8PzhM8NrMowXacFgMGQm9ga6uuwVjw90+NUTylBF+eCTQ+OhuXX4M9yHw6y3cO+Ku3tXezY9DyZMRPj9fn3j7q/aV0sqK5+uO+/6lt37AAAAgNRyIBDUe76yTdubupw9sblqQbHu/UTfCs5uXtzaofNu26LOrvDFcf5nYZGWvT++7WRPZrryc7Oce4nR2uZTq69DXk9IXq9XOTk59onx9PRD9x+MqzkMpvF/w5KbdMopc509fczCbl+89bN2WJg4MVdLPnsLYQEAACBFTchK17evKpMnY3hXPfrJ6mYd/cmX9dRLPmdPf+2dQV357TqduWxzb1h416wJuuk/En9SPdWMqx6GCNPT8K3lX9fFl/yn3cPw4/vv05qn/2o/NmlSoRUWlmnGcCc7AwAAYMRs2Napz/yoXjuah9fTYJQVeTTryBwdX56jJl+3/r29094iq0mnW5nk6gVFWvq+EmVnxv+yrKnewzAuA4NhQsP+/e12QLhnxd1a+68azX/XufrQpZersHB4l1IFAADAyDPDk+76/R799JlWZ0/8TC/26LtXl+mUdwz/Uq6HQmAYRDIDQ7TaTS+qvHy6CovG14x3AACAsaTZ16OaLQf0/GZrs25f3RlwHhm6ggnpmjvDq3kzJ+q0Sq9OPDJHGQkexE9gGESqBAYAAAAgWZj0DAAAAGDUIjAAAAAAcEVgAAAAAOCKwAAAAADAFYEBAAAAgCsCAwAAAABXBAYAAAAArggMAAAAAFwRGAAAAAC4IjAAAAAAcEVgAAAAAOCKwAAAAADAFYEBAAAASKLMjNRukhMYAAAAgCTKzExzSqkpqYEhy0NeAQAAwPiWQQ+Du+ysTKcEAAAAjD9mOFJGOj0MrkwPQ2ZGalcQAAAAkCh5Ez1OKXUlvf8jb2KW0sgMAAAAGGcm5GQqPcV7F4ykBwZTSbkTUj9ZAQAAAPGSkZEmrxUYRoOUmGGR5clQYUGOPJkpcTgAAABAwkz0ejQpL9u5l/pSpoVuemPyc7M0kd4GAAAAjEHm5HhhfrZysjOcPaNDWjAYDPX09CjQ1aXOzk4d6PCrJ5ShivLJzlOSoycYUk+PtQWDCoWcnQAAAMAoYWYnmOH35ipI6Rnp9gnyZGlt86nV1yGvJySv16ucnBxlZpo5FIfuP0jZwAAAAAAgPg4nMDBpAAAAAIArAgMAAAAAVwQGAAAAAK4IDAAAAABcERgAAAAAuCIwAAAAAHBFYAAAAADgisAAAAAAwBWBAQAAAIArAgMAAAAAVwQGAAAAAK4IDAAAAABcERgAAAAAuCIwAAAAAHBFYAAAAADgisAAAAAAwBWBAQAAAIArAgMAAAAAVwQGAAAAAK4IDAAAAABcERgAAAAAuCIwAAAAAHBFYAAAAADgisAAAAAAwFVaMBgM9fT0KNDVpc7OTh3o8KsnlKGK8snOUwAAAICha/L1aNX6fXr5rQ7t2det3W3hbc++LjXu7XaeNbrke9M1ZZJHk/MzNbkgU1Os7YiSLM2flavTjpngPCt1tbb51OrrkNcTktfrVU5OjjIzM5Wefuj+AwIDAAAADkswJL2wZb/+utGnv2zcpw1vdjiPjA/FeRlacFK+teXp/JPzVWLdTzUEBgAAACTFb/7Rqi/9ql7bm7qcPf2ZM/FTJmVq2iSPplrbNKuclZnmPDp6tLT3aFdruIdkV5u57VJHwEpKA/j4ecW67bLSlAoOBAYAAACMqE11nbruR9u19vUDzp4wc7b9wlML9N65BTr/pDxle0ZfOBiqzfV+/elfbfqjtf3roHrI86brc/8xVddeNDkl6oDAAAAAgBHRsLdLtz/SqF/8rcXZE3bVgmJ96MxCnXX8RGfP+GLmajz6z1Z97897tHVXwNkrTS/26Pb/KtVlZxU6e5KDwAAAAMYtqy1jt2G6rLaMadNENrN/NDINuIyMjN7N4/HYjbuhNOwS7e+v7NcH735T7Z3huk1Pky47u1Bf/HCpjijx2PsiunskX2dInV1SV0/I2qzbbmv/6PxalGlVvyfT2jLMlqYc68/Ny0lT5kGjjnqsv+9X1S2683e79NaevuDw/nkFevC6d7zt+SOFwAAAAMaVQCBgt1vM1t09Oq+6EyvTuDONPNPYMyFipD1W06bF39lmBwHDNIBvv6xMM6ZlhXdYDljt430dITso+Aee0jDmZDvBocCbJm9fVdgh6aGnW3T37xt7rwxlel8evelo5eaMfPgjMAAAgHHB9CK0tbXZgWE8M429vLy8EQsOK/6wW7f9qsEumwnLD//vO7Robr593zC9CA2tQe33OzvGqbwcaUp+er/gYHpjTK+M6Z0xjp+eoz/ccrTKikY29BEYAADAmGbaKiYomLYK+phGX35+vt3wS5Rbf16ve/+0xy6bibyPLTta82aG5ykEuqXGtqD2ja+rqB5SvleaVpBuhStnh+W/763T755rtcvmylF//XJlv96ZRDucwDDy/SEAAAAxMCFh9+7dhIUBmDrZs2eP/P7EnNr/+TMtvWHBzFGovnNmb1gwIWHLLsLCQCJ10x71k/3pDRW64eLwCXmziN0H7n5Tvo7RMaGDwAAAAFLW/v371dLSolBo4OvdQ3bdNDc323UVT2tq2/U/P9hul8uLPVrz1ZmqLM227ze3h/RWc9D6bPsuBmDqZltT0K6riK9dXqYvfGiaXX69wa/LV2y1y6mOwAAAAFKSGYJkNgxNPOvrjcaAPrI83JjN8aTp8VtmaFpheHxNQ2vI3jA0B9fXzR+Yak8YN57e1K7PPbTTLqcyAgMAAEg5+/bti/sZ8/HA1Jmpu8Nhhslc/LU3eofL/PzGd+jY8nDPQmNbqN8ZcwyNqTNTdxE/+UyF5hzttcvfX9mknz7df02LVENgAAAAKcWMy29vb3fuIVam7jo6hj+xYNnDO3vXD/jKf5XqgjnhqyGZcflNPsLCcJm6a+sI15+50tTvl83Q1EnhXpsbfrJd9S2pex1aAgMAAEgZ5nKpZs4CDs/evXvtS9DGyoyr/9macP2fdswELXnfFLts1lfY3jJKV1xLITtawgvZGSV5Gfr+/xxpl83aFl/+daNdTkUEBgAAkBLMysyEhfgxdWkuRxuLL/2qQUGnE+HeT0y3b01jtq6JCc7xYOrQ1KVZ9dp4z8l5mn9Crl3+ZXWLtliBLRURGAAAQEpobW21QwPiI7J2xVC9uLVDf3gh/PwPvnOSTnxHeIz9zr1B9fC1xI0JC/VWnUZ8c3G50tLCYWLZw/XO3tRCYAAAAEnX3d3NOgsJYOp0qEOTljy4w77NzJDu+li5XfZbL/XxtcSdqdPI0KQTjsjRR99VZJdXrt+n515Lvcn+BAYAAJB0h3tlH7jz+XxOyd1rO/16fvMBu/yZi6b0XkLVrOKMxNgVVbdf+UipJmSHm+U/XNVk36YSAgMAAEgqM9GZ3oXEGUovw6qNfYHt0xeW2LdmojO9C4kT3cswOT9T7zs9vDbDXzakXngmMAAAgKQiLCTeoS6zGmmkmvUWyoo8dnmfcwlQJE7rgb46XnBSnn27ryPY29uTKggMAAAgqQgMiTdYHXcEQqp+ObzuxfknhddcMAgMidfe2VfHF54a7mEw/hLV45MKCAwAACBpzGRnsyGxTB27XYHqqZd8vZdSPf/k8Fluv/WVBPhaEs4MSep2vpZ8b7rmHjPBLhMYAAAAHH5/sq4771fD+if0xBN1GnRKsK9ONU9Ua/1IXB/f16Camhrrsw49SXk43IYlvbg1PPzFrD58trMmQPSZ77Fnr/5x78d1xZI79I9mZ1cSRffkvOfkcA/Pprrhr9SdCAQGAACQNMNZjXjI/M1qqF2vmmoTDMxWrZr1dYq5jZhnNaaznHIi5ZVq3ikV0vqWwUPMMLnVdWNruCthZlm2HRqMjoB9kzy19+mUM9+rG1fvcnZEaX5SN1qPnfLwJmdHrAp15g0P6PrKGj26YYD3H2EHorLorCNz7FuzWN6efanTxUNgAAAASRPrSsRD5atbr+rVNVpf1y4VVaqqqkpVlUXKClhN8Vg6C/IqNG/+fFUVZzs7EsmnutVbFKgqMhkl7tzqeldrOEgU54UvpWp0R8YojVFNq5fq6tWzdcmsqc6e5Imu66Lcvu9g114CAwAAQGICQ3OtNtQ2SBVztGDRfM2rmqmKigpVzKzSnHlVGpG2/7DkqcIcb0Ui4sJggSHcMC3Ky7BvDXOGeywrWbBcG373dZ1T6uxIoui6Lszt+w4anSCXCggMAAAgadwm4g6fT3Vb6uQrrtQpVaUaWjawXlNbreonnlB1da36TSHw1dnDmfrNYfA1WM+vsZ9vhjlVr9+sQ05xsF5Tuz78GU9UV2t9Xf+BUf6GzVpv7TefVV1Tq7oEjElyq+tIwzT67PZoCwwvPfxenXLmUq2MrtZ+w5q26/El5jl3a230d+V/Tt++2Np/x2pnx8iLruviqNDWuJfAAAAAEP/A4G9Xs9VoLC4tHeKwnga9vH6L9YJZmjWnQllWQFi/YfOg8xx8LVYgyavQrHnzNG9ehXLbt2j984O8xkycrl6v9qzK8GtmVVqfE+gdGeWrq9HqLS3KrZxlvd88Vea2q7a6Ju6hwa2udza/fUhST7xzXNIdobkLplu3z2rNy30TNPwvV+vxFo8WXzTf2TPyouu6tDC8Boaxu40hSQAAAEpPj3NTJBCwIoCZpDz0WcqllXNUUVpshYwqzaqyYoavUe2DNNbzKuapqqJUxcXWa4qt4FBZbFKE62v8AZ8dJnKtEBN+TamqIr0f/gZtqW1Wxax5mmmOwXq8tKpSldYrahsGiy2xc6vrSRPDZ7V9HX2nujNSpIX4zJeusnsJ+m2XfE/POI/HouzsD+pi6/aXz65zwlpAm559Vs3HXKiFc0ZiVvvAout67/6+7yAnK3Wa6alzJAAAYNyJe2CwWM13qyk4VKUqiuqKyMoylxU9xKl9v08NDZtVu75GNTXVWr3eNOzdG/fZVkAwmaLOem71+lo1NPeNifG3N9sBp64mciUns9Voi3mwva8XIh7c6npKQbhnIfqMdmbfyJikmnneefrs9Rf23z56rGY6j8ckb74u+ahH+k21NpmK9a/Tmt9Yn3HRfB0bfkZSRNd1ZD6JMXVSX49PshEYAABA0mRkxLllmperIuumua4xIZcmNZdqrX2+WlusVn5xRaVmnXKGFsw51MzZYs2ct0gL5lVax9ai9TWrVV3bEA4DgXC0qbQeX7TooM1633jOz87MHLgBmsqBoWz+R3T5pdf23z58nsqcx2OTpbkLLrTCRnhYkhmO9EtN1+Xzj3MeTw5Pv8DQN29h6qS+4UnJRmAAAABJE/fAYDXOS6uK7Sslvby5Oa5n6A1/S509t6CicqZKi4uVl51ttfnbnUcHZ3oaqubM13zr+Hx1dWq03ic7t9juEWlpTki86ce9hyHcMN3T1tdYzUwPr8cwWpSUHmX972vaVNfXt9TU+KZTilI5X5ccI616frXWPPWsdOEHk36lJE9GX11Hh7ZIkEsFBAYAAJA0Hk/8z6LmVZyiORV5at5So9XmikS1m1VnNdDrNteqpqZWUSOCYpbtzI2oq2tQc3OzmutqtaVh8PHv/oZarY88v7lBdWZuQl6ucs1QqLxpqrSPdYNqaqOeYx3z4RznQNzqeqAehgkpe+nZgZVVzLaHKf3yB1/Sb6vXac1jy3TzvQMEBh2ncy6druYnf6Rv/j/p4vmnJmTNi1jkRP186GEAAAA4iNfrdUrxlK3SqvlaMK9KFVZjrL1ui2pra1XX2K6s3GJlHU5juLhK86pKpZb1qnn5ZTVkVWiW+ZBBZFvJIKthixVWzJyHLWrPtd7jjCq7Z8Eca3HVGdZ7FoXf0zznZbMatfWaODfa3ep6dkV4f0t7jxqdxcLyvaOrh0GVH9FdXz5b72zepDuX3aFH3zpbt966wHmwP3vyc0uXmovO1iVnFDp7kye6rl/c2mHflhV5VDAhdZrpacFgMGQW8gh0damzs1MHOvzqCWWoonyy8xQAAIDE2b17t7q7+85uI/5M78LkyQO37fbs69ZR17xsl5cvLtcnF5bY5dd3BdWZOksBxI9vtW674B69dv039etLkzt/wWtlzRlT+oJB6eJN8nUEddWCYt37CXMZ2PhpbfOp1dchrydkh8ecnBx7XstQLjxADwMAAEgq03BBYg1Wx5PzM3XCEeHH/7x+n31r5OaMsl6GIWp6/s/6oybpkjnJDQtGXlQdP/fafjssGOefnG/fpgoCAwAASCoCQ+JlZw8+vun8k8Ij+f9W266OQMguj7phSYewteYPWvnYbbr53tc086M36oOVzgNJFB3KnlwXDmtmvvm5s83lfVMHgQEAACSVWWSN0JA4pm4PtZDdAueMdldPSKtfDDdcJ1gvyRtDX4tvy4+07JublL3g8/rWp06N6yVrh8PUranjiJVO786Zx+dqQnZqNdEJDAAAIOny81NrCMZYMpS6nX9CXyP1+39usm+NqQVjp6l44sf+pA3/eEz33TB/mOs4xNe0SX11+/dX9uuVHZ12OdLbk0oIDAAAIOnM5MsJEyY49xAvpk7dFmyLlmG1CK881yx5J1X/u733bHeOR5o0YWzOZUimoolpyo76Wv73x9vtW29Wmq44N3z9rFRCYAAAACkhLy/1zqyOdrH03Cz74DTlecNNw5sfrlcoPJVBUwvSRGSIH1OXpk4jfvXsXr26M7zoxpL3TVVJXoossx2FwAAAAFKCWfW5sDD518UfK0xdDuWSmRGFEzP0+fdPtcuvN/j14NPNdtljtV/Li4gM8WLq0vToGIHukL74y3q7bILC0vdNscuphsAAAABShrk+PPMZDp+pw+EsinfdoikqLQyvMPyFn9dr2+6AXTbDkqLPimN4TB1GD/H69A+29y6W99XLy5SVmZp1TGAAAAApJTc3VxMnTnTuIVam7kwdDkdmhmm4ltrlfR1Bvf/rb9q3xuS8NBXnEhqGy9SdqcOI769s0iN/32uXjyvP1sfeHZ5DkooIDAAAIOUUFBQwp2EYTJ2Zujscl51VqA+fOckub2nw6yPLt/bOZyidlKap+YSGWE2x6szUXYSZWH7TT3faZTNv5JdLj7LLqYrAAAAAUpJp/BYVFSktjQbqUJi6ilfIuv/TFTrr+HAvzzO17Vr2cHicvTHZavxWlKRb34uzA65MHZm6MoEhom5PQJd+Y6uCVggzPTqP3nS0ZpYle1WIwREYAABAyjKLjpWUlMQ0eXe8MZPFp0yZEtfF70xD9tefO1rHlocbst99co++/rtddtkwi47NmJKuTL4WV2ayuKmj6MXv3mgM6JKvvSGfM8zrB586Umcel/rD7/iaAQBASvN4PHaDeLjj8scyUyemboay1kKsCiak64+3zlCxc5nPr/22UR+7Z5v8XeHxSWaNhspp6SrJ47Kr0UxdmDo5Zmq6XUcRZnG2s5a9ZocGY9kHptrDv0YDAgMAAEh5pofBXPln6tSpcT2TPlqZOjB1YeokkUO2yoo8evbOY3X01Cz7/mM1bTrni1u0Z1/4yj7m8qDTCtJUWWp9P7FflGnMMXUw06oLUyeRS6caP1jVpEVffb23Z+G2S6fp1g9Ns8ujQVowGAz19PQo0NWlzs5OHejwqyeUoYryyc5TAAAAUkuX1W7p6Oiw2y7d3eHG61hnelqys7Pty6Wa8kgyDV0z+XlNbbt9f1phph6/ZYZOOKJ/eOsISG0dIfk6Q/J3OTvHONOLkJeTZoWFNHnDuaqXmafw6R9u18+fabHvm5Wcf7HkKL3n5JGf0N/a5lOrr0NeT8j+DZnQaXqmhjLcj8AAAABGNastY7dhTIgwbZrIZvaPRqYBZ+YlRDYTDkzjLtnzOEzjd9nP6nXfn/fY9z0Zafrvc4vsxd5MT8TBunusoGEFh04rOHT1hKzNurWyXffo/Frs+RqezPDcBPO320HBCgkDzeMwV5X67T9bddfvGrW5PryKc3mxR4/dfPTbQtZIITAAAABgRJiz5dfev109TsPfLDa2+Lxife4/pto9D+OZCQqPPd+qrz+6S6/s6HT2SmfMnKDffv5oFeWG54MkA4EBAAAAI8ZM3P3qbxr06D9bnT3hKyudfXyuFp1WoEusbaBeh7HI9J5Uv9yuP/2rTU+s26f6lr6xWEeUeLTsA9N0+buK+s1pSIbDCgw7duwK+QN+mfnupuuu2woPWTkTNOPI0TMRAwAAACPPnEW/4zeN+sMLbc6ePrMrvPZY/SNKsjR1UqamFXo0tcCjIyePziDR7OvRrtYuNbZ227dmW/fGAf11o0/tnf3HWZXkZejz/zlNn76wxNmTfM0tbWpp269u/34rLDiBISNDaUMJDFu27gyZMX+RcX9IPZHxiyM9wQkAAABIe+PNraZzAQAAAADeJm3nznoCAwAAAIABpbW0tBAYAAAAAAworb29ncAAAAAAYEBpgUCAwAAAAABgQPY6DE4ZAAAAAPpJC1mcMgAAAAD0k+Q15wAAAACkMgIDAAAAAFcEBgAAAACuCAwAAAAAXBEYAAAAALgiMAAAAABwRWAAAAAA4IrAAAAAAMCF9P8BdWBp5ADu5DkAAAAASUVORK5CYII=;" vertex="1" parent="1">
          <mxGeometry x="-430" y="4258.5" width="183.17" height="178" as="geometry" />
        </mxCell>
        <mxCell id="uL55kOceticVz0h6povc-39" value="new tab request steam data" style="text;html=1;strokeColor=none;fillColor=none;align=center;verticalAlign=middle;whiteSpace=wrap;rounded=0;" vertex="1" parent="1">
          <mxGeometry x="-336.8299999999999" y="4218.5" width="90" height="30" as="geometry" />
        </mxCell>
        <mxCell id="uL55kOceticVz0h6povc-40" style="rounded=0;orthogonalLoop=1;jettySize=auto;html=1;" edge="1" parent="1" source="uL55kOceticVz0h6povc-42" target="uL55kOceticVz0h6povc-45">
          <mxGeometry relative="1" as="geometry" />
        </mxCell>
        <mxCell id="uL55kOceticVz0h6povc-41" style="rounded=0;orthogonalLoop=1;jettySize=auto;html=1;" edge="1" parent="1" source="uL55kOceticVz0h6povc-42" target="uL55kOceticVz0h6povc-47">
          <mxGeometry relative="1" as="geometry">
            <Array as="points">
              <mxPoint x="325.59000000000015" y="3988.5" />
            </Array>
          </mxGeometry>
        </mxCell>
        <mxCell id="uL55kOceticVz0h6povc-42" value="BACKGROUND" style="rounded=0;whiteSpace=wrap;html=1;" vertex="1" parent="1">
          <mxGeometry x="50.590000000000146" y="3948.5" width="120" height="60" as="geometry" />
        </mxCell>
        <mxCell id="uL55kOceticVz0h6povc-43" value="send request &lt;br&gt;stop&amp;nbsp;&lt;br&gt;&amp;nbsp;record + note data to background" style="text;html=1;strokeColor=none;fillColor=none;align=center;verticalAlign=middle;whiteSpace=wrap;rounded=0;" vertex="1" parent="1">
          <mxGeometry x="-4.4099999999998545" y="3838.5" width="110" height="30" as="geometry" />
        </mxCell>
        <mxCell id="uL55kOceticVz0h6povc-44" style="edgeStyle=orthogonalEdgeStyle;rounded=0;orthogonalLoop=1;jettySize=auto;html=1;entryX=0;entryY=0.5;entryDx=0;entryDy=0;" edge="1" parent="1" target="uL55kOceticVz0h6povc-42">
          <mxGeometry relative="1" as="geometry">
            <mxPoint x="300.59000000000015" y="3978.5" as="targetPoint" />
            <mxPoint x="180.59000000000015" y="4153.5" as="sourcePoint" />
            <Array as="points">
              <mxPoint x="-9" y="4154" />
              <mxPoint x="-9" y="3980" />
              <mxPoint y="3980" />
              <mxPoint y="3979" />
            </Array>
          </mxGeometry>
        </mxCell>
        <mxCell id="uL55kOceticVz0h6povc-45" value="NEW TAB&lt;br&gt;" style="rounded=0;whiteSpace=wrap;html=1;" vertex="1" parent="1">
          <mxGeometry x="60.590000000000146" y="4128.5" width="120" height="60" as="geometry" />
        </mxCell>
        <mxCell id="uL55kOceticVz0h6povc-46" value="sen reuqest stop reocord to new tab&amp;nbsp;" style="text;html=1;strokeColor=none;fillColor=none;align=center;verticalAlign=middle;whiteSpace=wrap;rounded=0;" vertex="1" parent="1">
          <mxGeometry x="120.59000000000015" y="4048.5" width="60" height="30" as="geometry" />
        </mxCell>
        <mxCell id="uL55kOceticVz0h6povc-47" value="SERVER" style="rounded=0;whiteSpace=wrap;html=1;" vertex="1" parent="1">
          <mxGeometry x="285.59000000000015" y="4180.5" width="220" height="168" as="geometry" />
        </mxCell>
        <mxCell id="uL55kOceticVz0h6povc-48" style="rounded=0;orthogonalLoop=1;jettySize=auto;html=1;entryX=0;entryY=0.607;entryDx=0;entryDy=0;entryPerimeter=0;" edge="1" parent="1" source="uL55kOceticVz0h6povc-45" target="uL55kOceticVz0h6povc-47">
          <mxGeometry relative="1" as="geometry" />
        </mxCell>
        <mxCell id="uL55kOceticVz0h6povc-49" value="&lt;h1&gt;solution1&lt;/h1&gt;&lt;p&gt;new tab send video + note data to server&amp;nbsp;&lt;/p&gt;" style="text;html=1;strokeColor=none;fillColor=none;spacing=5;spacingTop=-20;whiteSpace=wrap;overflow=hidden;rounded=0;" vertex="1" parent="1">
          <mxGeometry x="45.590000000000146" y="4248.5" width="190" height="120" as="geometry" />
        </mxCell>
        <mxCell id="uL55kOceticVz0h6povc-50" value="&lt;h1&gt;solution2&lt;/h1&gt;&lt;p&gt;new tab send back video to back ground&amp;nbsp;&lt;/p&gt;" style="text;html=1;strokeColor=none;fillColor=none;spacing=5;spacingTop=-20;whiteSpace=wrap;overflow=hidden;rounded=0;" vertex="1" parent="1">
          <mxGeometry x="-139.40999999999985" y="4041" width="140" height="85" as="geometry" />
        </mxCell>
        <mxCell id="uL55kOceticVz0h6povc-51" value="&lt;h1&gt;solution2&lt;/h1&gt;&lt;p&gt;background upload video and note to server&lt;/p&gt;" style="text;html=1;strokeColor=none;fillColor=none;spacing=5;spacingTop=-20;whiteSpace=wrap;overflow=hidden;rounded=0;" vertex="1" parent="1">
          <mxGeometry x="345.59000000000015" y="3978.5" width="140" height="85" as="geometry" />
        </mxCell>
      </root>
    </mxGraphModel>
  </diagram>
</mxfile>
